<svg width="295" height="44" viewBox="0 0 295 44" fill="none" xmlns="http://www.w3.org/2000/svg">
<path d="M24.1747 8.81818V35H19.3935L8.00284 18.5213H7.81108V35H2.27557V8.81818H7.13352L18.4347 25.2841H18.6648V8.81818H24.1747ZM37.5948 35.3835C35.5749 35.3835 33.8363 34.9744 32.3789 34.1562C30.93 33.3295 29.8136 32.1619 29.0295 30.6534C28.2454 29.1364 27.8533 27.3423 27.8533 25.2713C27.8533 23.2514 28.2454 21.4787 29.0295 19.9531C29.8136 18.4276 30.9173 17.2386 32.3406 16.3864C33.7724 15.5341 35.4513 15.108 37.3775 15.108C38.6729 15.108 39.8789 15.3168 40.9954 15.7344C42.1204 16.1435 43.1005 16.7614 43.9357 17.5881C44.7795 18.4148 45.4357 19.4545 45.9045 20.7074C46.3732 21.9517 46.6076 23.4091 46.6076 25.0795V26.5753H30.0266V23.2003H41.4812C41.4812 22.4162 41.3107 21.7216 40.9698 21.1165C40.6289 20.5114 40.1559 20.0384 39.5508 19.6974C38.9542 19.348 38.2596 19.1733 37.467 19.1733C36.6403 19.1733 35.9073 19.3651 35.2681 19.7486C34.6374 20.1236 34.1431 20.6307 33.7852 21.2699C33.4272 21.9006 33.244 22.6037 33.2354 23.3793V26.5881C33.2354 27.5597 33.4144 28.3991 33.7724 29.1065C34.1388 29.8139 34.6545 30.3594 35.3192 30.7429C35.984 31.1264 36.7724 31.3182 37.6843 31.3182C38.2894 31.3182 38.8434 31.233 39.3462 31.0625C39.8491 30.892 40.2795 30.6364 40.6374 30.2955C40.9954 29.9545 41.2681 29.5369 41.4556 29.0426L46.4925 29.375C46.2369 30.5852 45.7127 31.642 44.9201 32.5455C44.136 33.4403 43.1218 34.1392 41.8775 34.642C40.6417 35.1364 39.2141 35.3835 37.5948 35.3835ZM54.3612 15.3636L57.9663 22.2287L61.6609 15.3636H67.2475L61.5586 25.1818L67.4009 35H61.8398L57.9663 28.2116L54.1566 35H48.5316L54.3612 25.1818L48.7362 15.3636H54.3612ZM80.9265 15.3636V19.4545H69.1012V15.3636H80.9265ZM71.7859 10.6591H77.2319V28.9659C77.2319 29.4687 77.3086 29.8608 77.462 30.142C77.6154 30.4148 77.8285 30.6065 78.1012 30.7173C78.3825 30.8281 78.7063 30.8835 79.0728 30.8835C79.3285 30.8835 79.5842 30.8622 79.8398 30.8196C80.0955 30.7685 80.2915 30.7301 80.4279 30.7045L81.2844 34.7571C81.0117 34.8423 80.6282 34.9403 80.1339 35.0511C79.6396 35.1705 79.0387 35.2429 78.3313 35.2685C77.0188 35.3196 75.8683 35.1449 74.8796 34.7443C73.8995 34.3437 73.1367 33.7216 72.5913 32.8778C72.0458 32.0341 71.7773 30.9687 71.7859 29.6818V10.6591ZM110.269 17.2812C110.09 16.6591 109.839 16.1094 109.515 15.6321C109.191 15.1463 108.795 14.7372 108.326 14.4048C107.866 14.0639 107.337 13.804 106.741 13.625C106.153 13.446 105.501 13.3565 104.785 13.3565C103.447 13.3565 102.271 13.6889 101.256 14.3537C100.251 15.0185 99.4666 15.9858 98.9041 17.2557C98.3416 18.517 98.0604 20.0597 98.0604 21.8835C98.0604 23.7074 98.3374 25.2585 98.8913 26.5369C99.4453 27.8153 100.229 28.7912 101.244 29.4645C102.258 30.1293 103.455 30.4616 104.836 30.4616C106.089 30.4616 107.158 30.2401 108.045 29.7969C108.94 29.3452 109.621 28.7102 110.09 27.892C110.567 27.0739 110.806 26.1065 110.806 24.9901L111.931 25.1562H105.181V20.9886H116.137V24.2869C116.137 26.5881 115.651 28.5653 114.68 30.2188C113.708 31.8636 112.37 33.1335 110.665 34.0284C108.961 34.9148 107.009 35.358 104.81 35.358C102.356 35.358 100.2 34.8168 98.3416 33.7344C96.4837 32.6435 95.0348 31.0966 93.995 29.0938C92.9638 27.0824 92.4482 24.696 92.4482 21.9347C92.4482 19.8125 92.755 17.9205 93.3686 16.2585C93.9908 14.5881 94.8601 13.1733 95.9766 12.0142C97.093 10.8551 98.3928 9.97301 99.8757 9.3679C101.359 8.76278 102.965 8.46023 104.695 8.46023C106.178 8.46023 107.559 8.67756 108.837 9.11222C110.116 9.53835 111.249 10.1435 112.238 10.9276C113.235 11.7116 114.049 12.6449 114.68 13.7273C115.31 14.8011 115.715 15.9858 115.894 17.2812H110.269ZM129.142 35.3835C127.122 35.3835 125.383 34.9744 123.926 34.1562C122.477 33.3295 121.36 32.1619 120.576 30.6534C119.792 29.1364 119.4 27.3423 119.4 25.2713C119.4 23.2514 119.792 21.4787 120.576 19.9531C121.36 18.4276 122.464 17.2386 123.887 16.3864C125.319 15.5341 126.998 15.108 128.924 15.108C130.22 15.108 131.426 15.3168 132.542 15.7344C133.667 16.1435 134.647 16.7614 135.483 17.5881C136.326 18.4148 136.983 19.4545 137.451 20.7074C137.92 21.9517 138.154 23.4091 138.154 25.0795V26.5753H121.574V23.2003H133.028C133.028 22.4162 132.858 21.7216 132.517 21.1165C132.176 20.5114 131.703 20.0384 131.098 19.6974C130.501 19.348 129.806 19.1733 129.014 19.1733C128.187 19.1733 127.454 19.3651 126.815 19.7486C126.184 20.1236 125.69 20.6307 125.332 21.2699C124.974 21.9006 124.791 22.6037 124.782 23.3793V26.5881C124.782 27.5597 124.961 28.3991 125.319 29.1065C125.686 29.8139 126.201 30.3594 126.866 30.7429C127.531 31.1264 128.319 31.3182 129.231 31.3182C129.836 31.3182 130.39 31.233 130.893 31.0625C131.396 30.892 131.826 30.6364 132.184 30.2955C132.542 29.9545 132.815 29.5369 133.002 29.0426L138.039 29.375C137.784 30.5852 137.26 31.642 136.467 32.5455C135.683 33.4403 134.669 34.1392 133.424 34.642C132.189 35.1364 130.761 35.3835 129.142 35.3835ZM147.154 23.6477V35H141.708V15.3636H146.899V18.8281H147.129C147.564 17.6861 148.292 16.7827 149.315 16.1179C150.338 15.4446 151.578 15.108 153.035 15.108C154.399 15.108 155.588 15.4062 156.602 16.0028C157.616 16.5994 158.404 17.4517 158.967 18.5597C159.529 19.6591 159.811 20.9716 159.811 22.4972V35H154.365V23.4688C154.373 22.267 154.066 21.3295 153.444 20.6562C152.822 19.9744 151.966 19.6335 150.875 19.6335C150.142 19.6335 149.494 19.7912 148.931 20.1065C148.377 20.4219 147.943 20.8821 147.627 21.4872C147.321 22.0838 147.163 22.804 147.154 23.6477ZM178.073 8.81818V35H172.537V8.81818H178.073ZM187.971 23.6477V35H182.525V15.3636H187.715V18.8281H187.945C188.38 17.6861 189.109 16.7827 190.131 16.1179C191.154 15.4446 192.394 15.108 193.852 15.108C195.215 15.108 196.404 15.4062 197.418 16.0028C198.433 16.5994 199.221 17.4517 199.783 18.5597C200.346 19.6591 200.627 20.9716 200.627 22.4972V35H195.181V23.4688C195.19 22.267 194.883 21.3295 194.261 20.6562C193.638 19.9744 192.782 19.6335 191.691 19.6335C190.958 19.6335 190.31 19.7912 189.748 20.1065C189.194 20.4219 188.759 20.8821 188.444 21.4872C188.137 22.0838 187.979 22.804 187.971 23.6477ZM215.479 15.3636V19.4545H203.36V15.3636H215.479ZM206.134 35V13.9446C206.134 12.5213 206.411 11.3409 206.965 10.4034C207.527 9.46591 208.294 8.76278 209.266 8.29403C210.238 7.82528 211.341 7.59091 212.577 7.59091C213.412 7.59091 214.175 7.65483 214.865 7.78267C215.564 7.91051 216.084 8.02557 216.425 8.12784L215.453 12.2188C215.24 12.1506 214.976 12.0866 214.661 12.027C214.354 11.9673 214.039 11.9375 213.715 11.9375C212.914 11.9375 212.355 12.125 212.04 12.5C211.725 12.8665 211.567 13.3821 211.567 14.0469V35H206.134ZM218.806 35V15.3636H224.086V18.7898H224.29C224.648 17.571 225.249 16.6506 226.093 16.0284C226.937 15.3977 227.908 15.0824 229.008 15.0824C229.281 15.0824 229.575 15.0994 229.89 15.1335C230.205 15.1676 230.482 15.2145 230.721 15.2741V20.1065C230.465 20.0298 230.112 19.9616 229.66 19.902C229.208 19.8423 228.795 19.8125 228.42 19.8125C227.619 19.8125 226.903 19.9872 226.272 20.3366C225.65 20.6776 225.156 21.1548 224.789 21.7685C224.431 22.3821 224.252 23.0895 224.252 23.8906V35H218.806ZM238.574 35.3707C237.321 35.3707 236.204 35.1534 235.224 34.7188C234.244 34.2756 233.468 33.6236 232.897 32.7628C232.335 31.8935 232.054 30.8111 232.054 29.5156C232.054 28.4247 232.254 27.5085 232.654 26.767C233.055 26.0256 233.6 25.429 234.291 24.9773C234.981 24.5256 235.765 24.1847 236.643 23.9545C237.529 23.7244 238.458 23.5625 239.43 23.4688C240.572 23.3494 241.493 23.2386 242.191 23.1364C242.89 23.0256 243.397 22.8636 243.713 22.6506C244.028 22.4375 244.186 22.1222 244.186 21.7045V21.6278C244.186 20.8182 243.93 20.1918 243.419 19.7486C242.916 19.3054 242.2 19.0838 241.271 19.0838C240.291 19.0838 239.511 19.3011 238.931 19.7358C238.352 20.1619 237.968 20.6989 237.781 21.3466L232.744 20.9375C233 19.7443 233.502 18.7131 234.252 17.8438C235.002 16.9659 235.97 16.2926 237.154 15.8239C238.348 15.3466 239.728 15.108 241.297 15.108C242.387 15.108 243.431 15.2358 244.429 15.4915C245.434 15.7472 246.325 16.1435 247.1 16.6804C247.885 17.2173 248.502 17.9077 248.954 18.7514C249.406 19.5866 249.632 20.5881 249.632 21.7557V35H244.467V32.277H244.314C243.998 32.8906 243.576 33.4318 243.048 33.9006C242.52 34.3608 241.885 34.723 241.143 34.9872C240.402 35.2429 239.545 35.3707 238.574 35.3707ZM240.133 31.6122C240.934 31.6122 241.642 31.4545 242.255 31.1392C242.869 30.8153 243.35 30.3807 243.7 29.8352C244.049 29.2898 244.224 28.6719 244.224 27.9815V25.8977C244.054 26.0085 243.819 26.1108 243.521 26.2045C243.231 26.2898 242.903 26.3707 242.537 26.4474C242.17 26.5156 241.804 26.5795 241.437 26.6392C241.071 26.6903 240.738 26.7372 240.44 26.7798C239.801 26.8736 239.243 27.0227 238.765 27.2273C238.288 27.4318 237.917 27.7088 237.653 28.0582C237.389 28.3991 237.257 28.8253 237.257 29.3366C237.257 30.0781 237.525 30.6449 238.062 31.0369C238.608 31.4205 239.298 31.6122 240.133 31.6122ZM262.729 35.3835C260.718 35.3835 258.988 34.9574 257.539 34.1051C256.098 33.2443 254.99 32.0511 254.215 30.5256C253.448 29 253.064 27.2443 253.064 25.2585C253.064 23.2472 253.452 21.483 254.228 19.9659C255.012 18.4403 256.124 17.2514 257.564 16.3991C259.005 15.5384 260.718 15.108 262.703 15.108C264.417 15.108 265.917 15.419 267.203 16.0412C268.49 16.6634 269.509 17.5369 270.259 18.6619C271.009 19.7869 271.422 21.108 271.499 22.625H266.36C266.215 21.6449 265.831 20.8565 265.209 20.2599C264.596 19.6548 263.79 19.3523 262.793 19.3523C261.949 19.3523 261.212 19.5824 260.581 20.0426C259.959 20.4943 259.473 21.1548 259.124 22.0241C258.775 22.8935 258.6 23.946 258.6 25.1818C258.6 26.4347 258.77 27.5 259.111 28.3778C259.461 29.2557 259.951 29.9247 260.581 30.3849C261.212 30.8452 261.949 31.0753 262.793 31.0753C263.415 31.0753 263.973 30.9474 264.468 30.6918C264.971 30.4361 265.384 30.0653 265.708 29.5795C266.04 29.0852 266.257 28.4929 266.36 27.8026H271.499C271.414 29.3026 271.005 30.6236 270.272 31.7656C269.547 32.8991 268.546 33.7855 267.267 34.4247C265.989 35.0639 264.476 35.3835 262.729 35.3835ZM283.858 35.3835C281.872 35.3835 280.155 34.9616 278.706 34.1179C277.266 33.2656 276.153 32.081 275.369 30.5639C274.585 29.0384 274.193 27.2699 274.193 25.2585C274.193 23.2301 274.585 21.4574 275.369 19.9403C276.153 18.4148 277.266 17.2301 278.706 16.3864C280.155 15.5341 281.872 15.108 283.858 15.108C285.844 15.108 287.557 15.5341 288.997 16.3864C290.446 17.2301 291.562 18.4148 292.347 19.9403C293.131 21.4574 293.523 23.2301 293.523 25.2585C293.523 27.2699 293.131 29.0384 292.347 30.5639C291.562 32.081 290.446 33.2656 288.997 34.1179C287.557 34.9616 285.844 35.3835 283.858 35.3835ZM283.884 31.1648C284.787 31.1648 285.541 30.9091 286.146 30.3977C286.751 29.8778 287.207 29.1705 287.514 28.2756C287.83 27.3807 287.987 26.3622 287.987 25.2202C287.987 24.0781 287.83 23.0597 287.514 22.1648C287.207 21.2699 286.751 20.5625 286.146 20.0426C285.541 19.5227 284.787 19.2628 283.884 19.2628C282.972 19.2628 282.205 19.5227 281.582 20.0426C280.969 20.5625 280.504 21.2699 280.189 22.1648C279.882 23.0597 279.729 24.0781 279.729 25.2202C279.729 26.3622 279.882 27.3807 280.189 28.2756C280.504 29.1705 280.969 29.8778 281.582 30.3977C282.205 30.9091 282.972 31.1648 283.884 31.1648Z" fill="white"/>
</svg>
