<svg xmlns="http://www.w3.org/2000/svg" viewBox="0 0 104.224 361.996">
  <g id="Transformation_roadmap_big_arrow" transform="translate(-584.388 -478.624)" opacity="0.05">
    <g id="Group_466" transform="translate(584.388 705.065)">
      <path id="Path_5398" d="M606.722,592.9a11.167,11.167,0,1,1-11.167-11.167A11.167,11.167,0,0,1,606.722,592.9Z" transform="translate(-584.388 -581.732)" fill="#fff"/>
    </g>
    <g id="Group_467" transform="translate(584.388 790.989)">
      <path id="Path_5399" d="M606.722,618.677a11.167,11.167,0,1,1-11.167-11.167A11.166,11.166,0,0,1,606.722,618.677Z" transform="translate(-584.388 -607.509)" fill="#fff"/>
    </g>
    <g id="Group_468" transform="translate(611.685 793.471)">
      <path id="Path_5400" d="M632.5,621.019a11.166,11.166,0,1,1-11.166-11.166A11.166,11.166,0,0,1,632.5,621.019Z" transform="translate(-610.166 -609.853)" fill="#fff"/>
    </g>
    <g id="Group_469" transform="translate(584.388 818.286)">
      <path id="Path_5401" d="M606.722,644.453a11.167,11.167,0,1,1-11.167-11.166A11.166,11.166,0,0,1,606.722,644.453Z" transform="translate(-584.388 -633.287)" fill="#fff"/>
    </g>
    <g id="Group_470" transform="translate(584.388 478.623)">
      <path id="Path_5402" d="M606.722,489.789a11.167,11.167,0,1,1-11.167-11.167A11.166,11.166,0,0,1,606.722,489.789Z" transform="translate(-584.388 -478.623)" fill="#fff"/>
    </g>
    <g id="Group_471" transform="translate(584.388 648.455)">
      <path id="Path_5403" d="M606.722,567.121a11.167,11.167,0,1,1-11.167-11.167A11.166,11.166,0,0,1,606.722,567.121Z" transform="translate(-584.388 -555.955)" fill="#fff"/>
    </g>
    <g id="Group_472" transform="translate(611.685 651.028)">
      <path id="Path_5404" d="M632.5,568.293a11.166,11.166,0,1,1-11.166-11.166A11.166,11.166,0,0,1,632.5,568.293Z" transform="translate(-610.166 -557.127)" fill="#fff"/>
    </g>
    <g id="Group_473" transform="translate(611.685 708.925)">
      <path id="Path_5405" d="M632.5,594.656a11.166,11.166,0,1,1-11.166-11.167A11.166,11.166,0,0,1,632.5,594.656Z" transform="translate(-610.166 -583.49)" fill="#fff"/>
    </g>
    <g id="Group_474" transform="translate(584.388 591.843)">
      <path id="Path_5406" d="M606.722,541.344a11.167,11.167,0,1,1-11.167-11.168A11.166,11.166,0,0,1,606.722,541.344Z" transform="translate(-584.388 -530.177)" fill="#fff"/>
    </g>
    <g id="Group_475" transform="translate(611.685 593.132)">
      <path id="Path_5407" d="M632.5,541.93a11.166,11.166,0,1,1-11.166-11.167A11.167,11.167,0,0,1,632.5,541.93Z" transform="translate(-610.166 -530.764)" fill="#fff"/>
    </g>
    <g id="Group_476" transform="translate(584.388 505.919)">
      <path id="Path_5408" d="M606.722,515.566A11.167,11.167,0,1,1,595.555,504.4,11.167,11.167,0,0,1,606.722,515.566Z" transform="translate(-584.388 -504.4)" fill="#fff"/>
    </g>
    <g id="Group_477" transform="translate(611.685 505.919)">
      <path id="Path_5409" d="M632.5,515.566A11.166,11.166,0,1,1,621.332,504.4,11.167,11.167,0,0,1,632.5,515.566Z" transform="translate(-610.166 -504.4)" fill="#fff"/>
    </g>
    <g id="Group_478" transform="translate(638.981 648.455)">
      <path id="Path_5410" d="M658.277,567.121a11.167,11.167,0,1,1-11.166-11.167A11.167,11.167,0,0,1,658.277,567.121Z" transform="translate(-635.943 -555.955)" fill="#fff"/>
    </g>
    <g id="Group_479" transform="translate(638.981 705.065)">
      <path id="Path_5411" d="M658.277,592.9a11.167,11.167,0,1,1-11.166-11.167A11.168,11.168,0,0,1,658.277,592.9Z" transform="translate(-635.943 -581.732)" fill="#fff"/>
    </g>
    <g id="Group_480" transform="translate(666.277 648.455)">
      <path id="Path_5412" d="M684.054,567.121a11.167,11.167,0,1,1-11.166-11.167A11.166,11.166,0,0,1,684.054,567.121Z" transform="translate(-661.72 -555.955)" fill="#fff"/>
    </g>
    <g id="Group_481" transform="translate(638.981 591.843)">
      <path id="Path_5413" d="M658.277,541.344a11.167,11.167,0,1,1-11.166-11.168A11.167,11.167,0,0,1,658.277,541.344Z" transform="translate(-635.943 -530.177)" fill="#fff"/>
    </g>
  </g>
</svg>
