<svg viewBox="0 0 363 106" fill="none" xmlns="http://www.w3.org/2000/svg">
<g opacity="0.05">
<path d="M124.497 23.2217C122.288 23.2217 120.129 22.5668 118.293 21.3397C116.457 20.1127 115.025 18.3686 114.18 16.3281C113.335 14.2876 113.114 12.0423 113.545 9.87608C113.975 7.7099 115.039 5.72016 116.601 4.15843C118.163 2.5967 120.152 1.53316 122.318 1.10228C124.485 0.671398 126.73 0.892512 128.77 1.73772C130.811 2.58292 132.555 4.01423 133.782 5.85063C135.009 7.68703 135.664 9.84605 135.664 12.0547C135.664 13.5211 135.375 14.9733 134.814 16.3281C134.253 17.683 133.43 18.914 132.393 19.9509C131.356 20.9879 130.125 21.8104 128.77 22.3716C127.416 22.9328 125.963 23.2217 124.497 23.2217Z" fill="white"/>
<path d="M38.5752 23.2217C36.3666 23.2217 34.2076 22.5668 32.3712 21.3397C30.5348 20.1127 29.1034 18.3686 28.2582 16.3281C27.413 14.2876 27.1919 12.0423 27.6227 9.87608C28.0536 7.7099 29.1172 5.72016 30.679 4.15843C32.2407 2.5967 34.2304 1.53316 36.3966 1.10228C38.5628 0.671398 40.8081 0.892512 42.8486 1.73772C44.8891 2.58292 46.6332 4.01423 47.8602 5.85063C49.0873 7.68703 49.7422 9.84605 49.7422 12.0547C49.7423 13.5212 49.4536 14.9733 48.8925 16.3282C48.3313 17.6831 47.5087 18.9142 46.4717 19.9512C45.4348 20.9882 44.2037 21.8108 42.8488 22.3719C41.4939 22.9331 40.0417 23.2218 38.5752 23.2217Z" fill="white"/>
<path d="M36.0919 50.5185C33.8834 50.5185 31.7246 49.8636 29.8884 48.6367C28.0521 47.4097 26.6209 45.6659 25.7758 43.6256C24.9307 41.5853 24.7095 39.3402 25.1404 37.1742C25.5712 35.0082 26.6347 33.0185 28.1963 31.4569C29.7579 29.8953 31.7475 28.8319 33.9135 28.4011C36.0794 27.9702 38.3245 28.1913 40.3649 29.0365C42.4052 29.8816 44.1491 31.3128 45.376 33.149C46.603 34.9853 47.2578 37.1441 47.2578 39.3525C47.2578 40.8188 46.969 42.2709 46.4079 43.6256C45.8468 44.9803 45.0242 46.2112 43.9874 47.2481C42.9505 48.2849 41.7196 49.1074 40.3649 49.6685C39.0101 50.2297 37.5582 50.5185 36.0919 50.5185Z" fill="white"/>
<path d="M11.2793 23.2217C9.07063 23.2219 6.91149 22.5671 5.07495 21.3402C3.23842 20.1133 1.80697 18.3693 0.961609 16.3288C0.116252 14.2883 -0.105024 12.043 0.325745 9.87671C0.756513 7.71046 1.82002 5.72065 3.38171 4.15881C4.94341 2.59698 6.93315 1.53332 9.09937 1.10236C11.2656 0.671393 13.511 0.892435 15.5515 1.73761C17.5921 2.58278 19.3361 4.0141 20.5632 5.85052C21.7903 7.68695 22.4453 9.84602 22.4453 12.0547C22.4454 13.5211 22.1567 14.9732 21.5956 16.3281C21.0346 17.6829 20.2121 18.9139 19.1752 19.9509C18.1384 20.9878 16.9073 21.8104 15.5526 22.3716C14.1978 22.9328 12.7457 23.2217 11.2793 23.2217Z" fill="white"/>
<path d="M350.942 23.2217C348.734 23.2217 346.575 22.5668 344.738 21.3397C342.902 20.1127 341.471 18.3686 340.625 16.3281C339.78 14.2876 339.559 12.0423 339.99 9.87608C340.421 7.7099 341.484 5.72016 343.046 4.15843C344.608 2.5967 346.598 1.53316 348.764 1.10228C350.93 0.671398 353.175 0.892512 355.216 1.73772C357.256 2.58292 359 4.01423 360.227 5.85063C361.454 7.68703 362.109 9.84605 362.109 12.0547C362.11 13.5212 361.821 14.9733 361.26 16.3282C360.698 17.6831 359.876 18.9142 358.839 19.9512C357.802 20.9882 356.571 21.8108 355.216 22.3719C353.861 22.9331 352.409 23.2218 350.942 23.2217Z" fill="white"/>
<path d="M181.114 23.2217C178.906 23.2217 176.747 22.5668 174.91 21.3397C173.074 20.1127 171.642 18.3686 170.797 16.3281C169.952 14.2876 169.731 12.0423 170.162 9.87608C170.593 7.7099 171.656 5.72016 173.218 4.15843C174.78 2.5967 176.769 1.53316 178.936 1.10228C181.102 0.671398 183.347 0.892512 185.388 1.73772C187.428 2.58292 189.172 4.01423 190.399 5.85063C191.626 7.68703 192.281 9.84605 192.281 12.0547C192.281 13.5212 191.993 14.9733 191.431 16.3282C190.87 17.6831 190.048 18.9142 189.011 19.9512C187.974 20.9882 186.743 21.8108 185.388 22.3719C184.033 22.9331 182.581 23.2218 181.114 23.2217Z" fill="white"/>
<path d="M178.537 50.5185C176.329 50.5185 174.17 49.8636 172.334 48.6367C170.497 47.4097 169.066 45.6659 168.221 43.6256C167.376 41.5853 167.155 39.3402 167.586 37.1742C168.017 35.0082 169.08 33.0185 170.642 31.4569C172.203 29.8953 174.193 28.8319 176.359 28.4011C178.525 27.9702 180.77 28.1913 182.81 29.0365C184.851 29.8816 186.594 31.3128 187.821 33.149C189.048 34.9853 189.703 37.1441 189.703 39.3525C189.703 40.8188 189.414 42.2709 188.853 43.6256C188.292 44.9803 187.47 46.2112 186.433 47.2481C185.396 48.2849 184.165 49.1074 182.81 49.6685C181.455 50.2297 180.003 50.5185 178.537 50.5185Z" fill="white"/>
<path d="M120.638 50.5185C118.429 50.5183 116.271 49.8632 114.434 48.6362C112.598 47.4091 111.167 45.6652 110.322 43.6248C109.477 41.5845 109.256 39.3395 109.687 37.1735C110.118 35.0076 111.182 33.0181 112.744 31.4566C114.305 29.8951 116.295 28.8318 118.461 28.401C120.627 27.9703 122.872 28.1914 124.912 29.0366C126.952 29.8817 128.696 31.3129 129.923 33.1491C131.15 34.9853 131.805 37.1441 131.805 39.3525C131.805 40.8189 131.516 42.271 130.955 43.6258C130.393 44.9806 129.571 46.2116 128.534 47.2484C127.497 48.2853 126.266 49.1077 124.911 49.6688C123.556 50.2299 122.104 50.5186 120.638 50.5185Z" fill="white"/>
<path d="M237.723 23.2217C235.514 23.2215 233.355 22.5664 231.519 21.3392C229.683 20.1121 228.251 18.368 227.406 16.3275C226.561 14.2869 226.34 12.0416 226.771 9.8755C227.202 7.70938 228.266 5.71973 229.828 4.15809C231.39 2.59646 233.379 1.53299 235.545 1.10219C237.712 0.671386 239.957 0.892634 241.997 1.73787C244.038 2.5831 245.782 4.0144 247.009 5.85078C248.236 7.68716 248.891 9.84612 248.891 12.0547C248.891 13.5213 248.602 14.9735 248.041 16.3285C247.48 17.6835 246.657 18.9146 245.62 19.9516C244.583 20.9886 243.352 21.8111 241.997 22.3722C240.642 22.9333 239.189 23.222 237.723 23.2217Z" fill="white"/>
<path d="M236.435 50.5185C234.226 50.5183 232.067 49.8632 230.231 48.6362C228.395 47.4091 226.964 45.6652 226.119 43.6248C225.274 41.5845 225.053 39.3395 225.484 37.1735C225.915 35.0076 226.979 33.0181 228.54 31.4566C230.102 29.8951 232.092 28.8318 234.258 28.401C236.424 27.9703 238.669 28.1914 240.709 29.0366C242.749 29.8817 244.493 31.3129 245.72 33.1491C246.947 34.9853 247.602 37.1441 247.602 39.3525C247.601 42.314 246.425 45.1541 244.33 47.2481C242.236 49.3421 239.396 50.5185 236.435 50.5185Z" fill="white"/>
<path d="M323.647 23.2217C321.438 23.2219 319.279 22.5671 317.442 21.3402C315.606 20.1133 314.174 18.3693 313.329 16.3288C312.483 14.2883 312.262 12.043 312.693 9.87671C313.124 7.71046 314.187 5.72065 315.749 4.15881C317.311 2.59698 319.3 1.53332 321.467 1.10236C323.633 0.671393 325.878 0.892435 327.919 1.73761C329.959 2.58278 331.703 4.0141 332.93 5.85052C334.158 7.68695 334.812 9.84602 334.812 12.0547C334.813 15.0162 333.636 17.8564 331.542 19.9506C329.448 22.0448 326.608 23.2214 323.647 23.2217Z" fill="white"/>
<path d="M323.647 50.5185C321.438 50.5185 319.279 49.8637 317.443 48.6369C315.607 47.41 314.176 45.6662 313.331 43.626C312.485 41.5858 312.264 39.3408 312.695 37.1749C313.126 35.0089 314.189 33.0193 315.75 31.4577C317.312 29.896 319.301 28.8324 321.467 28.4013C323.633 27.9703 325.878 28.1911 327.918 29.0359C329.959 29.8807 331.703 31.3116 332.93 33.1475C334.157 34.9835 334.812 37.1421 334.812 39.3505C334.813 40.817 334.524 42.2692 333.963 43.624C333.402 44.9789 332.579 46.21 331.542 47.2471C330.506 48.2841 329.275 49.1068 327.92 49.6681C326.565 50.2294 325.113 50.5184 323.647 50.5185Z" fill="white"/>
<path d="M181.114 77.8144C178.906 77.8144 176.747 77.1595 174.91 75.9324C173.074 74.7053 171.642 72.9612 170.797 70.9206C169.952 68.8801 169.731 66.6347 170.162 64.4685C170.593 62.3023 171.656 60.3125 173.218 58.7508C174.78 57.1891 176.77 56.1257 178.936 55.6949C181.103 55.2642 183.348 55.4854 185.388 56.3308C187.429 57.1761 189.173 58.6076 190.4 60.4441C191.627 62.2807 192.281 64.4398 192.281 66.6485C192.281 69.61 191.104 72.45 189.01 74.544C186.916 76.638 184.076 77.8144 181.114 77.8144Z" fill="white"/>
<path d="M124.497 77.8144C122.288 77.8144 120.129 77.1595 118.293 75.9324C116.456 74.7053 115.025 72.9612 114.18 70.9206C113.335 68.8801 113.114 66.6347 113.545 64.4685C113.976 62.3023 115.039 60.3125 116.601 58.7508C118.163 57.1891 120.153 56.1257 122.319 55.6949C124.485 55.2642 126.731 55.4854 128.771 56.3308C130.812 57.1761 132.556 58.6076 133.783 60.4441C135.009 62.2807 135.664 64.4398 135.664 66.6485C135.664 69.6099 134.487 72.4499 132.393 74.5438C130.299 76.6377 127.458 77.8142 124.497 77.8144Z" fill="white"/>
<path d="M181.114 105.111C178.906 105.111 176.747 104.456 174.91 103.229C173.074 102.002 171.642 100.258 170.797 98.2171C169.952 96.1765 169.731 93.9311 170.162 91.7649C170.593 89.5987 171.656 87.6089 173.218 86.0472C174.78 84.4855 176.77 83.4221 178.936 82.9913C181.103 82.5605 183.348 82.7818 185.388 83.6272C187.429 84.4725 189.173 85.904 190.4 87.7405C191.627 89.5771 192.281 91.7362 192.281 93.9449C192.281 95.4113 191.992 96.8633 191.431 98.2181C190.87 99.5729 190.047 100.804 189.01 101.841C187.973 102.878 186.742 103.7 185.388 104.261C184.033 104.822 182.581 105.111 181.114 105.111Z" fill="white"/>
<path d="M237.723 77.8145C235.514 77.8143 233.355 77.1592 231.519 75.932C229.682 74.7048 228.251 72.9606 227.406 70.92C226.561 68.8794 226.34 66.6341 226.771 64.4679C227.202 62.3018 228.266 60.3121 229.828 58.7505C231.39 57.1889 233.38 56.1255 235.546 55.6948C237.712 55.2642 239.958 55.4855 241.998 56.3309C244.038 57.1763 245.782 58.6078 247.009 60.4443C248.236 62.2808 248.891 64.4399 248.891 66.6485C248.89 68.115 248.602 69.567 248.04 70.9218C247.479 72.2766 246.656 73.5076 245.619 74.5445C244.582 75.5813 243.351 76.4038 241.996 76.9649C240.641 77.5259 239.189 77.8146 237.723 77.8145Z" fill="white"/>
</g>
</svg>
