<svg xmlns="http://www.w3.org/2000/svg" width="362" height="672" viewBox="0 0 362 672">
  <defs>
    <linearGradient id="linear-gradient" x1="0.5" x2="0.5" y2="1" gradientUnits="objectBoundingBox">
      <stop offset="0" stop-color="#020a29" stop-opacity="0"/>
      <stop offset="1" stop-color="#fbfff5" stop-opacity="0.059"/>
    </linearGradient>
    <clipPath id="clip-path">
      <rect id="Rectangle_129" width="67" height="67" transform="translate(-0.257 -0.257)" fill="none" stroke="#e8e8e8" stroke-width="2"/>
    </clipPath>
  </defs>
  <g id="Key_Players" transform="translate(-1281 -3536.5)">
    <path id="Path_5738" d="M41,0H320a41,41,0,0,1,41,41V630a41,41,0,0,1-41,41H41A41,41,0,0,1,0,630V41A41,41,0,0,1,41,0Z" transform="translate(1281.5 3537)" fill="none" stroke="#3c7169" stroke-width="1"/>
    <path id="Path_5739" d="M41,0H320a41,41,0,0,1,41,41V531a41,41,0,0,1-41,41H41A41,41,0,0,1,0,531V41A41,41,0,0,1,41,0Z" transform="translate(1281 3636)" fill="url(#linear-gradient)"/>
    <path id="Path_5740" d="M-50.488,0h-4.98l-5.1-7.6a7.29,7.29,0,0,1-.464-.964H-61.1V0h-3.943V-17.5H-61.1v8.276h.061q.146-.342.488-.977l4.834-7.3h4.7l-6.1,8.35Zm12.524-5.151h-8.154q.2,2.722,3.43,2.722a6.7,6.7,0,0,0,3.625-.977V-.623a9.524,9.524,0,0,1-4.5.928,6.341,6.341,0,0,1-4.7-1.678,6.341,6.341,0,0,1-1.672-4.681,6.689,6.689,0,0,1,1.807-4.932,6.019,6.019,0,0,1,4.443-1.819,5.463,5.463,0,0,1,4.23,1.624,6.252,6.252,0,0,1,1.5,4.407ZM-41.541-7.52q0-2.686-2.173-2.686a2.075,2.075,0,0,0-1.605.769,3.49,3.49,0,0,0-.824,1.917Zm17.773-4.98L-28.845,1q-1.831,4.871-5.518,4.871a7.069,7.069,0,0,1-2.307-.317V2.478A3.244,3.244,0,0,0-35,2.93a2.089,2.089,0,0,0,2.075-1.4l.659-1.55L-37.341-12.5h4.272l2.332,7.6A9.883,9.883,0,0,1-30.4-3.223h.049a11.661,11.661,0,0,1,.4-1.648l2.356-7.629ZM-11.414-1.453h-.049v7.2H-15.32V-12.5h3.857v1.88h.049A4.535,4.535,0,0,1-7.4-12.805a4.518,4.518,0,0,1,3.754,1.666A7.094,7.094,0,0,1-2.319-6.6,7.69,7.69,0,0,1-3.864-1.587,5.035,5.035,0,0,1-7.971.305,3.892,3.892,0,0,1-11.414-1.453Zm-.11-5.127v1a3.182,3.182,0,0,0,.684,2.112,2.225,2.225,0,0,0,1.794.818A2.365,2.365,0,0,0-7-3.668a4.921,4.921,0,0,0,.726-2.887q0-3.3-2.563-3.3a2.407,2.407,0,0,0-1.935.9A3.578,3.578,0,0,0-11.523-6.58ZM4.041,0H.183V-18.506H4.041ZM17.688,0h-3.65V-1.794h-.049a4.074,4.074,0,0,1-3.723,2.1A3.894,3.894,0,0,1,7.4-.726,3.7,3.7,0,0,1,6.36-3.479q0-3.638,4.309-4.2l3.394-.452q0-2.051-2.222-2.051A7.583,7.583,0,0,0,7.593-8.85v-2.905a9.557,9.557,0,0,1,2.2-.732,11.582,11.582,0,0,1,2.545-.317q5.347,0,5.347,5.334ZM14.063-5.078V-5.92l-2.271.293q-1.88.244-1.88,1.7a1.4,1.4,0,0,0,.458,1.08,1.759,1.759,0,0,0,1.239.421,2.284,2.284,0,0,0,1.77-.751A2.712,2.712,0,0,0,14.063-5.078ZM32.642-12.5,27.563,1q-1.831,4.871-5.518,4.871a7.069,7.069,0,0,1-2.307-.317V2.478a3.244,3.244,0,0,0,1.672.452,2.089,2.089,0,0,0,2.075-1.4l.659-1.55L19.067-12.5H23.34l2.332,7.6a9.883,9.883,0,0,1,.342,1.672h.049a11.661,11.661,0,0,1,.4-1.648L28.821-12.5ZM45.422-5.151H37.268q.2,2.722,3.43,2.722a6.7,6.7,0,0,0,3.625-.977V-.623a9.524,9.524,0,0,1-4.5.928,6.341,6.341,0,0,1-4.7-1.678,6.341,6.341,0,0,1-1.672-4.681,6.689,6.689,0,0,1,1.807-4.932A6.019,6.019,0,0,1,39.7-12.805a5.463,5.463,0,0,1,4.23,1.624,6.252,6.252,0,0,1,1.5,4.407ZM41.846-7.52q0-2.686-2.173-2.686a2.075,2.075,0,0,0-1.605.769,3.49,3.49,0,0,0-.824,1.917Zm14.026-1.5A3.346,3.346,0,0,0,54.248-9.4a2.339,2.339,0,0,0-1.965.922,4.021,4.021,0,0,0-.708,2.509V0H47.717V-12.5h3.857v2.319h.049a3.337,3.337,0,0,1,3.3-2.539,2.484,2.484,0,0,1,.952.146ZM56.848-.33V-3.455a8.213,8.213,0,0,0,1.9.854,6.294,6.294,0,0,0,1.788.281A3.836,3.836,0,0,0,62.152-2.6a.907.907,0,0,0,.592-.854.791.791,0,0,0-.269-.61,2.5,2.5,0,0,0-.69-.427,7.827,7.827,0,0,0-.922-.33q-.5-.146-.964-.33a9.24,9.24,0,0,1-1.312-.6,3.793,3.793,0,0,1-.952-.751A2.951,2.951,0,0,1,57.05-7.5a3.946,3.946,0,0,1-.2-1.331,3.425,3.425,0,0,1,.458-1.807,3.739,3.739,0,0,1,1.221-1.239,5.578,5.578,0,0,1,1.746-.708,9.1,9.1,0,0,1,2.045-.226A11.345,11.345,0,0,1,64-12.677a12.573,12.573,0,0,1,1.685.372v2.979a6.087,6.087,0,0,0-1.569-.641,6.617,6.617,0,0,0-1.642-.214,3.638,3.638,0,0,0-.714.067,2.352,2.352,0,0,0-.592.2,1.087,1.087,0,0,0-.4.33.759.759,0,0,0-.146.458.846.846,0,0,0,.22.586,1.908,1.908,0,0,0,.574.421,5.664,5.664,0,0,0,.787.317q.433.14.861.287a11.189,11.189,0,0,1,1.392.586,4.449,4.449,0,0,1,1.068.745,2.924,2.924,0,0,1,.684,1,3.558,3.558,0,0,1,.238,1.367,3.566,3.566,0,0,1-.482,1.9A3.86,3.86,0,0,1,64.679-.641a5.813,5.813,0,0,1-1.843.72,10.219,10.219,0,0,1-2.167.226A11.17,11.17,0,0,1,56.848-.33Z" transform="translate(1462 3598)" fill="#fff"/>
    <path id="Path_5741" d="M-27.823-16.352-21.793-1.92l6.053-14.431H-13.9V0h-1.381V-7.12l.112-7.3L-21.254,0h-1.067l-6.064-14.364.112,7.2V0h-1.381V-16.352ZM2.42,0H1.039l-9.4-13.993V0H-9.754V-16.352h1.393l9.411,14v-14H2.42ZM18.659-7.289a9.447,9.447,0,0,1-.781,3.964A5.956,5.956,0,0,1,15.65-.7,6.1,6.1,0,0,1,12.3.225a5.808,5.808,0,0,1-4.627-2.05A8.194,8.194,0,0,1,5.913-7.356V-9.041A9.39,9.39,0,0,1,6.7-13a6.047,6.047,0,0,1,2.24-2.65,6.056,6.056,0,0,1,3.335-.927,6.111,6.111,0,0,1,3.33.91,5.976,5.976,0,0,1,2.229,2.572,9.256,9.256,0,0,1,.82,3.852ZM17.278-9.063a7.227,7.227,0,0,0-1.336-4.627,4.431,4.431,0,0,0-3.661-1.673,4.425,4.425,0,0,0-3.633,1.679A7.285,7.285,0,0,0,7.294-9v1.707a7.227,7.227,0,0,0,1.348,4.61A4.422,4.422,0,0,0,12.3-.977a4.387,4.387,0,0,0,3.661-1.679,7.419,7.419,0,0,0,1.314-4.677ZM29.1-3.088a1.915,1.915,0,0,0-.8-1.606,6.193,6.193,0,0,0-2.42-.949,10.919,10.919,0,0,1-2.51-.786,3.344,3.344,0,0,1-1.325-1.084,2.7,2.7,0,0,1-.432-1.55,2.891,2.891,0,0,1,1.2-2.375,4.854,4.854,0,0,1,3.077-.938,5,5,0,0,1,3.262,1.005,3.226,3.226,0,0,1,1.23,2.622H29.036a2.176,2.176,0,0,0-.893-1.774,3.513,3.513,0,0,0-2.252-.708,3.514,3.514,0,0,0-2.128.59,1.819,1.819,0,0,0-.8,1.533A1.657,1.657,0,0,0,23.629-7.7a7.068,7.068,0,0,0,2.437.915,11.454,11.454,0,0,1,2.65.887,3.433,3.433,0,0,1,1.308,1.134,2.9,2.9,0,0,1,.427,1.606A2.911,2.911,0,0,1,29.21-.7a5.3,5.3,0,0,1-3.24.921A5.443,5.443,0,0,1,22.528-.8a3.163,3.163,0,0,1-1.32-2.6h1.348a2.337,2.337,0,0,0,.994,1.836,4.063,4.063,0,0,0,2.42.657,3.819,3.819,0,0,0,2.269-.618A1.854,1.854,0,0,0,29.1-3.088Z" transform="translate(1462 3763)" fill="#fff" stroke="rgba(0,0,0,0)" stroke-width="1"/>
    <path id="Path_5742" d="M-90.287-6.66V0h-1.381V-16.352h5.57a5.872,5.872,0,0,1,4.026,1.3A4.53,4.53,0,0,1-80.6-11.466a4.487,4.487,0,0,1-1.421,3.554A6.04,6.04,0,0,1-86.132-6.66Zm0-1.168H-86.1a4.42,4.42,0,0,0,3.066-.956,3.413,3.413,0,0,0,1.056-2.666,3.572,3.572,0,0,0-1.05-2.7,4.212,4.212,0,0,0-2.982-1.029h-4.279Zm18.081-3.178a5.02,5.02,0,0,0-.91-.079,3.282,3.282,0,0,0-2.128.7,3.844,3.844,0,0,0-1.241,2.038V0h-1.336V-12.151h1.314l.022,1.932a3.574,3.574,0,0,1,3.425-2.156,2.21,2.21,0,0,1,.887.146ZM-68.579,0h-1.348V-12.151h1.348Zm-1.583-15.661a.9.9,0,0,1,.247-.642.881.881,0,0,1,.674-.262.9.9,0,0,1,.679.262.89.89,0,0,1,.253.642.871.871,0,0,1-.253.636.91.91,0,0,1-.679.257.891.891,0,0,1-.674-.257A.882.882,0,0,1-70.162-15.661Zm9.018,13.808,3.695-10.3h1.381L-60.605,0h-1.089l-4.56-12.151h1.381ZM-46.365,0a6.355,6.355,0,0,1-.258-1.7,4.686,4.686,0,0,1-1.8,1.421,5.52,5.52,0,0,1-2.319.5,4.073,4.073,0,0,1-2.836-.977,3.183,3.183,0,0,1-1.084-2.471,3.252,3.252,0,0,1,1.477-2.808,7.1,7.1,0,0,1,4.116-1.033h2.437V-8.445a2.662,2.662,0,0,0-.8-2.05,3.319,3.319,0,0,0-2.342-.747,3.665,3.665,0,0,0-2.325.719,2.136,2.136,0,0,0-.921,1.729L-54.372-8.8a3.125,3.125,0,0,1,1.348-2.51,5.189,5.189,0,0,1,3.313-1.061,4.733,4.733,0,0,1,3.206,1.016A3.647,3.647,0,0,1-45.3-8.524v5.75a7.132,7.132,0,0,0,.371,2.639V0Zm-4.223-.966a4.512,4.512,0,0,0,2.409-.651,3.833,3.833,0,0,0,1.544-1.741V-6.031h-2.4a6.022,6.022,0,0,0-3.145.736,2.208,2.208,0,0,0-1.134,1.96,2.172,2.172,0,0,0,.758,1.7A2.856,2.856,0,0,0-50.588-.966Zm10.961-14.3v3.111h2.516v1.1h-2.516v8.106a2.538,2.538,0,0,0,.365,1.507,1.415,1.415,0,0,0,1.219.495,8.361,8.361,0,0,0,1.089-.112L-36.9.035a4.393,4.393,0,0,1-1.437.189,2.4,2.4,0,0,1-2.01-.8,3.78,3.78,0,0,1-.629-2.364v-8.108h-2.235v-1.1h2.235v-3.111ZM-29.62.225a5.275,5.275,0,0,1-2.8-.764,5.2,5.2,0,0,1-1.948-2.128,6.635,6.635,0,0,1-.7-3.06V-6.21a7.151,7.151,0,0,1,.679-3.156A5.406,5.406,0,0,1-32.5-11.573a4.668,4.668,0,0,1,2.628-.8,4.387,4.387,0,0,1,3.51,1.51,6.127,6.127,0,0,1,1.3,4.127v.752h-8.67v.258a5.088,5.088,0,0,0,1.185,3.442A3.769,3.769,0,0,0-29.564-.91a4.379,4.379,0,0,0,1.9-.393,4.222,4.222,0,0,0,1.5-1.258l.842.64A4.9,4.9,0,0,1-29.62.225Zm-.247-11.455a3.36,3.36,0,0,0-2.555,1.112,5.136,5.136,0,0,0-1.263,2.987H-26.4v-.146a4.459,4.459,0,0,0-1-2.853A3.1,3.1,0,0,0-29.867-11.23ZM-12.146.225a5.275,5.275,0,0,1-2.8-.764A5.2,5.2,0,0,1-16.9-2.667a6.635,6.635,0,0,1-.7-3.06V-6.21a7.15,7.15,0,0,1,.679-3.156,5.406,5.406,0,0,1,1.892-2.207,4.668,4.668,0,0,1,2.628-.8,4.387,4.387,0,0,1,3.51,1.51,6.127,6.127,0,0,1,1.3,4.127v.752h-8.67v.258a5.088,5.088,0,0,0,1.185,3.442A3.769,3.769,0,0,0-12.09-.91a4.379,4.379,0,0,0,1.9-.393,4.222,4.222,0,0,0,1.5-1.258l.842.64A4.9,4.9,0,0,1-12.146.225Zm-.247-11.455a3.36,3.36,0,0,0-2.555,1.112,5.136,5.136,0,0,0-1.263,2.987h7.289v-.146a4.459,4.459,0,0,0-1-2.853A3.1,3.1,0,0,0-12.393-11.23Zm8.7-.921.045,2.078a4.825,4.825,0,0,1,1.707-1.713,4.436,4.436,0,0,1,2.257-.59,3.645,3.645,0,0,1,2.909,1.1,4.964,4.964,0,0,1,.966,3.3V0H2.858V-7.985a3.712,3.712,0,0,0-.691-2.426,2.706,2.706,0,0,0-2.173-.8,3.4,3.4,0,0,0-2.207.781A4.572,4.572,0,0,0-3.633-8.322V0H-4.969V-12.151ZM9.754-15.262v3.111h2.516v1.1H9.754v8.106a2.538,2.538,0,0,0,.365,1.507,1.415,1.415,0,0,0,1.219.495,8.361,8.361,0,0,0,1.089-.112L12.483.035a4.393,4.393,0,0,1-1.437.189,2.4,2.4,0,0,1-2.01-.8,3.78,3.78,0,0,1-.629-2.364v-8.108H6.171v-1.1H8.406v-3.111ZM19.76.225a5.275,5.275,0,0,1-2.8-.764A5.2,5.2,0,0,1,15.01-2.667a6.635,6.635,0,0,1-.7-3.06V-6.21a7.15,7.15,0,0,1,.679-3.156,5.406,5.406,0,0,1,1.892-2.207,4.668,4.668,0,0,1,2.628-.8,4.387,4.387,0,0,1,3.51,1.51,6.127,6.127,0,0,1,1.3,4.127v.752H15.65v.258a5.088,5.088,0,0,0,1.185,3.442A3.769,3.769,0,0,0,19.816-.91a4.379,4.379,0,0,0,1.9-.393,4.222,4.222,0,0,0,1.5-1.258l.842.64A4.9,4.9,0,0,1,19.76.225ZM19.513-11.23a3.36,3.36,0,0,0-2.555,1.112,5.136,5.136,0,0,0-1.263,2.987h7.289v-.146a4.459,4.459,0,0,0-1-2.853A3.1,3.1,0,0,0,19.513-11.23Zm13.039.225a5.02,5.02,0,0,0-.91-.079,3.282,3.282,0,0,0-2.128.7,3.844,3.844,0,0,0-1.241,2.038V0H26.936V-12.151H28.25l.022,1.932A3.574,3.574,0,0,1,31.7-12.376a2.21,2.21,0,0,1,.887.146ZM44.445-5.952a7.318,7.318,0,0,1-1.258,4.509A4.006,4.006,0,0,1,39.818.225,4.5,4.5,0,0,1,36-1.527v6.2H34.663V-12.151h1.247l.067,1.718a4.312,4.312,0,0,1,3.807-1.943,4.042,4.042,0,0,1,3.42,1.651,7.48,7.48,0,0,1,1.241,4.582ZM43.1-6.188a6.25,6.25,0,0,0-.955-3.672,3.078,3.078,0,0,0-2.662-1.348,3.72,3.72,0,0,0-2.123.6A3.744,3.744,0,0,0,36-8.883v5.829A3.568,3.568,0,0,0,37.381-1.46,3.983,3.983,0,0,0,39.5-.91a3.049,3.049,0,0,0,2.645-1.353A6.8,6.8,0,0,0,43.1-6.188Zm9.939-4.818a5.02,5.02,0,0,0-.91-.079,3.282,3.282,0,0,0-2.128.7,3.844,3.844,0,0,0-1.241,2.038V0H47.421V-12.151h1.314l.022,1.932a3.574,3.574,0,0,1,3.425-2.156,2.21,2.21,0,0,1,.887.146ZM56.663,0H55.316V-12.151h1.348ZM55.08-15.661a.9.9,0,0,1,.247-.642A.881.881,0,0,1,56-16.565a.9.9,0,0,1,.679.262.89.89,0,0,1,.253.642.871.871,0,0,1-.253.636.91.91,0,0,1-.679.257.891.891,0,0,1-.674-.257A.882.882,0,0,1,55.08-15.661ZM67.591-3.088a1.915,1.915,0,0,0-.8-1.606,6.193,6.193,0,0,0-2.42-.949,10.919,10.919,0,0,1-2.51-.786,3.344,3.344,0,0,1-1.325-1.084,2.7,2.7,0,0,1-.432-1.55,2.891,2.891,0,0,1,1.2-2.375,4.854,4.854,0,0,1,3.077-.938,5,5,0,0,1,3.262,1.005,3.226,3.226,0,0,1,1.23,2.622H67.523a2.176,2.176,0,0,0-.893-1.774,3.513,3.513,0,0,0-2.252-.708,3.514,3.514,0,0,0-2.128.59,1.819,1.819,0,0,0-.8,1.533A1.657,1.657,0,0,0,62.116-7.7a7.068,7.068,0,0,0,2.437.915A11.454,11.454,0,0,1,67.2-5.9a3.433,3.433,0,0,1,1.308,1.134,2.9,2.9,0,0,1,.427,1.606A2.911,2.911,0,0,1,67.7-.7a5.3,5.3,0,0,1-3.24.921A5.443,5.443,0,0,1,61.015-.8,3.163,3.163,0,0,1,59.7-3.4h1.348a2.337,2.337,0,0,0,.994,1.836,4.063,4.063,0,0,0,2.42.657,3.819,3.819,0,0,0,2.269-.618A1.854,1.854,0,0,0,67.591-3.088ZM76.665.225a5.275,5.275,0,0,1-2.8-.764,5.2,5.2,0,0,1-1.948-2.128,6.635,6.635,0,0,1-.7-3.06V-6.21A7.15,7.15,0,0,1,71.9-9.366a5.406,5.406,0,0,1,1.892-2.207,4.668,4.668,0,0,1,2.628-.8,4.387,4.387,0,0,1,3.51,1.51,6.127,6.127,0,0,1,1.3,4.127v.752h-8.67v.258a5.088,5.088,0,0,0,1.185,3.442A3.769,3.769,0,0,0,76.721-.91a4.379,4.379,0,0,0,1.9-.393,4.222,4.222,0,0,0,1.5-1.258l.842.64A4.9,4.9,0,0,1,76.665.225ZM76.418-11.23a3.36,3.36,0,0,0-2.555,1.112A5.136,5.136,0,0,0,72.6-7.131h7.289v-.146a4.459,4.459,0,0,0-1-2.853A3.1,3.1,0,0,0,76.418-11.23Zm14.7,8.142a1.915,1.915,0,0,0-.8-1.606,6.193,6.193,0,0,0-2.42-.949,10.919,10.919,0,0,1-2.51-.786A3.344,3.344,0,0,1,84.06-7.513a2.7,2.7,0,0,1-.432-1.55,2.891,2.891,0,0,1,1.2-2.375,4.854,4.854,0,0,1,3.077-.938,5,5,0,0,1,3.262,1.005A3.226,3.226,0,0,1,92.4-8.749H91.051a2.176,2.176,0,0,0-.893-1.774,3.513,3.513,0,0,0-2.252-.708,3.514,3.514,0,0,0-2.128.59,1.819,1.819,0,0,0-.8,1.533A1.657,1.657,0,0,0,85.644-7.7a7.068,7.068,0,0,0,2.437.915,11.454,11.454,0,0,1,2.65.887,3.433,3.433,0,0,1,1.308,1.134,2.9,2.9,0,0,1,.427,1.606A2.911,2.911,0,0,1,91.225-.7a5.3,5.3,0,0,1-3.24.921A5.443,5.443,0,0,1,84.543-.8a3.163,3.163,0,0,1-1.32-2.6h1.348a2.337,2.337,0,0,0,.994,1.836,4.063,4.063,0,0,0,2.42.657,3.819,3.819,0,0,0,2.269-.618A1.854,1.854,0,0,0,91.118-3.088Z" transform="translate(1462 4030)" fill="#fff" stroke="rgba(0,0,0,0)" stroke-width="1"/>
    <path id="Path_5743" d="M-48.078-1.943A4.628,4.628,0,0,1-50.329-.348,9.743,9.743,0,0,1-53.76.225,6.372,6.372,0,0,1-57.174-.7,6.129,6.129,0,0,1-59.488-3.3a8.828,8.828,0,0,1-.831-3.863V-9.231A7.9,7.9,0,0,1-58.6-14.605a5.814,5.814,0,0,1,4.616-1.971,6.132,6.132,0,0,1,4.065,1.286,5.307,5.307,0,0,1,1.831,3.543H-49.47a4.241,4.241,0,0,0-1.466-2.732,4.718,4.718,0,0,0-3.038-.929,4.443,4.443,0,0,0-3.627,1.63,7.065,7.065,0,0,0-1.336,4.6v1.933a8.077,8.077,0,0,0,.635,3.3,5.032,5.032,0,0,0,1.819,2.22,4.809,4.809,0,0,0,2.723.787A7.6,7.6,0,0,0-50.694-1.5a3.3,3.3,0,0,0,1.235-.865V-6.592H-53.85V-7.76h5.772Zm2.864-4.312a7.151,7.151,0,0,1,.679-3.156,5.179,5.179,0,0,1,1.92-2.184,5.173,5.173,0,0,1,2.813-.781,5,5,0,0,1,3.931,1.7,6.556,6.556,0,0,1,1.5,4.509v.281a7.213,7.213,0,0,1-.679,3.173A5.073,5.073,0,0,1-36.959-.539a5.25,5.25,0,0,1-2.819.764,5,5,0,0,1-3.925-1.7,6.541,6.541,0,0,1-1.51-4.509Zm1.348.371a5.514,5.514,0,0,0,1.129,3.577,3.62,3.62,0,0,0,2.959,1.4,3.609,3.609,0,0,0,2.948-1.4A5.7,5.7,0,0,0-35.7-6v-.258A6.181,6.181,0,0,0-36.218-8.8,4.151,4.151,0,0,0-37.667-10.6,3.7,3.7,0,0,0-39.8-11.23a3.591,3.591,0,0,0-2.931,1.409,5.7,5.7,0,0,0-1.134,3.689Zm15.891,4.032,3.695-10.3H-22.9L-27.436,0h-1.089l-4.56-12.151H-31.7ZM-16.138.225a5.275,5.275,0,0,1-2.8-.764,5.2,5.2,0,0,1-1.948-2.128,6.635,6.635,0,0,1-.7-3.06V-6.21a7.15,7.15,0,0,1,.679-3.156,5.406,5.406,0,0,1,1.892-2.207,4.668,4.668,0,0,1,2.628-.8,4.387,4.387,0,0,1,3.51,1.51,6.127,6.127,0,0,1,1.3,4.127v.752h-8.67v.258a5.088,5.088,0,0,0,1.185,3.442A3.769,3.769,0,0,0-16.082-.91a4.379,4.379,0,0,0,1.9-.393,4.222,4.222,0,0,0,1.5-1.258l.842.64A4.9,4.9,0,0,1-16.138.225Zm-.247-11.455a3.36,3.36,0,0,0-2.555,1.112A5.136,5.136,0,0,0-20.2-7.131h7.289v-.146a4.459,4.459,0,0,0-1-2.853A3.1,3.1,0,0,0-16.385-11.23Zm13.039.225a5.02,5.02,0,0,0-.91-.079,3.282,3.282,0,0,0-2.128.7A3.844,3.844,0,0,0-7.625-8.344V0H-8.962V-12.151h1.314l.022,1.932A3.574,3.574,0,0,1-4.2-12.376a2.21,2.21,0,0,1,.887.146Zm3.4-1.146L.1-10.074a4.825,4.825,0,0,1,1.707-1.713,4.436,4.436,0,0,1,2.257-.59,3.645,3.645,0,0,1,2.909,1.1,4.964,4.964,0,0,1,.966,3.3V0H6.6V-7.985a3.712,3.712,0,0,0-.691-2.426,2.706,2.706,0,0,0-2.173-.8,3.4,3.4,0,0,0-2.207.781A4.572,4.572,0,0,0,.112-8.322V0H-1.224V-12.151Zm12.578,0,.045,1.977a4.5,4.5,0,0,1,1.685-1.651,4.62,4.62,0,0,1,2.246-.55q2.875,0,3.65,2.358A4.562,4.562,0,0,1,22-11.764a4.822,4.822,0,0,1,2.4-.612q3.908,0,3.987,4.268V0H27.043V-8.007a3.622,3.622,0,0,0-.7-2.415,2.857,2.857,0,0,0-2.252-.786,3.579,3.579,0,0,0-2.448.938,3.314,3.314,0,0,0-1.112,2.229V0H19.182V-8.108a3.329,3.329,0,0,0-.736-2.33,2.927,2.927,0,0,0-2.229-.769,3.39,3.39,0,0,0-2.179.724A4.248,4.248,0,0,0,12.69-8.333V0H11.343V-12.151ZM36.5.225a5.275,5.275,0,0,1-2.8-.764,5.2,5.2,0,0,1-1.948-2.128,6.635,6.635,0,0,1-.7-3.06V-6.21a7.15,7.15,0,0,1,.679-3.156,5.406,5.406,0,0,1,1.892-2.207,4.668,4.668,0,0,1,2.628-.8,4.387,4.387,0,0,1,3.51,1.51,6.127,6.127,0,0,1,1.3,4.127v.752h-8.67v.258a5.088,5.088,0,0,0,1.185,3.442A3.769,3.769,0,0,0,36.555-.91a4.379,4.379,0,0,0,1.9-.393,4.222,4.222,0,0,0,1.5-1.258l.842.64A4.9,4.9,0,0,1,36.5.225ZM36.252-11.23A3.36,3.36,0,0,0,33.7-10.119a5.136,5.136,0,0,0-1.263,2.987h7.289v-.146a4.459,4.459,0,0,0-1-2.853A3.1,3.1,0,0,0,36.252-11.23Zm8.7-.921L45-10.074a4.825,4.825,0,0,1,1.707-1.713,4.436,4.436,0,0,1,2.257-.59,3.645,3.645,0,0,1,2.909,1.1,4.964,4.964,0,0,1,.966,3.3V0H51.5V-7.985a3.712,3.712,0,0,0-.691-2.426,2.706,2.706,0,0,0-2.173-.8,3.4,3.4,0,0,0-2.207.781,4.572,4.572,0,0,0-1.421,2.106V0H43.675V-12.151ZM58.4-15.262v3.111h2.516v1.1H58.4v8.106a2.538,2.538,0,0,0,.365,1.507,1.415,1.415,0,0,0,1.219.495,8.361,8.361,0,0,0,1.089-.112L61.127.035A4.393,4.393,0,0,1,59.69.225a2.4,2.4,0,0,1-2.01-.8,3.78,3.78,0,0,1-.629-2.364v-8.108H54.816v-1.1h2.235v-3.111Z" transform="translate(1462 3897)" fill="#fff" stroke="rgba(0,0,0,0)" stroke-width="1"/>
    <path id="Path_5744" d="M-103.876,0h-1.381l-9.4-13.993V0h-1.393V-16.352h1.393l9.411,14v-14h1.37Zm8.546.225a5.275,5.275,0,0,1-2.8-.764,5.2,5.2,0,0,1-1.948-2.128,6.635,6.635,0,0,1-.7-3.06V-6.21a7.15,7.15,0,0,1,.679-3.156A5.406,5.406,0,0,1-98.2-11.573a4.668,4.668,0,0,1,2.628-.8,4.387,4.387,0,0,1,3.51,1.51,6.127,6.127,0,0,1,1.3,4.127v.752h-8.67v.258a5.088,5.088,0,0,0,1.185,3.442A3.769,3.769,0,0,0-95.274-.91a4.379,4.379,0,0,0,1.9-.393,4.222,4.222,0,0,0,1.5-1.258l.842.64A4.9,4.9,0,0,1-95.33.225Zm-.247-11.455a3.36,3.36,0,0,0-2.555,1.112A5.136,5.136,0,0,0-99.4-7.131h7.289v-.146a4.459,4.459,0,0,0-1-2.853A3.1,3.1,0,0,0-95.577-11.23Zm11.242,4.009,3.279-4.93h1.595l-4.122,5.963L-79.281,0h-1.583l-3.459-5.144L-87.783,0h-1.583l4.29-6.188L-89.2-12.151h1.583Zm9.456-8.041v3.111h2.516v1.1h-2.516v8.106a2.538,2.538,0,0,0,.365,1.507A1.415,1.415,0,0,0-73.3-.943a8.361,8.361,0,0,0,1.089-.112L-72.15.035a4.393,4.393,0,0,1-1.437.189,2.4,2.4,0,0,1-2.01-.8,3.78,3.78,0,0,1-.629-2.364v-8.108h-2.235v-1.1h2.235v-3.111ZM-65.4-6.648H-70.78V-7.783H-65.4Zm1.864.46a7.315,7.315,0,0,1,1.263-4.52,4.076,4.076,0,0,1,3.431-1.668A4.226,4.226,0,0,1-55.069-10.4L-55-12.151h1.258v11.9A5.146,5.146,0,0,1-55.057,3.47a4.7,4.7,0,0,1-3.56,1.37,5.407,5.407,0,0,1-2.42-.567,4.7,4.7,0,0,1-1.814-1.51l.752-.809a4.258,4.258,0,0,0,3.392,1.752,3.449,3.449,0,0,0,2.628-.994A3.96,3.96,0,0,0-55.1-.045V-1.572a4.343,4.343,0,0,1-3.762,1.8A4.052,4.052,0,0,1-62.256-1.46a7.34,7.34,0,0,1-1.28-4.548Zm1.359.236a6.337,6.337,0,0,0,.932,3.667A3.015,3.015,0,0,0-58.617-.943,3.591,3.591,0,0,0-55.1-3.167V-8.816a3.833,3.833,0,0,0-1.359-1.78,3.665,3.665,0,0,0-2.134-.612,3.051,3.051,0,0,0-2.639,1.331A6.772,6.772,0,0,0-62.177-5.952ZM-45.534.225a5.275,5.275,0,0,1-2.8-.764,5.2,5.2,0,0,1-1.948-2.128,6.635,6.635,0,0,1-.7-3.06V-6.21A7.151,7.151,0,0,1-50.3-9.366a5.406,5.406,0,0,1,1.892-2.207,4.668,4.668,0,0,1,2.628-.8,4.387,4.387,0,0,1,3.51,1.51,6.127,6.127,0,0,1,1.3,4.127v.752h-8.67v.258a5.088,5.088,0,0,0,1.185,3.442A3.769,3.769,0,0,0-45.478-.91a4.379,4.379,0,0,0,1.9-.393,4.222,4.222,0,0,0,1.5-1.258l.842.64A4.9,4.9,0,0,1-45.534.225Zm-.247-11.455a3.36,3.36,0,0,0-2.555,1.112A5.136,5.136,0,0,0-49.6-7.131h7.289v-.146a4.459,4.459,0,0,0-1-2.853A3.1,3.1,0,0,0-45.781-11.23Zm8.7-.921.045,2.078a4.825,4.825,0,0,1,1.707-1.713,4.436,4.436,0,0,1,2.257-.59,3.645,3.645,0,0,1,2.909,1.1,4.964,4.964,0,0,1,.966,3.3V0H-30.53V-7.985a3.712,3.712,0,0,0-.691-2.426,2.706,2.706,0,0,0-2.173-.8,3.4,3.4,0,0,0-2.207.781,4.572,4.572,0,0,0-1.421,2.106V0h-1.336V-12.151ZM-15.425.225a5.275,5.275,0,0,1-2.8-.764,5.2,5.2,0,0,1-1.948-2.128,6.635,6.635,0,0,1-.7-3.06V-6.21a7.15,7.15,0,0,1,.679-3.156A5.406,5.406,0,0,1-18.3-11.573a4.668,4.668,0,0,1,2.628-.8,4.387,4.387,0,0,1,3.51,1.51,6.127,6.127,0,0,1,1.3,4.127v.752h-8.67v.258a5.088,5.088,0,0,0,1.185,3.442A3.769,3.769,0,0,0-15.369-.91a4.379,4.379,0,0,0,1.9-.393,4.222,4.222,0,0,0,1.5-1.258l.842.64A4.9,4.9,0,0,1-15.425.225Zm-.247-11.455a3.36,3.36,0,0,0-2.555,1.112A5.136,5.136,0,0,0-19.49-7.131H-12.2v-.146a4.459,4.459,0,0,0-1-2.853A3.1,3.1,0,0,0-15.672-11.23Zm8.7-.921.045,2.078a4.825,4.825,0,0,1,1.707-1.713,4.436,4.436,0,0,1,2.257-.59,3.645,3.645,0,0,1,2.909,1.1,4.964,4.964,0,0,1,.966,3.3V0H-.421V-7.985a3.712,3.712,0,0,0-.691-2.426,2.706,2.706,0,0,0-2.173-.8,3.4,3.4,0,0,0-2.207.781A4.572,4.572,0,0,0-6.912-8.322V0H-8.249V-12.151ZM6.474-15.262v3.111H8.99v1.1H6.474v8.106a2.538,2.538,0,0,0,.365,1.507,1.415,1.415,0,0,0,1.219.495,8.361,8.361,0,0,0,1.089-.112L9.2.035A4.393,4.393,0,0,1,7.766.225a2.4,2.4,0,0,1-2.01-.8,3.78,3.78,0,0,1-.629-2.364v-8.108H2.892v-1.1H5.127v-3.111ZM17.39-11.006a5.02,5.02,0,0,0-.91-.079,3.282,3.282,0,0,0-2.128.7,3.844,3.844,0,0,0-1.241,2.038V0H11.775V-12.151h1.314l.022,1.932a3.574,3.574,0,0,1,3.425-2.156,2.21,2.21,0,0,1,.887.146ZM24.005.225a5.275,5.275,0,0,1-2.8-.764,5.2,5.2,0,0,1-1.948-2.128,6.635,6.635,0,0,1-.7-3.06V-6.21a7.15,7.15,0,0,1,.679-3.156,5.406,5.406,0,0,1,1.892-2.207,4.668,4.668,0,0,1,2.628-.8,4.387,4.387,0,0,1,3.51,1.51,6.127,6.127,0,0,1,1.3,4.127v.752h-8.67v.258A5.088,5.088,0,0,0,21.08-2.285,3.769,3.769,0,0,0,24.061-.91a4.379,4.379,0,0,0,1.9-.393,4.222,4.222,0,0,0,1.5-1.258l.842.64A4.9,4.9,0,0,1,24.005.225ZM23.758-11.23A3.36,3.36,0,0,0,21.2-10.119,5.136,5.136,0,0,0,19.94-7.131h7.289v-.146a4.459,4.459,0,0,0-1-2.853A3.1,3.1,0,0,0,23.758-11.23ZM40.952-5.952a7.318,7.318,0,0,1-1.258,4.509A4.006,4.006,0,0,1,36.325.225a4.5,4.5,0,0,1-3.818-1.752v6.2H31.17V-12.151h1.247l.067,1.718a4.312,4.312,0,0,1,3.807-1.943,4.042,4.042,0,0,1,3.42,1.651,7.48,7.48,0,0,1,1.241,4.582ZM39.6-6.188A6.25,6.25,0,0,0,38.65-9.86a3.078,3.078,0,0,0-2.662-1.348,3.72,3.72,0,0,0-2.123.6,3.744,3.744,0,0,0-1.359,1.729v5.829A3.568,3.568,0,0,0,33.888-1.46a3.983,3.983,0,0,0,2.123.55,3.049,3.049,0,0,0,2.645-1.353A6.8,6.8,0,0,0,39.6-6.188Zm9.939-4.818a5.02,5.02,0,0,0-.91-.079,3.282,3.282,0,0,0-2.128.7,3.844,3.844,0,0,0-1.241,2.038V0H43.928V-12.151h1.314l.022,1.932a3.574,3.574,0,0,1,3.425-2.156,2.21,2.21,0,0,1,.887.146ZM56.158.225a5.275,5.275,0,0,1-2.8-.764,5.2,5.2,0,0,1-1.948-2.128,6.635,6.635,0,0,1-.7-3.06V-6.21a7.151,7.151,0,0,1,.679-3.156,5.406,5.406,0,0,1,1.892-2.207,4.668,4.668,0,0,1,2.628-.8,4.387,4.387,0,0,1,3.51,1.51,6.127,6.127,0,0,1,1.3,4.127v.752h-8.67v.258a5.088,5.088,0,0,0,1.185,3.442A3.769,3.769,0,0,0,56.214-.91a4.379,4.379,0,0,0,1.9-.393,4.222,4.222,0,0,0,1.5-1.258l.842.64A4.9,4.9,0,0,1,56.158.225ZM55.911-11.23a3.36,3.36,0,0,0-2.555,1.112,5.136,5.136,0,0,0-1.263,2.987h7.289v-.146a4.459,4.459,0,0,0-1-2.853A3.1,3.1,0,0,0,55.911-11.23Zm8.7-.921.045,2.078a4.825,4.825,0,0,1,1.707-1.713,4.436,4.436,0,0,1,2.257-.59,3.645,3.645,0,0,1,2.909,1.1,4.964,4.964,0,0,1,.966,3.3V0H71.162V-7.985a3.712,3.712,0,0,0-.691-2.426,2.706,2.706,0,0,0-2.173-.8,3.4,3.4,0,0,0-2.207.781,4.572,4.572,0,0,0-1.421,2.106V0H63.334V-12.151ZM80.674.225a5.275,5.275,0,0,1-2.8-.764,5.2,5.2,0,0,1-1.948-2.128,6.635,6.635,0,0,1-.7-3.06V-6.21a7.15,7.15,0,0,1,.679-3.156A5.406,5.406,0,0,1,77.8-11.573a4.668,4.668,0,0,1,2.628-.8,4.387,4.387,0,0,1,3.51,1.51,6.127,6.127,0,0,1,1.3,4.127v.752h-8.67v.258a5.088,5.088,0,0,0,1.185,3.442A3.769,3.769,0,0,0,80.73-.91a4.379,4.379,0,0,0,1.9-.393,4.222,4.222,0,0,0,1.5-1.258l.842.64A4.9,4.9,0,0,1,80.674.225ZM80.427-11.23a3.36,3.36,0,0,0-2.555,1.112,5.136,5.136,0,0,0-1.263,2.987H83.9v-.146a4.459,4.459,0,0,0-1-2.853A3.1,3.1,0,0,0,80.427-11.23Zm15.24,9.692A4.368,4.368,0,0,1,91.792.225,3.759,3.759,0,0,1,88.839-.9a4.943,4.943,0,0,1-1.033-3.341v-7.906h1.336v7.738q0,3.47,2.808,3.47,2.92,0,3.695-2.415v-8.793h1.348V0h-1.3ZM106.1-11.006a5.02,5.02,0,0,0-.91-.079,3.282,3.282,0,0,0-2.128.7,3.844,3.844,0,0,0-1.241,2.038V0h-1.336V-12.151H101.8l.022,1.932a3.574,3.574,0,0,1,3.425-2.156,2.21,2.21,0,0,1,.887.146Zm9.4,7.917a1.915,1.915,0,0,0-.8-1.606,6.193,6.193,0,0,0-2.42-.949,10.919,10.919,0,0,1-2.51-.786,3.344,3.344,0,0,1-1.325-1.084,2.7,2.7,0,0,1-.432-1.55,2.891,2.891,0,0,1,1.2-2.375,4.854,4.854,0,0,1,3.077-.938,5,5,0,0,1,3.262,1.005,3.226,3.226,0,0,1,1.23,2.622h-1.348a2.176,2.176,0,0,0-.893-1.774,3.513,3.513,0,0,0-2.252-.708,3.514,3.514,0,0,0-2.128.59,1.819,1.819,0,0,0-.8,1.533,1.657,1.657,0,0,0,.668,1.409,7.068,7.068,0,0,0,2.437.915,11.454,11.454,0,0,1,2.65.887,3.433,3.433,0,0,1,1.308,1.134,2.9,2.9,0,0,1,.427,1.606A2.911,2.911,0,0,1,115.606-.7a5.3,5.3,0,0,1-3.24.921A5.443,5.443,0,0,1,108.924-.8a3.163,3.163,0,0,1-1.32-2.6h1.348a2.337,2.337,0,0,0,.994,1.836,4.063,4.063,0,0,0,2.42.657,3.819,3.819,0,0,0,2.269-.618A1.854,1.854,0,0,0,115.5-3.088Z" transform="translate(1462 4164)" fill="#fff" stroke="rgba(0,0,0,0)" stroke-width="1"/>
    <g id="Group_722" transform="translate(1305.994 3457.988)">
      <path id="Path_5702" d="M181.477,241.1l-.963-3.6L183.708,234l-3.459-5.986-4.631,1.015-2.633-2.633L174,221.763l-5.986-3.459L164.5,221.5l-3.6-.963L159.462,216H152.55l-1.447,4.535-3.6.963L144,218.3l-5.986,3.459,1.015,4.631-2.633,2.633-4.631-1.015L128.3,234l3.194,3.509-.963,3.6L126,242.55v6.912l4.535,1.447.963,3.6-3.194,3.509L131.764,264l4.631-1.015.9.9,1.414-1.415-1.675-1.674-4.271.936-2-3.455,2.945-3.235-1.528-5.707L128,248v-3.989l4.185-1.335,1.529-5.707-2.946-3.235,2-3.455,4.271.936,4.181-4.181-.936-4.271,3.455-2,3.235,2.945,5.708-1.528L154.012,218H158l1.335,4.185,5.707,1.529,3.235-2.946,3.455,2-.936,4.271,4.181,4.181,4.271-.936,2,3.455-2.945,3.235,1.528,5.707,4.185,1.335V248l-4.185,1.335-1.529,5.707,2.946,3.235-2,3.455-4.271-.936-1.506,1.505,1.415,1.414.732-.732L180.249,264l3.459-5.986-3.194-3.509.963-3.6,4.535-1.448V242.55Zm0,0" fill="#e8e8e8"/>
      <path id="Path_5703" d="M172.009,304.608a21,21,0,1,0-32.007,0v14.4H126v2h60.012v-2h-14Zm-24,14.4h-2v-3h2Zm4,0h-2v-5h-6v5h-2V292h10Zm0-29.006h-3V287.59l-2.293-2.294a3,3,0,1,0-1.415,1.415L147,288.418V290h-7v11.25a19,19,0,1,1,32.007,0V286h-8v-1.586l.708-.707a3,3,0,1,0-1.415-1.415l-1.293,1.294V286h-2V279.83a3,3,0,1,0-2,0V286h-2v-3.415l-3.049-3.05a3,3,0,1,0-1.048,1.781l2.1,2.1V286h-2Zm-7-6a1,1,0,1,1-1-1,1,1,0,0,1,1,1Zm20-3a1,1,0,1,1,1,1,1,1,0,0,1-1-1Zm-6-3a1,1,0,1,1,1-1,1,1,0,0,1-1,1Zm-8,1a1,1,0,1,1-1-1,1,1,0,0,1,1,1Zm13,40.008h-4v-3h4Zm6,0h-4v-5h-8v5h-4V288h16Zm0,0" transform="translate(0 -44.998)" fill="#e8e8e8"/>
      <rect id="Rectangle_105" width="2.151" height="2.151" transform="translate(156.113 244.679)" fill="#e8e8e8"/>
      <rect id="Rectangle_106" width="2.151" height="2.151" transform="translate(161.131 244.679)" fill="#e8e8e8"/>
      <rect id="Rectangle_107" width="2.151" height="2.151" transform="translate(166.15 244.679)" fill="#e8e8e8"/>
      <rect id="Rectangle_108" width="2.151" height="2.151" transform="translate(156.113 248.981)" fill="#e8e8e8"/>
      <rect id="Rectangle_109" width="2.151" height="2.151" transform="translate(161.131 248.981)" fill="#e8e8e8"/>
      <rect id="Rectangle_110" width="2.151" height="2.151" transform="translate(166.15 248.981)" fill="#e8e8e8"/>
      <rect id="Rectangle_111" width="2.151" height="1.434" transform="translate(156.113 253.282)" fill="#e8e8e8"/>
      <rect id="Rectangle_112" width="2.151" height="1.434" transform="translate(161.131 253.282)" fill="#e8e8e8"/>
      <rect id="Rectangle_113" width="2.151" height="1.434" transform="translate(166.15 253.282)" fill="#e8e8e8"/>
      <rect id="Rectangle_114" width="2.151" height="2.151" transform="translate(156.113 256.867)" fill="#e8e8e8"/>
      <rect id="Rectangle_115" width="2.151" height="2.151" transform="translate(161.131 256.867)" fill="#e8e8e8"/>
      <rect id="Rectangle_116" width="2.151" height="2.151" transform="translate(166.15 256.867)" fill="#e8e8e8"/>
      <rect id="Rectangle_117" width="2.151" height="2.151" transform="translate(156.113 261.169)" fill="#e8e8e8"/>
      <rect id="Rectangle_118" width="2.151" height="2.151" transform="translate(161.131 261.169)" fill="#e8e8e8"/>
      <rect id="Rectangle_119" width="2.151" height="2.151" transform="translate(166.15 261.169)" fill="#e8e8e8"/>
      <rect id="Rectangle_120" width="12.188" height="2.151" transform="translate(156.113 264.754)" fill="#e8e8e8"/>
      <rect id="Rectangle_121" width="2.151" height="2.151" transform="translate(143.924 248.981)" fill="#e8e8e8"/>
      <rect id="Rectangle_122" width="2.151" height="2.151" transform="translate(143.924 253.999)" fill="#e8e8e8"/>
      <rect id="Rectangle_123" width="1.434" height="2.151" transform="translate(148.226 253.999)" fill="#e8e8e8"/>
      <rect id="Rectangle_124" width="2.151" height="2.151" transform="translate(143.924 259.018)" fill="#e8e8e8"/>
      <rect id="Rectangle_125" width="1.434" height="2.151" transform="translate(148.226 259.018)" fill="#e8e8e8"/>
      <rect id="Rectangle_126" width="2.151" height="2.151" transform="translate(143.924 264.037)" fill="#e8e8e8"/>
      <rect id="Rectangle_127" width="1.434" height="2.151" transform="translate(148.226 264.037)" fill="#e8e8e8"/>
      <rect id="Rectangle_128" width="1.434" height="2.151" transform="translate(148.226 248.981)" fill="#e8e8e8"/>
    </g>
    <g id="Group_727" transform="translate(1134.257 3417.257)">
      <g id="Group_724" transform="translate(294 384)">
        <g id="Group_723" clip-path="url(#clip-path)">
          <path id="Path_5704" d="M325.131,399.617v18.609m5.169-18.609v18.609m-7.237,3.62v-1.552a2.068,2.068,0,0,1,2.068-2.068H330.3a2.068,2.068,0,0,1,2.068,2.068v1.552M323.063,396v1.549a2.067,2.067,0,0,0,2.068,2.068H330.3a2.067,2.067,0,0,0,2.068-2.068V396m-26.362,3.617v18.609m5.167-18.609v18.609m-7.234,3.62v-1.552a2.067,2.067,0,0,1,2.068-2.068h5.167a2.067,2.067,0,0,1,2.068,2.068v1.552M303.938,396v1.549a2.065,2.065,0,0,0,2.068,2.068h5.167a2.065,2.065,0,0,0,2.068-2.068V396" transform="translate(-276.54 -362.917)" fill="none" stroke="#e8e8e8" stroke-width="2"/>
          <line id="Line_75" x1="62.009" transform="translate(1.045 65.133)" fill="none" stroke="#e8e8e8" stroke-linecap="round" stroke-linejoin="round" stroke-width="2"/>
          <path id="Path_5705" d="M305.625,398.19V384.75H317v6.2h-8.789" transform="translate(-273.576 -382.682)" fill="none" stroke="#e8e8e8" stroke-linejoin="round" stroke-width="2"/>
        </g>
      </g>
      <line id="Line_76" x2="55.828" transform="translate(298.135 444.997)" fill="none" stroke="#e8e8e8" stroke-linecap="round" stroke-linejoin="round" stroke-width="2"/>
      <g id="Group_726" transform="translate(294 384)">
        <g id="Group_725" clip-path="url(#clip-path)">
          <path id="Path_5706" d="M299.068,399.617v18.609m5.169-18.609v18.609M297,421.846v-1.552a2.068,2.068,0,0,1,2.068-2.068h5.169a2.069,2.069,0,0,1,2.068,2.068v1.552M297,396v1.549a2.067,2.067,0,0,0,2.068,2.068h5.169a2.067,2.067,0,0,0,2.068-2.068V396" transform="translate(-288.729 -362.917)" fill="none" stroke="#e8e8e8" stroke-width="2"/>
          <path id="Path_5707" d="M324.073,389.25l28.948,13.44v3.1h-57.9v-3.1Zm0,0,3.1,9.3a3.1,3.1,0,1,1-3.1-3.1,3.1,3.1,0,0,1,3.1,3.1Zm0,0" transform="translate(-292.023 -374.776)" fill="none" stroke="#e8e8e8" stroke-linecap="round" stroke-linejoin="round" stroke-width="2"/>
        </g>
      </g>
    </g>
    <g id="organization_1_" transform="translate(1429.5 3937.724)">
      <path id="Path_5708" d="M11,33V43h2V34H23v7h2V23H39V41h2V34H51v9h2V33a1,1,0,0,0-1-1H41V22a1,1,0,0,0-1-1H24a1,1,0,0,0-1,1V32H12A1,1,0,0,0,11,33Z" fill="#e8e8e8"/>
      <path id="Path_5709" d="M55.2,51.2a3.5,3.5,0,1,0-4.4,0,4,4,0,0,0-1.66,1,5,5,0,0,0-2.78-2,4,4,0,1,0-4.72,0,5.09,5.09,0,0,0-1.9,1,6,6,0,0,0-4.86-4.17,5,5,0,1,0-5.76,0,6,6,0,0,0-4.86,4.17,5.09,5.09,0,0,0-1.9-1,4,4,0,1,0-4.72,0,5,5,0,0,0-2.78,2,4,4,0,0,0-1.66-1,3.5,3.5,0,1,0-4.4,0A4,4,0,0,0,6,55v5a1,1,0,0,0,1,1h7a1,1,0,0,0,1,1h9a1,1,0,0,0,1,1H39a1,1,0,0,0,1-1h9a1,1,0,0,0,1-1h7a1,1,0,0,0,1-1V55a4,4,0,0,0-2.8-3.8ZM11,47a1.5,1.5,0,1,1-1.5,1.5A1.5,1.5,0,0,1,11,47Zm3,12H8V55a2,2,0,0,1,2-2h2a2,2,0,0,1,2,2Zm6-14a2,2,0,1,1-2,2A2,2,0,0,1,20,45Zm4,15H16V55a3,3,0,0,1,3-3h2a3,3,0,0,1,3,3Zm5-17a3,3,0,1,1,3,3A3,3,0,0,1,29,43Zm9,18H26V53a4,4,0,0,1,4-4h4a4,4,0,0,1,4,4Zm6-16a2,2,0,1,1-2,2A2,2,0,0,1,44,45Zm4,15H40V55a3,3,0,0,1,3-3h2a3,3,0,0,1,3,3Zm5-13a1.5,1.5,0,1,1-1.5,1.5A1.5,1.5,0,0,1,53,47Zm3,12H50V55a2,2,0,0,1,2-2h2a2,2,0,0,1,2,2Z" fill="#e8e8e8"/>
      <path id="Path_5710" d="M27.5,26h3v3h-3Z" fill="#e8e8e8"/>
      <path id="Path_5711" d="M33.5,26h3v3h-3Z" fill="#e8e8e8"/>
      <path id="Path_5712" d="M27.5,32h3v3h-3Z" fill="#e8e8e8"/>
      <path id="Path_5713" d="M33.5,32h3v3h-3Z" fill="#e8e8e8"/>
      <path id="Path_5714" d="M43,37h2v2H43Z" fill="#e8e8e8"/>
      <path id="Path_5715" d="M47,37h2v2H47Z" fill="#e8e8e8"/>
      <path id="Path_5716" d="M15,37h2v2H15Z" fill="#e8e8e8"/>
      <path id="Path_5717" d="M19,37h2v2H19Z" fill="#e8e8e8"/>
      <path id="Path_5718" d="M32,12A18,18,0,0,1,50,30h2a20,20,0,1,0-40,0h2A18,18,0,0,1,32,12Z" fill="#e8e8e8"/>
      <path id="Path_5719" d="M60.44,23.7l-1.72-5.31a1.92,1.92,0,0,0-.94-1.13,2,2,0,0,0-1.5-.12l-2.12.73a22.13,22.13,0,0,0-3.78-5.11l1.36-1.88a2,2,0,0,0-.43-2.7L46.78,4.89a1.94,1.94,0,0,0-2.7.43L42.8,7.16a22.79,22.79,0,0,0-6.07-1.92V2.93A1.94,1.94,0,0,0,34.8,1H29.2a1.94,1.94,0,0,0-1.93,1.93V5.17a22.78,22.78,0,0,0-6,2L19.92,5.33a1.93,1.93,0,0,0-2.7-.44l-4.53,3.3a2,2,0,0,0-.43,2.7l1.35,1.78a22.46,22.46,0,0,0-3.69,5.18l-2.2-.71a2,2,0,0,0-1.5.12,1.89,1.89,0,0,0-.93,1.11L3.56,23.7a1.93,1.93,0,0,0,1.23,2.44l2.15.65A25,25,0,0,0,6.73,30,17.32,17.32,0,0,0,7,33.15l-2.2.71A1.93,1.93,0,0,0,3.56,36.3l1.73,5.33L7.19,41,5.41,35.76l2.2-.71A1.93,1.93,0,0,0,8.92,33a23,23,0,0,1,0-5.9A1.93,1.93,0,0,0,7.61,25l-2.15-.63,1.71-5.26,2.13.69a1.94,1.94,0,0,0,2.3-.92A22.79,22.79,0,0,1,15.07,14a1.94,1.94,0,0,0,.17-2.46L13.87,9.8,18.3,6.5l1.36,1.87a1.93,1.93,0,0,0,2.4.59,23.84,23.84,0,0,1,5.62-1.83,1.92,1.92,0,0,0,1.59-1.89L29.2,3l5.53-.07V5.24a1.92,1.92,0,0,0,1.58,1.89A23.55,23.55,0,0,1,41.93,9a1.94,1.94,0,0,0,2.41-.59l1.26-1.9,4.52,3.2-1.36,1.87a2,2,0,0,0,.17,2.47,22.47,22.47,0,0,1,3.47,4.78,1.94,1.94,0,0,0,2.3.92l2.13-.69,1.76,5.18-2.2.71a1.93,1.93,0,0,0-1.31,2.1,23,23,0,0,1,0,5.9,1.93,1.93,0,0,0,1.31,2.1l2.15.63L56.81,41l1.9.62,1.73-5.33a1.93,1.93,0,0,0-1.23-2.44l-2.15-.65a25,25,0,0,0,.21-3.2A17.32,17.32,0,0,0,57,26.85l2.2-.71a1.93,1.93,0,0,0,1.24-2.44Z" fill="#e8e8e8"/>
    </g>
    <g id="machine-learning" transform="translate(1425.883 4064.324)">
      <path id="Path_5720" d="M62.043,40.07a2.7,2.7,0,0,1,1.713-2.5l4.066-1.583a.774.774,0,0,0,.455-.466.8.8,0,0,0-.043-.651l-4.316-7.948a22.423,22.423,0,0,0,.358-4.164A22.093,22.093,0,0,0,44.064,1.065,21.8,21.8,0,0,0,27.82,6.476h-10.7a.811.811,0,0,0-.672.369L10,16.908H4.344a.792.792,0,1,0,0,1.583h6.1a.811.811,0,0,0,.672-.369L17.562,8.059H37.027L42.2,10.315a3.15,3.15,0,1,0,.835-1.366L37.515,6.541a.778.778,0,0,0-.314-.065H30.4A20.176,20.176,0,0,1,43.934,2.648,20.5,20.5,0,0,1,62.683,22.774a21.037,21.037,0,0,1-.39,4.186.761.761,0,0,0,.206.672l3.915,7.189L63.182,36.08a4.263,4.263,0,0,0-2.733,3.99V47.1a1.185,1.185,0,0,1-1.182,1.182H52.1a.8.8,0,0,0-.792.792v6.593H32.44V41.274a.784.784,0,0,0-.4-.683,18.918,18.918,0,0,1-3.709-2.776l-.022-.022a7.74,7.74,0,0,1-.586-.6H33.8l5.292,7.927a.808.808,0,0,0,.661.358h4.045a3.156,3.156,0,1,0,0-1.6H40.171L35.7,37.186h6.712a3.156,3.156,0,1,0,0-1.6H17.107l-6.994-9.944a.812.812,0,0,0-.651-.336H4.344a.792.792,0,0,0,0,1.583H9.05l6.994,9.944a.812.812,0,0,0,.651.336h8.924a17.352,17.352,0,0,0,1.627,1.778,21.054,21.054,0,0,0,3.6,2.743V55.642a3.1,3.1,0,0,0-3,3.156,3.055,3.055,0,0,0,.4,1.5H19.037l.163-.943a9.3,9.3,0,0,0,1.659-.7l1.28.922a.808.808,0,0,0,1.041-.087L25.4,57.16a.8.8,0,0,0,.087-1L24.578,54.8a9.482,9.482,0,0,0,.7-1.778l1.54-.282a.791.791,0,0,0,.651-.781V48.68a.791.791,0,0,0-.651-.781l-1.529-.282a9.95,9.95,0,0,0-.7-1.778l.911-1.366a.8.8,0,0,0-.087-1L23.19,41.154a.807.807,0,0,0-1.041-.1l-1.28.922a8.035,8.035,0,0,0-1.659-.7l-.282-1.637a.8.8,0,0,0-.781-.661H15.014a.792.792,0,0,0-.781.661l-.282,1.637a8.424,8.424,0,0,0-1.67.716L11,41.068a.8.8,0,0,0-1.041.1L7.749,43.486a.787.787,0,0,0-.087.987l.911,1.366a9.244,9.244,0,0,0-.716,1.778L6.339,47.9a.791.791,0,0,0-.651.781v3.275a.791.791,0,0,0,.651.781l1.529.282a9.2,9.2,0,0,0,.7,1.778l-.911,1.366a.785.785,0,0,0,.087.987l2.212,2.321a.8.8,0,0,0,1.041.1l1.28-.922a9.114,9.114,0,0,0,1.67.716l.163.943H2.772a.792.792,0,1,0,0,1.583H55.743a1.323,1.323,0,0,1,0,2.646H17.606c-.022,0-.033.011-.043.011a.634.634,0,0,0-.206.043c-.022.011-.054.011-.076.033a.836.836,0,0,0-.228.152.814.814,0,0,0-.239.564.8.8,0,0,0,.792.792H55.754a2.917,2.917,0,0,0,0-5.834h-.26a3.055,3.055,0,0,0,.4-1.5V58.71a3.081,3.081,0,0,0-3-3.069V49.829h6.387a2.781,2.781,0,0,0,2.776-2.776V40.07ZM45.2,9.675a1.561,1.561,0,1,1-1.561,1.561A1.569,1.569,0,0,1,45.2,9.675Zm1.627,33.453a1.561,1.561,0,1,1-1.561,1.561A1.569,1.569,0,0,1,46.829,43.128Zm-1.377-8.285A1.561,1.561,0,1,1,43.891,36.4,1.569,1.569,0,0,1,45.452,34.843ZM12.661,57.062a.8.8,0,0,0-.9.022l-1.139.824-1.29-1.355.824-1.236a.794.794,0,0,0,.022-.846,7.732,7.732,0,0,1-.9-2.266.787.787,0,0,0-.629-.618l-1.377-.249V49.385l1.377-.249a.774.774,0,0,0,.629-.607,7.767,7.767,0,0,1,.911-2.277.794.794,0,0,0-.022-.846l-.835-1.247,1.29-1.355,1.139.824a.782.782,0,0,0,.9.022,7,7,0,0,1,2.169-.922.8.8,0,0,0,.6-.64l.249-1.475h1.789l.249,1.475a.789.789,0,0,0,.6.64,7.055,7.055,0,0,1,2.158.922.822.822,0,0,0,.9-.022l1.139-.824,1.3,1.355-.824,1.236a.8.8,0,0,0-.022.835,7.921,7.921,0,0,1,.9,2.288.774.774,0,0,0,.629.607l1.377.249v1.952l-1.388.26a.787.787,0,0,0-.629.618,7.694,7.694,0,0,1-.889,2.277.8.8,0,0,0,.022.835l.824,1.236-1.3,1.355-1.139-.824a.782.782,0,0,0-.9-.022,7.055,7.055,0,0,1-2.158.922.8.8,0,0,0-.6.64L17.465,60.1h-1.8l-.249-1.475a.789.789,0,0,0-.6-.64,7.055,7.055,0,0,1-2.158-.922Zm41.651,1.692v.087a1.5,1.5,0,0,1-1.507,1.5H30.933a1.522,1.522,0,0,1-1.507-1.583,1.5,1.5,0,0,1,1.507-1.5H52.8a1.509,1.509,0,0,1,1.507,1.5Z" fill="#fff"/>
      <path id="Path_5721" d="M55.181,22.5a.792.792,0,0,0,1.583,0A18.317,18.317,0,0,0,47.753,6.779a.792.792,0,0,0-.8,1.366A16.747,16.747,0,0,1,55.181,22.5Z" transform="translate(3.761 0.478)" fill="#fff"/>
      <path id="Path_5722" d="M41.39,4.59a.793.793,0,0,0-.206,1.572c.336.043.672.1,1,.163a.716.716,0,0,0,.152.011.793.793,0,0,0,.152-1.572c-.369-.065-.727-.119-1.1-.173Z" transform="translate(3.249 0.303)" fill="#fff"/>
      <path id="Path_5723" d="M46.485,6.958a.808.808,0,0,0-.412-1.052c-.336-.152-.683-.282-1.03-.412a.793.793,0,1,0-.553,1.486c.314.119.629.249.943.38a.859.859,0,0,0,.314.065.781.781,0,0,0,.737-.466Z" transform="translate(3.543 0.375)" fill="#fff"/>
      <path id="Path_5724" d="M29.668,13.9a3.156,3.156,0,1,0,0-1.6H19.008a.812.812,0,0,0-.651.336l-5.747,8.176a.385.385,0,0,0-.043.1c-.011.033-.033.054-.043.087a.808.808,0,0,0,0,.553.325.325,0,0,0,.043.087c.022.033.022.065.043.1L18.358,29.9a.812.812,0,0,0,.651.336H48.937a3.156,3.156,0,1,0,0-1.6H34.33l4.4-6.582h4.543a3.132,3.132,0,1,0-.076-1.6H38.31a.782.782,0,0,0-.661.358l-5.227,7.818h-13l-4.63-6.582H26.165a3.156,3.156,0,1,0,0-1.6H14.79l4.63-6.582H29.668ZM32.7,11.545a1.561,1.561,0,1,1-1.561,1.561A1.569,1.569,0,0,1,32.7,11.545ZM46.269,19.6a1.561,1.561,0,1,1-1.561,1.561A1.569,1.569,0,0,1,46.269,19.6Zm5.7,8.3a1.561,1.561,0,1,1-1.561,1.561A1.569,1.569,0,0,1,51.973,27.9ZM29.212,19.721a1.561,1.561,0,1,1-1.561,1.561A1.569,1.569,0,0,1,29.212,19.721Z" transform="translate(0.885 0.755)" fill="#fff"/>
      <path id="Path_5725" d="M10.934,21.253a.792.792,0,0,0,0-1.583H7.942a.792.792,0,1,0,0,1.583Z" transform="translate(0.436 1.575)" fill="#fff"/>
      <path id="Path_5726" d="M20.35,46.887A4.646,4.646,0,0,0,15.8,42.17a4.72,4.72,0,0,0,0,9.434A4.646,4.646,0,0,0,20.35,46.887Zm-7.547,0a3.064,3.064,0,0,1,2.982-3.134,3.138,3.138,0,0,1,0,6.268A3.071,3.071,0,0,1,12.8,46.887Z" transform="translate(0.78 3.474)" fill="#fff"/>
      <path id="Path_5727" d="M11.747,42.928a.736.736,0,1,0-1.03-.011A.723.723,0,0,0,11.747,42.928Z" transform="translate(0.719 3.432)" fill="#fff"/>
      <path id="Path_5728" d="M19.216,50.4a.736.736,0,1,0,1.041,0,.733.733,0,0,0-1.041,0Z" transform="translate(1.437 4.15)" fill="#fff"/>
      <path id="Path_5729" d="M9.477,45.93a.727.727,0,1,0,.737.737A.745.745,0,0,0,9.477,45.93Z" transform="translate(0.57 3.791)" fill="#fff"/>
      <path id="Path_5730" d="M21.507,47.383a.727.727,0,0,0,.737-.716.737.737,0,1,0-1.475,0A.727.727,0,0,0,21.507,47.383Z" transform="translate(1.585 3.791)" fill="#fff"/>
      <path id="Path_5731" d="M10.717,50.4a.728.728,0,1,0,1.041,0A.736.736,0,0,0,10.717,50.4Z" transform="translate(0.719 4.15)" fill="#fff"/>
      <path id="Path_5732" d="M20.257,42.917a.728.728,0,1,0-1.03.011.714.714,0,0,0,1.03-.011Z" transform="translate(1.437 3.432)" fill="#fff"/>
      <path id="Path_5733" d="M15.5,51.94a.737.737,0,1,0,0,1.475.738.738,0,0,0,0-1.475Z" transform="translate(1.078 4.298)" fill="#fff"/>
      <path id="Path_5734" d="M15.5,41.375a.738.738,0,0,0,0-1.475.737.737,0,1,0,0,1.475Z" transform="translate(1.078 3.282)" fill="#fff"/>
      <path id="Path_5735" d="M45.625,63.53H22.312a.8.8,0,0,0-.792.792.805.805,0,0,0,.792.8H45.625a.8.8,0,0,0,.792-.792.805.805,0,0,0-.792-.8Z" transform="translate(1.649 5.276)" fill="#fff"/>
      <path id="Path_5736" d="M63.846,55.72H57.492a.792.792,0,0,0,0,1.583h6.354a.792.792,0,0,0,0-1.583Z" transform="translate(4.617 4.617)" fill="#fff"/>
      <path id="Path_5737" d="M12.844,59.685a.761.761,0,0,0-.857.174.777.777,0,0,0-.228.564.824.824,0,0,0,.228.564.777.777,0,0,0,.564.228.824.824,0,0,0,.564-.228.777.777,0,0,0,.228-.564.824.824,0,0,0-.228-.564A1.044,1.044,0,0,0,12.844,59.685Z" transform="translate(0.825 4.946)" fill="#fff"/>
    </g>
  </g>
</svg>
