<svg xmlns="http://www.w3.org/2000/svg" xmlns:xlink="http://www.w3.org/1999/xlink" viewBox="0 0 362 672">
  <defs>
    <linearGradient id="linear-gradient" x1="0.5" x2="0.5" y2="1" gradientUnits="objectBoundingBox">
      <stop offset="0" stop-color="#182146"/>
      <stop offset="1" stop-color="#06382f"/>
    </linearGradient>
    <clipPath id="clip-path">
      <path id="Path_5339" data-name="Path 5339" d="M263.56,382.223l-.028,9.719a15.012,15.012,0,0,0-12.621-.431l.028-9.719A15.011,15.011,0,0,1,263.56,382.223Z" transform="translate(-250.911 -380.61)"/>
    </clipPath>
    <clipPath id="clip-path-2">
      <path id="Path_5345" data-name="Path 5345" d="M299.651,389.712l-.027,9.72a5.529,5.529,0,0,0-1.583-1.712l.026-9.719A5.528,5.528,0,0,1,299.651,389.712Z" transform="translate(-298.04 -388.001)"/>
    </clipPath>
    <clipPath id="clip-path-3">
      <path id="Path_5347" data-name="Path 5347" d="M241.134,386.29l-.027,9.72a5.057,5.057,0,0,0-2.716,3.328l.027-9.72A5.062,5.062,0,0,1,241.134,386.29Z" transform="translate(-238.39 -386.29)"/>
    </clipPath>
    <clipPath id="clip-path-4">
      <path id="Path_5351" data-name="Path 5351" d="M304.836,397.382q-.012,4.86-.027,9.719a3.3,3.3,0,0,0-.185-1.1l.027-9.719A3.309,3.309,0,0,1,304.836,397.382Z" transform="translate(-304.624 -396.285)"/>
    </clipPath>
    <clipPath id="clip-path-5">
      <path id="Path_5353" data-name="Path 5353" d="M184.572,415.257l-.028,9.721a34.693,34.693,0,0,1-7.464-3.142c-5.35-3.088-8.674-7.354-8.7-12.067l.027-9.718c.026,4.713,3.351,8.977,8.7,12.066A34.675,34.675,0,0,0,184.572,415.257Z" transform="translate(-168.379 -400.05)"/>
    </clipPath>
    <clipPath id="clip-path-6">
      <path id="Path_5358" data-name="Path 5358" d="M324.649,400.1l-.03,9.72c.042,7.631-8.56,14.09-20.477,16.28l.028-9.721C316.085,414.187,324.688,407.728,324.649,400.1Z" transform="translate(-304.142 -400.096)"/>
    </clipPath>
    <clipPath id="clip-path-7">
      <path id="Path_5361" data-name="Path 5361" d="M249.233,455.585l-.029,9.72a49.46,49.46,0,0,1-7.936.631,47.909,47.909,0,0,1-12.42-1.595l.029-9.718a47.964,47.964,0,0,0,12.418,1.594A49.5,49.5,0,0,0,249.233,455.585Z" transform="translate(-228.848 -454.622)"/>
    </clipPath>
  </defs>
  <g id="Transformation_roadmap_info_2" data-name="Transformation roadmap info 2" transform="translate(-15875.5 7574)">
    <rect id="Rectangle_92" data-name="Rectangle 92" width="361" height="671" rx="41" transform="translate(15876 -7573.5)" fill="#182146" stroke="#157f70" stroke-width="1"/>
    <rect id="Rectangle_94" data-name="Rectangle 94" width="361" height="423" rx="41" transform="translate(15876 -7325.5)" fill="url(#linear-gradient)"/>
    <path id="Path_5434" data-name="Path 5434" d="M-52.313.4A9.332,9.332,0,0,1-57.075-.838a8.988,8.988,0,0,1-3.362-3.388A9.378,9.378,0,0,1-61.663-8.95a9.378,9.378,0,0,1,1.225-4.725,8.988,8.988,0,0,1,3.362-3.387A9.332,9.332,0,0,1-52.313-18.3a9.332,9.332,0,0,1,4.763,1.238,8.988,8.988,0,0,1,3.363,3.387A9.378,9.378,0,0,1-42.963-8.95a9.378,9.378,0,0,1-1.225,4.725A8.988,8.988,0,0,1-47.55-.838,9.332,9.332,0,0,1-52.313.4Zm0-3.2a6.055,6.055,0,0,0,3.025-.775A5.594,5.594,0,0,0-47.125-5.75a6.414,6.414,0,0,0,.787-3.2,6.414,6.414,0,0,0-.787-3.2,5.594,5.594,0,0,0-2.163-2.175,6.055,6.055,0,0,0-3.025-.775,5.986,5.986,0,0,0-3.013.775,5.619,5.619,0,0,0-2.15,2.175,6.414,6.414,0,0,0-.788,3.2,6.414,6.414,0,0,0,.788,3.2,5.619,5.619,0,0,0,2.15,2.175A5.986,5.986,0,0,0-52.313-2.8Zm16.7,3.2a4.318,4.318,0,0,1-3.5-1.425A5.99,5.99,0,0,1-40.313-5v-7.75h3.275V-5.4a3.054,3.054,0,0,0,.625,2.037,2.056,2.056,0,0,0,1.65.738A2.707,2.707,0,0,0-32.538-3.65a4.015,4.015,0,0,0,.825-2.6v-6.5h3.275V0h-3.075V-1.6h-.2A4.038,4.038,0,0,1-33.325-.138,4.9,4.9,0,0,1-35.613.4Zm16.05,0a5.05,5.05,0,0,1-1.75-.293,3.45,3.45,0,0,1-1.3-.8,4.353,4.353,0,0,1-1.175-3.263V-9.95h-2.225v-2.8h2.225v-3.6h3.275v3.6h3.125v2.8h-3.125v5.424a2.019,2.019,0,0,0,.425,1.439,1.5,1.5,0,0,0,1.2.411A2.137,2.137,0,0,0-18.1-2.8a6.064,6.064,0,0,0,.813-.425v3.2A6.131,6.131,0,0,1-19.563.4Zm10.45,0a6.884,6.884,0,0,1-3.45-.863A6.154,6.154,0,0,1-14.95-2.875a7.075,7.075,0,0,1-.863-3.5,7,7,0,0,1,.863-3.487,6.265,6.265,0,0,1,2.387-2.413,6.807,6.807,0,0,1,3.45-.875,6.98,6.98,0,0,1,3.65.913,5.2,5.2,0,0,1,2.2,2.587l-3,1.25a2.882,2.882,0,0,0-2.85-1.7,3.229,3.229,0,0,0-2.462,1.025,3.784,3.784,0,0,0-.963,2.7,3.819,3.819,0,0,0,.963,2.725A3.229,3.229,0,0,0-9.113-2.625a3.133,3.133,0,0,0,3-1.8l2.975,1.3a6.135,6.135,0,0,1-2.35,2.6A6.856,6.856,0,0,1-9.113.4Zm14.3,0A6.966,6.966,0,0,1,1.662-.488,6.3,6.3,0,0,1-.75-2.913a6.954,6.954,0,0,1-.862-3.463A6.974,6.974,0,0,1-.75-9.825a6.279,6.279,0,0,1,2.413-2.438,6.966,6.966,0,0,1,3.525-.887,6.917,6.917,0,0,1,3.5.887A6.279,6.279,0,0,1,11.1-9.825a6.974,6.974,0,0,1,.863,3.45A6.954,6.954,0,0,1,11.1-2.913,6.3,6.3,0,0,1,8.687-.488,6.917,6.917,0,0,1,5.187.4Zm0-3.025a3.509,3.509,0,0,0,1.75-.45,3.3,3.3,0,0,0,1.275-1.3,4.034,4.034,0,0,0,.475-2A3.981,3.981,0,0,0,8.212-8.35a3.3,3.3,0,0,0-1.275-1.3,3.509,3.509,0,0,0-1.75-.45,3.509,3.509,0,0,0-1.75.45A3.386,3.386,0,0,0,2.15-8.35a3.9,3.9,0,0,0-.488,1.975A3.969,3.969,0,0,0,2.15-4.388,3.364,3.364,0,0,0,3.437-3.075,3.509,3.509,0,0,0,5.187-2.625ZM14.212-12.75h3.075v1.6h.2A4.27,4.27,0,0,1,19.1-12.613a4.749,4.749,0,0,1,2.262-.537,4.277,4.277,0,0,1,2.35.637A3.617,3.617,0,0,1,25.138-10.9a4.793,4.793,0,0,1,1.712-1.625,5.055,5.055,0,0,1,2.563-.625,4.107,4.107,0,0,1,3.312,1.337A5.393,5.393,0,0,1,33.862-8.2V0h-3.25V-7.6a2.743,2.743,0,0,0-.562-1.85,1.957,1.957,0,0,0-1.563-.65A2.423,2.423,0,0,0,26.45-9.088a4.314,4.314,0,0,0-.762,2.663V0H22.412V-7.6a2.665,2.665,0,0,0-.587-1.85,2.126,2.126,0,0,0-1.663-.65,2.288,2.288,0,0,0-1.937,1.012,4.419,4.419,0,0,0-.737,2.663V0H14.212ZM42.963.4a6.758,6.758,0,0,1-3.425-.875A6.265,6.265,0,0,1,37.15-2.888a6.954,6.954,0,0,1-.862-3.463,6.976,6.976,0,0,1,.85-3.387,6.546,6.546,0,0,1,2.35-2.488,6.254,6.254,0,0,1,3.35-.925,6.517,6.517,0,0,1,3.4.85A5.542,5.542,0,0,1,48.4-9.975,7.22,7.22,0,0,1,49.138-6.7a7.776,7.776,0,0,1-.075,1.1H39.487A3.611,3.611,0,0,0,40.7-3.288a3.535,3.535,0,0,0,2.313.788,3.7,3.7,0,0,0,1.938-.488A3.6,3.6,0,0,0,46.238-4.3L48.888-3A6.391,6.391,0,0,1,42.963.4Zm3.025-8.325a2.531,2.531,0,0,0-.437-1.187,3.053,3.053,0,0,0-1.075-.975,3.23,3.23,0,0,0-1.612-.387,3.07,3.07,0,0,0-2.013.688,3.856,3.856,0,0,0-1.213,1.863ZM56.638.4a6.715,6.715,0,0,1-3.763-.95,5.058,5.058,0,0,1-2.013-2.475L53.788-4.3a2.984,2.984,0,0,0,1.138,1.362,3.155,3.155,0,0,0,1.713.463,3.464,3.464,0,0,0,1.5-.288.972.972,0,0,0,.6-.937,1.013,1.013,0,0,0-.55-.938,6.32,6.32,0,0,0-1.65-.562l-1.5-.325a5.486,5.486,0,0,1-2.575-1.362A3.279,3.279,0,0,1,51.438-9.35a3.189,3.189,0,0,1,.662-1.975,4.256,4.256,0,0,1,1.8-1.35,6.458,6.458,0,0,1,2.513-.475q3.95,0,5.275,2.775l-2.8,1.225a2.545,2.545,0,0,0-2.4-1.35,2.529,2.529,0,0,0-1.35.312.914.914,0,0,0-.5.788q0,.9,1.7,1.35l1.875.45a5.977,5.977,0,0,1,2.862,1.45,3.284,3.284,0,0,1,.963,2.4,3.476,3.476,0,0,1-.713,2.163,4.681,4.681,0,0,1-1.95,1.463A6.94,6.94,0,0,1,56.638.4Z" transform="translate(16063 -7512.374)" fill="#fff"/>
    <path id="Path_5433" data-name="Path 5433" d="M-131.323-16.352l6.031,14.431,6.053-14.431h1.842V0h-1.381V-7.12l.112-7.3L-124.754,0h-1.067l-6.064-14.364.112,7.2V0h-1.381V-16.352Zm17.014,10.1a7.15,7.15,0,0,1,.679-3.156,5.179,5.179,0,0,1,1.92-2.184,5.173,5.173,0,0,1,2.813-.781,5,5,0,0,1,3.931,1.7,6.556,6.556,0,0,1,1.5,4.509v.281a7.213,7.213,0,0,1-.679,3.173,5.073,5.073,0,0,1-1.915,2.173,5.25,5.25,0,0,1-2.819.764,5,5,0,0,1-3.925-1.7,6.541,6.541,0,0,1-1.51-4.509Zm1.348.371a5.514,5.514,0,0,0,1.129,3.577,3.62,3.62,0,0,0,2.959,1.4,3.609,3.609,0,0,0,2.948-1.4A5.7,5.7,0,0,0-104.8-6v-.258a6.181,6.181,0,0,0-.517-2.549,4.151,4.151,0,0,0-1.449-1.791,3.7,3.7,0,0,0-2.134-.635,3.591,3.591,0,0,0-2.931,1.409,5.7,5.7,0,0,0-1.134,3.689Zm13.555-6.267.045,2.078a4.825,4.825,0,0,1,1.707-1.713,4.436,4.436,0,0,1,2.257-.59,3.645,3.645,0,0,1,2.909,1.1,4.964,4.964,0,0,1,.966,3.3V0h-1.336V-7.985a3.712,3.712,0,0,0-.691-2.426,2.706,2.706,0,0,0-2.173-.8,3.4,3.4,0,0,0-2.207.781A4.572,4.572,0,0,0-99.35-8.322V0h-1.336V-12.151ZM-83.347.225a5.275,5.275,0,0,1-2.8-.764A5.2,5.2,0,0,1-88.1-2.667a6.635,6.635,0,0,1-.7-3.06V-6.21a7.15,7.15,0,0,1,.679-3.156,5.406,5.406,0,0,1,1.892-2.207,4.668,4.668,0,0,1,2.628-.8,4.387,4.387,0,0,1,3.51,1.51,6.127,6.127,0,0,1,1.3,4.127v.752h-8.67v.258a5.088,5.088,0,0,0,1.185,3.442A3.769,3.769,0,0,0-83.291-.91a4.379,4.379,0,0,0,1.9-.393,4.222,4.222,0,0,0,1.5-1.258l.842.64A4.9,4.9,0,0,1-83.347.225Zm-.247-11.455a3.36,3.36,0,0,0-2.555,1.112,5.136,5.136,0,0,0-1.263,2.987h7.289v-.146a4.459,4.459,0,0,0-1-2.853A3.1,3.1,0,0,0-83.594-11.23Zm9.512-4.032v3.111h2.516v1.1h-2.516v8.106a2.538,2.538,0,0,0,.365,1.507A1.415,1.415,0,0,0-72.5-.943a8.361,8.361,0,0,0,1.089-.112l.056,1.091A4.393,4.393,0,0,1-72.79.225a2.4,2.4,0,0,1-2.01-.8,3.78,3.78,0,0,1-.629-2.364v-8.108h-2.235v-1.1h2.235v-3.111ZM-67.276,0h-1.348V-12.151h1.348ZM-68.86-15.661a.9.9,0,0,1,.247-.642.881.881,0,0,1,.674-.262.9.9,0,0,1,.679.262.89.89,0,0,1,.253.642.871.871,0,0,1-.253.636.91.91,0,0,1-.679.257.891.891,0,0,1-.674-.257A.882.882,0,0,1-68.86-15.661Zm6.121,14.527h7.9V0H-64.4V-.988l7.367-10h-7.143v-1.168h8.838v1.009ZM-44.77,0a6.355,6.355,0,0,1-.258-1.7,4.686,4.686,0,0,1-1.8,1.421,5.52,5.52,0,0,1-2.319.5,4.073,4.073,0,0,1-2.836-.977A3.183,3.183,0,0,1-53.07-3.223a3.252,3.252,0,0,1,1.477-2.808,7.1,7.1,0,0,1,4.116-1.033h2.437V-8.445a2.662,2.662,0,0,0-.8-2.05,3.319,3.319,0,0,0-2.342-.747,3.665,3.665,0,0,0-2.325.719,2.136,2.136,0,0,0-.921,1.729L-52.778-8.8a3.125,3.125,0,0,1,1.348-2.51,5.189,5.189,0,0,1,3.313-1.061,4.733,4.733,0,0,1,3.206,1.016A3.647,3.647,0,0,1-43.7-8.524v5.75a7.132,7.132,0,0,0,.371,2.639V0Zm-4.223-.966a4.512,4.512,0,0,0,2.409-.651A3.833,3.833,0,0,0-45.04-3.358V-6.031h-2.4a6.022,6.022,0,0,0-3.145.736,2.208,2.208,0,0,0-1.134,1.96,2.172,2.172,0,0,0,.758,1.7A2.856,2.856,0,0,0-48.993-.966Zm10.961-14.3v3.111h2.516v1.1h-2.516v8.106a2.538,2.538,0,0,0,.365,1.507,1.415,1.415,0,0,0,1.219.495,8.361,8.361,0,0,0,1.089-.112L-35.3.035A4.393,4.393,0,0,1-36.74.225a2.4,2.4,0,0,1-2.01-.8,3.78,3.78,0,0,1-.629-2.364v-8.108h-2.235v-1.1h2.235v-3.111ZM-31.226,0h-1.348V-12.151h1.348ZM-32.81-15.661a.9.9,0,0,1,.247-.642.881.881,0,0,1,.674-.262.9.9,0,0,1,.679.262.89.89,0,0,1,.253.642.871.871,0,0,1-.253.636.91.91,0,0,1-.679.257.891.891,0,0,1-.674-.257A.882.882,0,0,1-32.81-15.661Zm4.492,9.406a7.15,7.15,0,0,1,.679-3.156,5.179,5.179,0,0,1,1.92-2.184,5.173,5.173,0,0,1,2.813-.781,5,5,0,0,1,3.931,1.7,6.556,6.556,0,0,1,1.5,4.509v.281a7.213,7.213,0,0,1-.679,3.173A5.073,5.073,0,0,1-20.063-.539a5.25,5.25,0,0,1-2.819.764,5,5,0,0,1-3.925-1.7,6.541,6.541,0,0,1-1.51-4.509Zm1.348.371a5.514,5.514,0,0,0,1.129,3.577,3.62,3.62,0,0,0,2.959,1.4,3.609,3.609,0,0,0,2.948-1.4A5.7,5.7,0,0,0-18.805-6v-.258A6.181,6.181,0,0,0-19.322-8.8,4.151,4.151,0,0,0-20.771-10.6,3.7,3.7,0,0,0-22.9-11.23a3.591,3.591,0,0,0-2.931,1.409A5.7,5.7,0,0,0-26.97-6.132Zm13.555-6.267.045,2.078a4.825,4.825,0,0,1,1.707-1.713,4.436,4.436,0,0,1,2.257-.59,3.645,3.645,0,0,1,2.909,1.1,4.964,4.964,0,0,1,.966,3.3V0H-6.867V-7.985a3.712,3.712,0,0,0-.691-2.426,2.706,2.706,0,0,0-2.173-.8,3.4,3.4,0,0,0-2.207.781,4.572,4.572,0,0,0-1.421,2.106V0H-14.7V-12.151Zm16.206,5.9A7.15,7.15,0,0,1,3.47-9.411,5.179,5.179,0,0,1,5.391-11.6,5.173,5.173,0,0,1,8.2-12.376a5,5,0,0,1,3.931,1.7,6.556,6.556,0,0,1,1.5,4.509v.281a7.213,7.213,0,0,1-.679,3.173A5.073,5.073,0,0,1,11.045-.539,5.25,5.25,0,0,1,8.226.225,5,5,0,0,1,4.3-1.477a6.541,6.541,0,0,1-1.51-4.509Zm1.348.371A5.514,5.514,0,0,0,5.267-2.308,3.62,3.62,0,0,0,8.226-.91a3.609,3.609,0,0,0,2.948-1.4A5.7,5.7,0,0,0,12.3-6v-.258A6.181,6.181,0,0,0,11.786-8.8,4.151,4.151,0,0,0,10.338-10.6,3.7,3.7,0,0,0,8.2-11.23,3.591,3.591,0,0,0,5.273-9.821,5.7,5.7,0,0,0,4.138-6.132Zm22.045-.067a7.318,7.318,0,0,1-1.258,4.509A4.006,4.006,0,0,1,21.557.225a4.5,4.5,0,0,1-3.818-1.752v6.2H16.4V-12.151h1.247l.067,1.718a4.312,4.312,0,0,1,3.807-1.943,4.042,4.042,0,0,1,3.42,1.651,7.48,7.48,0,0,1,1.241,4.582Zm-1.348-.236a6.25,6.25,0,0,0-.955-3.672,3.078,3.078,0,0,0-2.662-1.348,3.72,3.72,0,0,0-2.123.6,3.744,3.744,0,0,0-1.359,1.729v5.829A3.568,3.568,0,0,0,19.12-1.46a3.983,3.983,0,0,0,2.123.55,3.049,3.049,0,0,0,2.645-1.353A6.8,6.8,0,0,0,24.836-6.188Zm14.094.236a7.318,7.318,0,0,1-1.258,4.509A4.006,4.006,0,0,1,34.3.225a4.5,4.5,0,0,1-3.818-1.752v6.2H29.149V-12.151H30.4l.067,1.718a4.312,4.312,0,0,1,3.807-1.943,4.042,4.042,0,0,1,3.42,1.651A7.48,7.48,0,0,1,38.93-6.143Zm-1.348-.236a6.25,6.25,0,0,0-.955-3.672,3.078,3.078,0,0,0-2.662-1.348,3.72,3.72,0,0,0-2.123.6,3.744,3.744,0,0,0-1.359,1.729v5.829A3.568,3.568,0,0,0,31.866-1.46a3.983,3.983,0,0,0,2.123.55,3.049,3.049,0,0,0,2.645-1.353A6.8,6.8,0,0,0,37.583-6.188Zm3.583-.067a7.151,7.151,0,0,1,.679-3.156,5.179,5.179,0,0,1,1.92-2.184,5.173,5.173,0,0,1,2.813-.781,5,5,0,0,1,3.931,1.7,6.556,6.556,0,0,1,1.5,4.509v.281a7.213,7.213,0,0,1-.679,3.173A5.073,5.073,0,0,1,49.42-.539,5.25,5.25,0,0,1,46.6.225a5,5,0,0,1-3.925-1.7,6.541,6.541,0,0,1-1.51-4.509Zm1.348.371a5.514,5.514,0,0,0,1.129,3.577A3.62,3.62,0,0,0,46.6-.91a3.609,3.609,0,0,0,2.948-1.4A5.7,5.7,0,0,0,50.677-6v-.258A6.181,6.181,0,0,0,50.161-8.8,4.151,4.151,0,0,0,48.712-10.6a3.7,3.7,0,0,0-2.134-.635,3.591,3.591,0,0,0-2.931,1.409,5.7,5.7,0,0,0-1.134,3.689ZM60.4-11.006a5.02,5.02,0,0,0-.91-.079,3.282,3.282,0,0,0-2.128.7,3.844,3.844,0,0,0-1.241,2.038V0H54.788V-12.151H56.1l.022,1.932a3.574,3.574,0,0,1,3.425-2.156,2.21,2.21,0,0,1,.887.146Zm4.773-4.256v3.111h2.516v1.1H65.176v8.106a2.538,2.538,0,0,0,.365,1.507,1.415,1.415,0,0,0,1.219.495,8.361,8.361,0,0,0,1.089-.112L67.905.035a4.393,4.393,0,0,1-1.437.189,2.4,2.4,0,0,1-2.01-.8,3.78,3.78,0,0,1-.629-2.364v-8.108H61.594v-1.1h2.235v-3.111ZM78.293-1.539A4.368,4.368,0,0,1,74.419.225,3.759,3.759,0,0,1,71.465-.9a4.943,4.943,0,0,1-1.033-3.341v-7.906h1.336v7.738q0,3.47,2.808,3.47,2.92,0,3.695-2.415v-8.793h1.348V0h-1.3Zm6.1-10.613.045,2.078a4.825,4.825,0,0,1,1.707-1.713,4.436,4.436,0,0,1,2.257-.59,3.645,3.645,0,0,1,2.909,1.1,4.964,4.964,0,0,1,.966,3.3V0H90.939V-7.985a3.712,3.712,0,0,0-.691-2.426,2.706,2.706,0,0,0-2.173-.8,3.4,3.4,0,0,0-2.207.781,4.572,4.572,0,0,0-1.421,2.106V0H83.111V-12.151ZM97.25,0H95.9V-12.151H97.25ZM95.667-15.661a.9.9,0,0,1,.247-.642.881.881,0,0,1,.674-.262.9.9,0,0,1,.679.262.89.89,0,0,1,.253.642.871.871,0,0,1-.253.636.91.91,0,0,1-.679.257.891.891,0,0,1-.674-.257A.882.882,0,0,1,95.667-15.661Zm7.322.4v3.111H105.5v1.1h-2.516v8.106a2.538,2.538,0,0,0,.365,1.507,1.415,1.415,0,0,0,1.219.495,8.361,8.361,0,0,0,1.089-.112l.056,1.091a4.393,4.393,0,0,1-1.437.189,2.4,2.4,0,0,1-2.01-.8,3.78,3.78,0,0,1-.629-2.364v-8.108H99.406v-1.1h2.235v-3.111ZM109.795,0h-1.348V-12.151h1.348Zm-1.583-15.661a.9.9,0,0,1,.247-.642.881.881,0,0,1,.674-.262.9.9,0,0,1,.679.262.89.89,0,0,1,.253.642.871.871,0,0,1-.253.636.91.91,0,0,1-.679.257.891.891,0,0,1-.674-.257A.882.882,0,0,1,108.211-15.661ZM118.15.225a5.275,5.275,0,0,1-2.8-.764A5.2,5.2,0,0,1,113.4-2.667a6.635,6.635,0,0,1-.7-3.06V-6.21a7.15,7.15,0,0,1,.679-3.156,5.406,5.406,0,0,1,1.892-2.207,4.668,4.668,0,0,1,2.628-.8,4.387,4.387,0,0,1,3.51,1.51,6.127,6.127,0,0,1,1.3,4.127v.752h-8.67v.258a5.088,5.088,0,0,0,1.185,3.442A3.769,3.769,0,0,0,118.206-.91a4.379,4.379,0,0,0,1.9-.393,4.222,4.222,0,0,0,1.5-1.258l.842.64A4.9,4.9,0,0,1,118.15.225ZM117.9-11.23a3.36,3.36,0,0,0-2.555,1.112,5.136,5.136,0,0,0-1.263,2.987h7.289v-.146a4.459,4.459,0,0,0-1-2.853A3.1,3.1,0,0,0,117.9-11.23Zm14.7,8.142a1.915,1.915,0,0,0-.8-1.606,6.193,6.193,0,0,0-2.42-.949,10.919,10.919,0,0,1-2.51-.786,3.344,3.344,0,0,1-1.325-1.084,2.7,2.7,0,0,1-.432-1.55,2.891,2.891,0,0,1,1.2-2.375,4.854,4.854,0,0,1,3.077-.938,5,5,0,0,1,3.262,1.005,3.226,3.226,0,0,1,1.23,2.622h-1.348a2.176,2.176,0,0,0-.893-1.774,3.513,3.513,0,0,0-2.252-.708,3.514,3.514,0,0,0-2.128.59,1.819,1.819,0,0,0-.8,1.533,1.657,1.657,0,0,0,.668,1.409,7.068,7.068,0,0,0,2.437.915,11.454,11.454,0,0,1,2.65.887,3.433,3.433,0,0,1,1.308,1.134,2.9,2.9,0,0,1,.427,1.606A2.911,2.911,0,0,1,132.71-.7a5.3,5.3,0,0,1-3.24.921A5.443,5.443,0,0,1,126.028-.8a3.163,3.163,0,0,1-1.32-2.6h1.348a2.337,2.337,0,0,0,.994,1.836,4.063,4.063,0,0,0,2.42.657,3.819,3.819,0,0,0,2.269-.618A1.854,1.854,0,0,0,132.6-3.088ZM-112.866,54V37.648h4.829a6.284,6.284,0,0,1,3.987,1.084,3.846,3.846,0,0,1,1.359,3.2,3.623,3.623,0,0,1-.691,2.208,3.772,3.772,0,0,1-1.892,1.343,3.927,3.927,0,0,1,2.3,1.4,3.912,3.912,0,0,1,.87,2.514,4.251,4.251,0,0,1-1.4,3.384A5.732,5.732,0,0,1-107.4,54Zm1.381-7.85v6.682h4.144a4.142,4.142,0,0,0,2.813-.9,3.144,3.144,0,0,0,1.039-2.506,3.035,3.035,0,0,0-.994-2.394,4,4,0,0,0-2.746-.88Zm0-1.168h3.773a4.239,4.239,0,0,0,2.678-.816,2.782,2.782,0,0,0,.949-2.278,2.733,2.733,0,0,0-.983-2.323,4.876,4.876,0,0,0-2.97-.748h-3.448Zm18.014-1.988a5.019,5.019,0,0,0-.91-.079,3.282,3.282,0,0,0-2.128.7,3.844,3.844,0,0,0-1.241,2.038V54h-1.336V41.849h1.314l.022,1.932a3.574,3.574,0,0,1,3.425-2.156,2.21,2.21,0,0,1,.887.146Zm1.157,4.75a7.15,7.15,0,0,1,.679-3.156,5.179,5.179,0,0,1,1.92-2.184,5.173,5.173,0,0,1,2.813-.781,5,5,0,0,1,3.931,1.7,6.556,6.556,0,0,1,1.5,4.509v.281a7.213,7.213,0,0,1-.679,3.173,5.073,5.073,0,0,1-1.915,2.173,5.25,5.25,0,0,1-2.819.764,5,5,0,0,1-3.925-1.7,6.541,6.541,0,0,1-1.51-4.509Zm1.348.371a5.514,5.514,0,0,0,1.129,3.577,3.62,3.62,0,0,0,2.959,1.4,3.609,3.609,0,0,0,2.948-1.4A5.7,5.7,0,0,0-82.8,48v-.258a6.181,6.181,0,0,0-.517-2.549A4.151,4.151,0,0,0-84.768,43.4,3.7,3.7,0,0,0-86.9,42.77a3.591,3.591,0,0,0-2.931,1.409,5.7,5.7,0,0,0-1.134,3.689ZM-71.021,54a6.356,6.356,0,0,1-.258-1.7,4.686,4.686,0,0,1-1.8,1.421,5.52,5.52,0,0,1-2.319.5,4.073,4.073,0,0,1-2.836-.977,3.183,3.183,0,0,1-1.084-2.471,3.252,3.252,0,0,1,1.477-2.808,7.1,7.1,0,0,1,4.116-1.033h2.437V45.555a2.662,2.662,0,0,0-.8-2.05,3.319,3.319,0,0,0-2.342-.747,3.665,3.665,0,0,0-2.325.719,2.136,2.136,0,0,0-.921,1.729l-1.348-.011a3.125,3.125,0,0,1,1.348-2.51,5.189,5.189,0,0,1,3.313-1.061,4.733,4.733,0,0,1,3.206,1.016,3.647,3.647,0,0,1,1.207,2.836v5.75a7.132,7.132,0,0,0,.371,2.639V54Zm-4.223-.966a4.512,4.512,0,0,0,2.409-.651,3.833,3.833,0,0,0,1.544-1.741V47.969h-2.4a6.022,6.022,0,0,0-3.145.736,2.208,2.208,0,0,0-1.134,1.96,2.172,2.172,0,0,0,.758,1.7A2.856,2.856,0,0,0-75.244,53.034Zm8.333-5.222A7.324,7.324,0,0,1-65.648,43.3a4.066,4.066,0,0,1,3.431-1.679,4.226,4.226,0,0,1,3.751,1.943V36.75h1.336V54h-1.258l-.056-1.617a4.34,4.34,0,0,1-3.8,1.842,4.052,4.052,0,0,1-3.386-1.69,7.362,7.362,0,0,1-1.286-4.565Zm1.359.236a6.337,6.337,0,0,0,.932,3.667,3.015,3.015,0,0,0,2.628,1.342,3.617,3.617,0,0,0,3.526-2.19V45.162a3.59,3.59,0,0,0-3.5-2.37,3.051,3.051,0,0,0-2.639,1.331A6.772,6.772,0,0,0-65.552,48.048Zm21.742,0a7.318,7.318,0,0,1-1.258,4.509,4.017,4.017,0,0,1-3.38,1.668,4.367,4.367,0,0,1-3.841-1.887L-52.345,54H-53.6V36.75h1.336v6.862a4.224,4.224,0,0,1,3.8-1.988,4.054,4.054,0,0,1,3.408,1.645,7.405,7.405,0,0,1,1.252,4.576Zm-1.348-.236A6.33,6.33,0,0,0-46.09,44.1a3.039,3.039,0,0,0-2.628-1.308,3.7,3.7,0,0,0-2.19.635,3.858,3.858,0,0,0-1.359,1.859v5.48A3.6,3.6,0,0,0-48.7,53.057a3.017,3.017,0,0,0,2.6-1.314A6.766,6.766,0,0,0-45.158,47.812ZM-33.175,54a6.355,6.355,0,0,1-.258-1.7,4.686,4.686,0,0,1-1.8,1.421,5.52,5.52,0,0,1-2.319.5,4.073,4.073,0,0,1-2.836-.977,3.183,3.183,0,0,1-1.084-2.471A3.252,3.252,0,0,1-40,47.969a7.1,7.1,0,0,1,4.116-1.033h2.437V45.555a2.662,2.662,0,0,0-.8-2.05,3.319,3.319,0,0,0-2.342-.747,3.665,3.665,0,0,0-2.325.719,2.136,2.136,0,0,0-.921,1.729l-1.348-.011a3.125,3.125,0,0,1,1.348-2.51,5.189,5.189,0,0,1,3.313-1.061,4.733,4.733,0,0,1,3.206,1.016,3.647,3.647,0,0,1,1.207,2.836v5.75a7.132,7.132,0,0,0,.371,2.639V54Zm-4.223-.966a4.512,4.512,0,0,0,2.409-.651,3.833,3.833,0,0,0,1.544-1.741V47.969h-2.4a6.022,6.022,0,0,0-3.145.736,2.208,2.208,0,0,0-1.134,1.96,2.172,2.172,0,0,0,.758,1.7A2.856,2.856,0,0,0-37.4,53.034Zm10.152-11.186.045,2.078a4.825,4.825,0,0,1,1.707-1.713,4.436,4.436,0,0,1,2.257-.59,3.645,3.645,0,0,1,2.909,1.1,4.964,4.964,0,0,1,.966,3.3V54H-20.7V46.015a3.712,3.712,0,0,0-.691-2.426,2.706,2.706,0,0,0-2.173-.8,3.4,3.4,0,0,0-2.207.781,4.572,4.572,0,0,0-1.421,2.106V54h-1.336V41.849Zm10.815,5.963A7.324,7.324,0,0,1-15.167,43.3a4.066,4.066,0,0,1,3.431-1.679,4.226,4.226,0,0,1,3.751,1.943V36.75h1.336V54H-7.906l-.056-1.617a4.34,4.34,0,0,1-3.8,1.842,4.052,4.052,0,0,1-3.386-1.69,7.362,7.362,0,0,1-1.286-4.565Zm1.359.236a6.337,6.337,0,0,0,.932,3.667,3.015,3.015,0,0,0,2.628,1.342,3.617,3.617,0,0,0,3.526-2.19V45.162a3.59,3.59,0,0,0-3.5-2.37,3.051,3.051,0,0,0-2.639,1.331A6.772,6.772,0,0,0-15.071,48.048Zm27.324,0a7.318,7.318,0,0,1-1.258,4.509,4.006,4.006,0,0,1-3.369,1.668,4.5,4.5,0,0,1-3.818-1.752v6.2H2.471V41.849H3.717l.067,1.718a4.312,4.312,0,0,1,3.807-1.943,4.042,4.042,0,0,1,3.42,1.651,7.48,7.48,0,0,1,1.241,4.582ZM10.9,47.812A6.25,6.25,0,0,0,9.95,44.14a3.078,3.078,0,0,0-2.662-1.348,3.72,3.72,0,0,0-2.123.6,3.744,3.744,0,0,0-1.359,1.729v5.829A3.568,3.568,0,0,0,5.188,52.54a3.983,3.983,0,0,0,2.123.55,3.049,3.049,0,0,0,2.645-1.353A6.8,6.8,0,0,0,10.9,47.812Zm9.029,6.413a5.275,5.275,0,0,1-2.8-.764,5.2,5.2,0,0,1-1.948-2.128,6.635,6.635,0,0,1-.7-3.06V47.79a7.15,7.15,0,0,1,.679-3.156,5.406,5.406,0,0,1,1.892-2.207,4.668,4.668,0,0,1,2.628-.8,4.387,4.387,0,0,1,3.51,1.51,6.127,6.127,0,0,1,1.3,4.127v.752h-8.67v.258a5.088,5.088,0,0,0,1.185,3.442A3.769,3.769,0,0,0,19.99,53.09a4.379,4.379,0,0,0,1.9-.393,4.222,4.222,0,0,0,1.5-1.258l.842.64A4.9,4.9,0,0,1,19.934,54.225ZM19.687,42.77a3.36,3.36,0,0,0-2.555,1.112,5.136,5.136,0,0,0-1.263,2.987h7.289v-.146a4.459,4.459,0,0,0-1-2.853A3.1,3.1,0,0,0,19.687,42.77Zm8.7-.921.045,2.078a4.825,4.825,0,0,1,1.707-1.713,4.436,4.436,0,0,1,2.257-.59,3.645,3.645,0,0,1,2.909,1.1,4.964,4.964,0,0,1,.966,3.3V54H34.938V46.015a3.712,3.712,0,0,0-.691-2.426,2.706,2.706,0,0,0-2.173-.8,3.4,3.4,0,0,0-2.207.781,4.572,4.572,0,0,0-1.421,2.106V54H27.11V41.849ZM44.45,54.225a5.275,5.275,0,0,1-2.8-.764A5.2,5.2,0,0,1,39.7,51.333a6.635,6.635,0,0,1-.7-3.06V47.79a7.151,7.151,0,0,1,.679-3.156,5.406,5.406,0,0,1,1.892-2.207,4.668,4.668,0,0,1,2.628-.8,4.387,4.387,0,0,1,3.51,1.51,6.127,6.127,0,0,1,1.3,4.127v.752H40.34v.258a5.088,5.088,0,0,0,1.185,3.442,3.769,3.769,0,0,0,2.982,1.376,4.379,4.379,0,0,0,1.9-.393,4.222,4.222,0,0,0,1.5-1.258l.842.64A4.9,4.9,0,0,1,44.45,54.225ZM44.2,42.77a3.36,3.36,0,0,0-2.555,1.112,5.136,5.136,0,0,0-1.263,2.987h7.289v-.146a4.459,4.459,0,0,0-1-2.853A3.1,3.1,0,0,0,44.2,42.77Zm9.512-4.032v3.111h2.516v1.1H53.715v8.106a2.538,2.538,0,0,0,.365,1.507,1.415,1.415,0,0,0,1.219.495,8.361,8.361,0,0,0,1.089-.112l.056,1.091a4.393,4.393,0,0,1-1.437.189,2.4,2.4,0,0,1-2.01-.8,3.78,3.78,0,0,1-.629-2.364V42.949H50.133v-1.1h2.235V38.738Zm10.916,4.256a5.019,5.019,0,0,0-.91-.079,3.282,3.282,0,0,0-2.128.7,3.844,3.844,0,0,0-1.241,2.038V54H59.016V41.849H60.33l.022,1.932a3.574,3.574,0,0,1,3.425-2.156,2.21,2.21,0,0,1,.887.146ZM73.975,54a6.356,6.356,0,0,1-.258-1.7,4.686,4.686,0,0,1-1.8,1.421,5.52,5.52,0,0,1-2.319.5,4.073,4.073,0,0,1-2.836-.977,3.183,3.183,0,0,1-1.084-2.471,3.252,3.252,0,0,1,1.477-2.808,7.1,7.1,0,0,1,4.116-1.033h2.437V45.555a2.662,2.662,0,0,0-.8-2.05,3.319,3.319,0,0,0-2.342-.747,3.665,3.665,0,0,0-2.325.719,2.136,2.136,0,0,0-.921,1.729L65.968,45.2a3.125,3.125,0,0,1,1.348-2.51,5.189,5.189,0,0,1,3.313-1.061,4.733,4.733,0,0,1,3.206,1.016,3.647,3.647,0,0,1,1.207,2.836v5.75a7.132,7.132,0,0,0,.371,2.639V54Zm-4.223-.966a4.512,4.512,0,0,0,2.409-.651,3.833,3.833,0,0,0,1.544-1.741V47.969H71.3a6.022,6.022,0,0,0-3.145.736,2.208,2.208,0,0,0-1.134,1.96,2.172,2.172,0,0,0,.758,1.7A2.856,2.856,0,0,0,69.752,53.034Zm10.961-14.3v3.111h2.516v1.1H80.713v8.106a2.538,2.538,0,0,0,.365,1.507,1.415,1.415,0,0,0,1.219.495,8.361,8.361,0,0,0,1.089-.112l.056,1.091A4.393,4.393,0,0,1,82,54.225a2.4,2.4,0,0,1-2.01-.8,3.78,3.78,0,0,1-.629-2.364V42.949H77.131v-1.1h2.235V38.738ZM87.519,54H86.171V41.849h1.348ZM85.936,38.339a.9.9,0,0,1,.247-.642.881.881,0,0,1,.674-.262.9.9,0,0,1,.679.262.89.89,0,0,1,.253.642.871.871,0,0,1-.253.636.91.91,0,0,1-.679.257.891.891,0,0,1-.674-.257A.882.882,0,0,1,85.936,38.339Zm4.492,9.406a7.15,7.15,0,0,1,.679-3.156,5.1,5.1,0,0,1,4.734-2.965,5,5,0,0,1,3.931,1.7,6.556,6.556,0,0,1,1.5,4.509v.281a7.213,7.213,0,0,1-.679,3.173,5.073,5.073,0,0,1-1.915,2.173,5.25,5.25,0,0,1-2.819.764,5,5,0,0,1-3.925-1.7,6.541,6.541,0,0,1-1.51-4.509Zm1.348.371A5.514,5.514,0,0,0,92.9,51.692a3.819,3.819,0,0,0,5.907,0A5.7,5.7,0,0,0,99.94,48v-.258a6.181,6.181,0,0,0-.517-2.549A4.151,4.151,0,0,0,97.975,43.4a3.7,3.7,0,0,0-2.134-.635,3.591,3.591,0,0,0-2.931,1.409,5.7,5.7,0,0,0-1.134,3.689Zm13.555-6.267.045,2.078a4.825,4.825,0,0,1,1.707-1.713,4.436,4.436,0,0,1,2.257-.59,3.645,3.645,0,0,1,2.909,1.1,4.964,4.964,0,0,1,.966,3.3V54h-1.336V46.015a3.712,3.712,0,0,0-.691-2.426,2.706,2.706,0,0,0-2.173-.8,3.4,3.4,0,0,0-2.207.781,4.572,4.572,0,0,0-1.421,2.106V54H104.05V41.849Zm-208.365,59.334h-4.75V108h-1.393V91.648h5.312a6.064,6.064,0,0,1,4.088,1.268,4.428,4.428,0,0,1,1.471,3.545,4.426,4.426,0,0,1-.921,2.771,4.709,4.709,0,0,1-2.471,1.66l4.088,6.962V108h-1.471Zm-4.75-1.168h4.234a3.923,3.923,0,0,0,2.8-.99A3.356,3.356,0,0,0-99.7,96.461a3.37,3.37,0,0,0-1.1-2.688,4.56,4.56,0,0,0-3.088-.956h-3.9Zm17.632,8.209a5.275,5.275,0,0,1-2.8-.764,5.2,5.2,0,0,1-1.948-2.128,6.635,6.635,0,0,1-.7-3.06v-.483a7.15,7.15,0,0,1,.679-3.156,5.406,5.406,0,0,1,1.892-2.207,4.668,4.668,0,0,1,2.628-.8,4.387,4.387,0,0,1,3.51,1.51,6.127,6.127,0,0,1,1.3,4.127v.752h-8.67v.258a5.088,5.088,0,0,0,1.185,3.442A3.769,3.769,0,0,0-90.1,107.09a4.379,4.379,0,0,0,1.9-.393,4.222,4.222,0,0,0,1.5-1.258l.842.64A4.9,4.9,0,0,1-90.153,108.225ZM-90.4,96.77a3.36,3.36,0,0,0-2.555,1.112,5.136,5.136,0,0,0-1.263,2.987h7.289v-.146a4.459,4.459,0,0,0-1-2.853A3.1,3.1,0,0,0-90.4,96.77Zm6.884,5.042A7.324,7.324,0,0,1-82.252,97.3a4.066,4.066,0,0,1,3.431-1.679,4.226,4.226,0,0,1,3.751,1.943V90.75h1.336V108h-1.258l-.056-1.617a4.34,4.34,0,0,1-3.8,1.842,4.052,4.052,0,0,1-3.386-1.69,7.362,7.362,0,0,1-1.286-4.565Zm1.359.236a6.337,6.337,0,0,0,.932,3.667,3.015,3.015,0,0,0,2.628,1.342,3.617,3.617,0,0,0,3.526-2.19V99.162a3.59,3.59,0,0,0-3.5-2.37,3.051,3.051,0,0,0-2.639,1.331A6.772,6.772,0,0,0-82.156,102.048Zm19.777,4.414a4.368,4.368,0,0,1-3.875,1.763,3.759,3.759,0,0,1-2.954-1.129,4.943,4.943,0,0,1-1.033-3.341V95.849H-68.9v7.738q0,3.47,2.808,3.47,2.92,0,3.695-2.415V95.849h1.348V108h-1.3Zm9.31.629a3.549,3.549,0,0,0,2.353-.792,2.786,2.786,0,0,0,1.028-2.05H-48.4a3.8,3.8,0,0,1-.7,2.027,4.362,4.362,0,0,1-1.7,1.432,5.128,5.128,0,0,1-2.274.517,4.694,4.694,0,0,1-3.79-1.662,6.719,6.719,0,0,1-1.4-4.47v-.4a7.6,7.6,0,0,1,.629-3.178,4.846,4.846,0,0,1,1.8-2.134,4.976,4.976,0,0,1,2.746-.752,4.686,4.686,0,0,1,3.3,1.19A4.341,4.341,0,0,1-48.4,99.948h-1.292a3.3,3.3,0,0,0-1.028-2.3,3.327,3.327,0,0,0-2.364-.876,3.351,3.351,0,0,0-2.824,1.314,5.945,5.945,0,0,0-1.005,3.684v.393a5.812,5.812,0,0,0,1.005,3.627A3.374,3.374,0,0,0-53.07,107.09Zm12.062,1.134a5.275,5.275,0,0,1-2.8-.764,5.2,5.2,0,0,1-1.948-2.128,6.635,6.635,0,0,1-.7-3.06v-.483a7.151,7.151,0,0,1,.679-3.156,5.406,5.406,0,0,1,1.892-2.207,4.668,4.668,0,0,1,2.628-.8,4.387,4.387,0,0,1,3.51,1.51,6.127,6.127,0,0,1,1.3,4.127v.752h-8.67v.258a5.088,5.088,0,0,0,1.185,3.442,3.769,3.769,0,0,0,2.982,1.376,4.379,4.379,0,0,0,1.9-.393,4.222,4.222,0,0,0,1.5-1.258l.842.64A4.9,4.9,0,0,1-41.008,108.225Zm-.247-11.455a3.36,3.36,0,0,0-2.555,1.112,5.136,5.136,0,0,0-1.263,2.987h7.289v-.146a4.459,4.459,0,0,0-1-2.853A3.1,3.1,0,0,0-41.255,96.77Zm6.884,5.042A7.324,7.324,0,0,1-33.107,97.3a4.066,4.066,0,0,1,3.431-1.679,4.226,4.226,0,0,1,3.751,1.943V90.75h1.336V108h-1.258l-.056-1.617a4.34,4.34,0,0,1-3.8,1.842,4.052,4.052,0,0,1-3.386-1.69,7.362,7.362,0,0,1-1.286-4.565Zm1.359.236a6.337,6.337,0,0,0,.932,3.667,3.015,3.015,0,0,0,2.628,1.342,3.617,3.617,0,0,0,3.526-2.19V99.162a3.59,3.59,0,0,0-3.5-2.37,3.051,3.051,0,0,0-2.639,1.331A6.772,6.772,0,0,0-33.012,102.048Zm22.045,5.042a3.549,3.549,0,0,0,2.353-.792,2.786,2.786,0,0,0,1.028-2.05h1.292a3.8,3.8,0,0,1-.7,2.027,4.362,4.362,0,0,1-1.7,1.432,5.128,5.128,0,0,1-2.274.517,4.694,4.694,0,0,1-3.79-1.662,6.719,6.719,0,0,1-1.4-4.47v-.4a7.6,7.6,0,0,1,.629-3.178,4.846,4.846,0,0,1,1.8-2.134,4.976,4.976,0,0,1,2.746-.752,4.686,4.686,0,0,1,3.3,1.19,4.341,4.341,0,0,1,1.387,3.133H-7.586a3.3,3.3,0,0,0-1.028-2.3,3.327,3.327,0,0,0-2.364-.876A3.351,3.351,0,0,0-13.8,98.083a5.945,5.945,0,0,0-1.005,3.684v.393a5.812,5.812,0,0,0,1.005,3.627A3.374,3.374,0,0,0-10.967,107.09ZM4.06,108a6.355,6.355,0,0,1-.258-1.7A4.686,4.686,0,0,1,2,107.725a5.521,5.521,0,0,1-2.319.5,4.073,4.073,0,0,1-2.836-.977,3.183,3.183,0,0,1-1.084-2.471,3.252,3.252,0,0,1,1.477-2.808,7.1,7.1,0,0,1,4.116-1.033H3.79V99.555a2.662,2.662,0,0,0-.8-2.05,3.319,3.319,0,0,0-2.342-.747,3.665,3.665,0,0,0-2.325.719A2.136,2.136,0,0,0-2.6,99.207L-3.948,99.2A3.125,3.125,0,0,1-2.6,96.685,5.189,5.189,0,0,1,.713,95.624,4.733,4.733,0,0,1,3.919,96.64a3.647,3.647,0,0,1,1.207,2.836v5.75a7.132,7.132,0,0,0,.371,2.639V108Zm-4.223-.966a4.512,4.512,0,0,0,2.409-.651,3.833,3.833,0,0,0,1.544-1.741v-2.673h-2.4a6.022,6.022,0,0,0-3.145.736,2.208,2.208,0,0,0-1.134,1.96,2.173,2.173,0,0,0,.758,1.7A2.856,2.856,0,0,0-.163,107.034Zm18.643-4.986a7.318,7.318,0,0,1-1.258,4.509,4.006,4.006,0,0,1-3.369,1.668,4.5,4.5,0,0,1-3.818-1.752v6.2H8.7V95.849H9.945l.067,1.718a4.312,4.312,0,0,1,3.807-1.943,4.042,4.042,0,0,1,3.42,1.651,7.48,7.48,0,0,1,1.241,4.582Zm-1.348-.236a6.25,6.25,0,0,0-.955-3.672,3.078,3.078,0,0,0-2.662-1.348,3.546,3.546,0,0,0-3.481,2.325v5.829a3.568,3.568,0,0,0,1.381,1.595,3.983,3.983,0,0,0,2.123.55,3.049,3.049,0,0,0,2.645-1.353A6.8,6.8,0,0,0,17.132,101.812Zm9.029,6.413a5.275,5.275,0,0,1-2.8-.764,5.2,5.2,0,0,1-1.948-2.128,6.635,6.635,0,0,1-.7-3.06v-.483a7.15,7.15,0,0,1,.679-3.156,5.406,5.406,0,0,1,1.892-2.207,4.668,4.668,0,0,1,2.628-.8,4.387,4.387,0,0,1,3.51,1.51,6.127,6.127,0,0,1,1.3,4.127v.752h-8.67v.258a5.088,5.088,0,0,0,1.185,3.442,3.769,3.769,0,0,0,2.982,1.376,4.379,4.379,0,0,0,1.9-.393,4.222,4.222,0,0,0,1.5-1.258l.842.64A4.9,4.9,0,0,1,26.161,108.225ZM25.914,96.77a3.36,3.36,0,0,0-2.555,1.112,5.136,5.136,0,0,0-1.263,2.987h7.289v-.146a4.459,4.459,0,0,0-1-2.853A3.1,3.1,0,0,0,25.914,96.77Zm11.242,4.009,3.279-4.93H42.03l-4.122,5.963L42.21,108H40.626l-3.459-5.144L33.708,108H32.125l4.29-6.188-4.122-5.963h1.583Zm15.745-1.7a10.653,10.653,0,0,1-1.421-2.106,4.225,4.225,0,0,1-.444-1.836,3.627,3.627,0,0,1,1.022-2.718,3.75,3.75,0,0,1,2.74-1,3.548,3.548,0,0,1,2.527.9,3.009,3.009,0,0,1,.966,2.3A4.3,4.3,0,0,1,56.427,97.8l-1.8,1.393,4.492,5.233a6.959,6.959,0,0,0,1.022-3.74h1.247a7.629,7.629,0,0,1-1.437,4.706L62.189,108H60.572l-1.415-1.64a6.52,6.52,0,0,1-2.05,1.37,6.207,6.207,0,0,1-2.454.494,5.439,5.439,0,0,1-3.706-1.2,4.223,4.223,0,0,1-.668-5.447A10.6,10.6,0,0,1,52.744,99.2Zm1.752,8.007a4.779,4.779,0,0,0,1.982-.432,5.5,5.5,0,0,0,1.724-1.23l-4.571-5.3-.157-.168-.517.393q-2.2,1.8-2.2,3.481a3,3,0,0,0,1.011,2.364A3.974,3.974,0,0,0,54.653,107.09ZM52.385,95.1A5.51,5.51,0,0,0,53.9,98.331l1.471-1.123a5.338,5.338,0,0,0,1.179-1.134,2.357,2.357,0,0,0,.46-1.449,1.961,1.961,0,0,0-.606-1.466,2.221,2.221,0,0,0-1.617-.59,2.265,2.265,0,0,0-1.752.708A2.581,2.581,0,0,0,52.385,95.1Zm16.733,6.648a7.15,7.15,0,0,1,.679-3.156,5.1,5.1,0,0,1,4.734-2.965,5,5,0,0,1,3.931,1.7,6.556,6.556,0,0,1,1.5,4.509v.281a7.213,7.213,0,0,1-.679,3.173,5.073,5.073,0,0,1-1.915,2.173,5.25,5.25,0,0,1-2.819.764,5,5,0,0,1-3.925-1.7,6.541,6.541,0,0,1-1.51-4.509Zm1.348.371a5.514,5.514,0,0,0,1.129,3.577,3.819,3.819,0,0,0,5.907,0A5.7,5.7,0,0,0,78.63,102v-.258a6.181,6.181,0,0,0-.517-2.549A4.151,4.151,0,0,0,76.665,97.4a3.7,3.7,0,0,0-2.134-.635A3.591,3.591,0,0,0,71.6,98.179a5.7,5.7,0,0,0-1.134,3.689Zm22.045-.067a7.318,7.318,0,0,1-1.258,4.509,4.006,4.006,0,0,1-3.369,1.668,4.5,4.5,0,0,1-3.818-1.752v6.2H82.729V95.849h1.247l.067,1.718a4.312,4.312,0,0,1,3.807-1.943,4.042,4.042,0,0,1,3.42,1.651,7.48,7.48,0,0,1,1.241,4.582Zm-1.348-.236a6.25,6.25,0,0,0-.955-3.672,3.078,3.078,0,0,0-2.662-1.348,3.546,3.546,0,0,0-3.481,2.325v5.829a3.568,3.568,0,0,0,1.381,1.595,3.983,3.983,0,0,0,2.123.55,3.049,3.049,0,0,0,2.645-1.353A6.8,6.8,0,0,0,91.163,101.812Zm9.029,6.413a5.275,5.275,0,0,1-2.8-.764,5.2,5.2,0,0,1-1.948-2.128,6.635,6.635,0,0,1-.7-3.06v-.483a7.15,7.15,0,0,1,.679-3.156,5.406,5.406,0,0,1,1.892-2.207,4.668,4.668,0,0,1,2.628-.8,4.387,4.387,0,0,1,3.51,1.51,6.127,6.127,0,0,1,1.3,4.127v.752h-8.67v.258a5.088,5.088,0,0,0,1.185,3.442,3.769,3.769,0,0,0,2.982,1.376,4.379,4.379,0,0,0,1.9-.393,4.222,4.222,0,0,0,1.5-1.258l.842.64A4.9,4.9,0,0,1,100.193,108.225ZM99.946,96.77a3.36,3.36,0,0,0-2.555,1.112,5.136,5.136,0,0,0-1.263,2.987h7.289v-.146a4.459,4.459,0,0,0-1-2.853A3.1,3.1,0,0,0,99.946,96.77Zm11.242,4.009,3.279-4.93h1.595l-4.122,5.963,4.3,6.188h-1.583l-3.459-5.144L107.74,108h-1.583l4.29-6.188-4.122-5.963h1.583Zm-245.459,53.382h-7.648v6.671h8.793V162H-143.3V145.648h10.119v1.168h-8.737v6.177h7.648Zm4.964-4.312.045,1.977a4.5,4.5,0,0,1,1.685-1.651,4.62,4.62,0,0,1,2.246-.55q2.875,0,3.65,2.358a4.562,4.562,0,0,1,1.741-1.746,4.822,4.822,0,0,1,2.4-.612q3.908,0,3.987,4.268V162H-114.9v-8.007a3.622,3.622,0,0,0-.7-2.415,2.857,2.857,0,0,0-2.252-.786,3.579,3.579,0,0,0-2.448.938,3.314,3.314,0,0,0-1.112,2.229V162h-1.348v-8.108a3.329,3.329,0,0,0-.736-2.33,2.927,2.927,0,0,0-2.229-.769,3.39,3.39,0,0,0-2.179.724,4.248,4.248,0,0,0-1.348,2.151V162H-130.6V149.849Zm28.93,6.2a7.318,7.318,0,0,1-1.258,4.509A4.006,4.006,0,0,1-105,162.225a4.5,4.5,0,0,1-3.818-1.752v6.2h-1.336V149.849h1.247l.067,1.718a4.312,4.312,0,0,1,3.807-1.943,4.042,4.042,0,0,1,3.42,1.651,7.48,7.48,0,0,1,1.241,4.582Zm-1.348-.236a6.25,6.25,0,0,0-.955-3.672,3.078,3.078,0,0,0-2.662-1.348,3.72,3.72,0,0,0-2.123.6,3.744,3.744,0,0,0-1.359,1.729v5.829a3.568,3.568,0,0,0,1.381,1.595,3.983,3.983,0,0,0,2.123.55,3.05,3.05,0,0,0,2.645-1.353A6.8,6.8,0,0,0-101.726,155.812Zm3.583-.067a7.15,7.15,0,0,1,.679-3.156,5.179,5.179,0,0,1,1.92-2.184,5.173,5.173,0,0,1,2.813-.781,5,5,0,0,1,3.931,1.7,6.556,6.556,0,0,1,1.5,4.509v.281a7.213,7.213,0,0,1-.679,3.173,5.073,5.073,0,0,1-1.915,2.173,5.25,5.25,0,0,1-2.819.764,5,5,0,0,1-3.925-1.7,6.541,6.541,0,0,1-1.51-4.509Zm1.348.371a5.514,5.514,0,0,0,1.129,3.577,3.62,3.62,0,0,0,2.959,1.4,3.609,3.609,0,0,0,2.948-1.4A5.7,5.7,0,0,0-88.631,156v-.258a6.181,6.181,0,0,0-.517-2.549A4.151,4.151,0,0,0-90.6,151.4a3.7,3.7,0,0,0-2.134-.635,3.591,3.591,0,0,0-2.931,1.409,5.7,5.7,0,0,0-1.134,3.689Zm15.184,3.088.2,1.044.27-1.1,2.92-9.3h1.146l2.886,9.22.314,1.28.258-1.179,2.493-9.321h1.393L-73.268,162h-1.146l-3.122-9.636-.146-.663-.146.674L-80.893,162h-1.146l-3.526-12.151h1.381Zm19.137,3.021a5.275,5.275,0,0,1-2.8-.764,5.2,5.2,0,0,1-1.948-2.128,6.635,6.635,0,0,1-.7-3.06v-.483a7.15,7.15,0,0,1,.679-3.156,5.406,5.406,0,0,1,1.892-2.207,4.668,4.668,0,0,1,2.628-.8,4.387,4.387,0,0,1,3.51,1.51,6.127,6.127,0,0,1,1.3,4.127v.752h-8.67v.258a5.088,5.088,0,0,0,1.185,3.442,3.769,3.769,0,0,0,2.982,1.376,4.379,4.379,0,0,0,1.9-.393,4.222,4.222,0,0,0,1.5-1.258l.842.64A4.9,4.9,0,0,1-62.475,162.225Zm-.247-11.455a3.36,3.36,0,0,0-2.555,1.112,5.136,5.136,0,0,0-1.263,2.987h7.289v-.146a4.459,4.459,0,0,0-1-2.853A3.1,3.1,0,0,0-62.722,150.77Zm13.039.225a5.019,5.019,0,0,0-.91-.079,3.282,3.282,0,0,0-2.128.7,3.844,3.844,0,0,0-1.241,2.038V162H-55.3V149.849h1.314l.022,1.932a3.574,3.574,0,0,1,3.425-2.156,2.21,2.21,0,0,1,.887.146Zm6.615,11.23a5.275,5.275,0,0,1-2.8-.764,5.2,5.2,0,0,1-1.948-2.128,6.635,6.635,0,0,1-.7-3.06v-.483a7.15,7.15,0,0,1,.679-3.156,5.406,5.406,0,0,1,1.892-2.207,4.668,4.668,0,0,1,2.628-.8,4.387,4.387,0,0,1,3.51,1.51,6.127,6.127,0,0,1,1.3,4.127v.752h-8.67v.258a5.088,5.088,0,0,0,1.185,3.442,3.769,3.769,0,0,0,2.982,1.376,4.379,4.379,0,0,0,1.9-.393,4.222,4.222,0,0,0,1.5-1.258l.842.64A4.9,4.9,0,0,1-43.069,162.225Zm-.247-11.455a3.36,3.36,0,0,0-2.555,1.112,5.136,5.136,0,0,0-1.263,2.987h7.289v-.146a4.459,4.459,0,0,0-1-2.853A3.1,3.1,0,0,0-43.316,150.77Zm6.884,5.042a7.324,7.324,0,0,1,1.263-4.509,4.066,4.066,0,0,1,3.431-1.679,4.226,4.226,0,0,1,3.751,1.943V144.75h1.336V162h-1.258l-.056-1.617a4.34,4.34,0,0,1-3.8,1.842,4.052,4.052,0,0,1-3.386-1.69,7.362,7.362,0,0,1-1.286-4.565Zm1.359.236a6.337,6.337,0,0,0,.932,3.667,3.015,3.015,0,0,0,2.628,1.342,3.617,3.617,0,0,0,3.526-2.19v-5.705a3.59,3.59,0,0,0-3.5-2.37,3.051,3.051,0,0,0-2.639,1.331A6.772,6.772,0,0,0-35.073,156.048Zm18.833-6.2.045,2.078a4.825,4.825,0,0,1,1.707-1.713,4.436,4.436,0,0,1,2.257-.59,3.645,3.645,0,0,1,2.909,1.1,4.964,4.964,0,0,1,.966,3.3V162H-9.692v-7.985a3.712,3.712,0,0,0-.691-2.426,2.706,2.706,0,0,0-2.173-.8,3.4,3.4,0,0,0-2.207.781,4.572,4.572,0,0,0-1.421,2.106V162H-17.52V149.849ZM-.18,162.225a5.275,5.275,0,0,1-2.8-.764,5.2,5.2,0,0,1-1.948-2.128,6.635,6.635,0,0,1-.7-3.06v-.483a7.15,7.15,0,0,1,.679-3.156,5.406,5.406,0,0,1,1.892-2.207,4.668,4.668,0,0,1,2.628-.8,4.387,4.387,0,0,1,3.51,1.51,6.127,6.127,0,0,1,1.3,4.127v.752H-4.29v.258a5.088,5.088,0,0,0,1.185,3.442A3.769,3.769,0,0,0-.124,161.09a4.379,4.379,0,0,0,1.9-.393,4.222,4.222,0,0,0,1.5-1.258l.842.64A4.9,4.9,0,0,1-.18,162.225ZM-.427,150.77a3.36,3.36,0,0,0-2.555,1.112,5.136,5.136,0,0,0-1.263,2.987H3.043v-.146a4.459,4.459,0,0,0-1-2.853A3.1,3.1,0,0,0-.427,150.77Zm11.242,4.009,3.279-4.93h1.595l-4.122,5.963,4.3,6.188H14.285l-3.459-5.144L7.367,162H5.784l4.29-6.188-4.122-5.963H7.536Zm9.456-8.041v3.111h2.516v1.1H20.271v8.106a2.538,2.538,0,0,0,.365,1.507,1.415,1.415,0,0,0,1.219.495,8.36,8.36,0,0,0,1.089-.112L23,162.035a4.393,4.393,0,0,1-1.437.189,2.4,2.4,0,0,1-2.01-.8,3.78,3.78,0,0,1-.629-2.364v-8.108H16.688v-1.1h2.235v-3.111Zm9.479,8.614H24.37v-1.134H29.75Zm1.864.46a7.315,7.315,0,0,1,1.263-4.52,4.076,4.076,0,0,1,3.431-1.668,4.226,4.226,0,0,1,3.773,1.977l.067-1.752h1.258v11.9a5.146,5.146,0,0,1-1.314,3.717,4.7,4.7,0,0,1-3.56,1.37,5.407,5.407,0,0,1-2.42-.567,4.7,4.7,0,0,1-1.814-1.51l.752-.809a4.258,4.258,0,0,0,3.392,1.752,3.449,3.449,0,0,0,2.628-.994,3.96,3.96,0,0,0,.977-2.757v-1.527a4.343,4.343,0,0,1-3.762,1.8,4.052,4.052,0,0,1-3.392-1.685,7.34,7.34,0,0,1-1.28-4.548Zm1.359.236a6.337,6.337,0,0,0,.932,3.667,3.015,3.015,0,0,0,2.628,1.342,3.591,3.591,0,0,0,3.515-2.224v-5.649a3.833,3.833,0,0,0-1.359-1.78,3.665,3.665,0,0,0-2.134-.612,3.051,3.051,0,0,0-2.639,1.331A6.772,6.772,0,0,0,32.973,156.048Zm16.644,6.177a5.275,5.275,0,0,1-2.8-.764,5.2,5.2,0,0,1-1.948-2.128,6.635,6.635,0,0,1-.7-3.06v-.483a7.15,7.15,0,0,1,.679-3.156,5.406,5.406,0,0,1,1.892-2.207,4.668,4.668,0,0,1,2.628-.8,4.387,4.387,0,0,1,3.51,1.51,6.127,6.127,0,0,1,1.3,4.127v.752h-8.67v.258a5.088,5.088,0,0,0,1.185,3.442,3.769,3.769,0,0,0,2.982,1.376,4.379,4.379,0,0,0,1.9-.393,4.222,4.222,0,0,0,1.5-1.258l.842.64A4.9,4.9,0,0,1,49.616,162.225Zm-.247-11.455a3.36,3.36,0,0,0-2.555,1.112,5.136,5.136,0,0,0-1.263,2.987h7.289v-.146a4.459,4.459,0,0,0-1-2.853A3.1,3.1,0,0,0,49.369,150.77Zm8.7-.921.045,2.078a4.825,4.825,0,0,1,1.707-1.713,4.436,4.436,0,0,1,2.257-.59,3.645,3.645,0,0,1,2.909,1.1,4.964,4.964,0,0,1,.966,3.3V162H64.62v-7.985a3.712,3.712,0,0,0-.691-2.426,2.706,2.706,0,0,0-2.173-.8,3.4,3.4,0,0,0-2.207.781,4.572,4.572,0,0,0-1.421,2.106V162H56.792V149.849Zm26.717,6.2a7.318,7.318,0,0,1-1.258,4.509,4.006,4.006,0,0,1-3.369,1.668,4.5,4.5,0,0,1-3.818-1.752v6.2H75.008V149.849h1.247l.067,1.718a4.312,4.312,0,0,1,3.807-1.943,4.042,4.042,0,0,1,3.42,1.651,7.48,7.48,0,0,1,1.241,4.582Zm-1.348-.236a6.25,6.25,0,0,0-.955-3.672,3.078,3.078,0,0,0-2.662-1.348,3.546,3.546,0,0,0-3.481,2.325v5.829a3.568,3.568,0,0,0,1.381,1.595,3.983,3.983,0,0,0,2.123.55,3.05,3.05,0,0,0,2.645-1.353A6.8,6.8,0,0,0,83.442,155.812ZM89.271,162H87.923V144.75h1.348Zm11.32,0a6.355,6.355,0,0,1-.258-1.7,4.686,4.686,0,0,1-1.8,1.421,5.52,5.52,0,0,1-2.319.5,4.073,4.073,0,0,1-2.836-.977,3.183,3.183,0,0,1-1.084-2.471,3.252,3.252,0,0,1,1.477-2.808,7.1,7.1,0,0,1,4.116-1.033h2.437v-1.381a2.662,2.662,0,0,0-.8-2.05,3.319,3.319,0,0,0-2.342-.747,3.665,3.665,0,0,0-2.325.719,2.136,2.136,0,0,0-.921,1.729l-1.348-.011a3.125,3.125,0,0,1,1.348-2.51,5.189,5.189,0,0,1,3.313-1.061,4.733,4.733,0,0,1,3.206,1.016,3.647,3.647,0,0,1,1.207,2.836v5.75a7.132,7.132,0,0,0,.371,2.639V162Zm-4.223-.966a4.512,4.512,0,0,0,2.409-.651,3.833,3.833,0,0,0,1.544-1.741v-2.673h-2.4a6.022,6.022,0,0,0-3.145.736,2.208,2.208,0,0,0-1.134,1.96,2.172,2.172,0,0,0,.758,1.7A2.856,2.856,0,0,0,96.369,161.034Zm12.556-.966,3.549-10.22h1.449l-5.188,14.218-.27.629a3.263,3.263,0,0,1-3.088,2.212,3.77,3.77,0,0,1-1.033-.157l-.011-1.112.7.067a2.488,2.488,0,0,0,1.6-.489,3.708,3.708,0,0,0,1.039-1.679l.6-1.64-4.582-12.05h1.471Zm11.635,2.156a5.275,5.275,0,0,1-2.8-.764,5.2,5.2,0,0,1-1.948-2.128,6.635,6.635,0,0,1-.7-3.06v-.483a7.15,7.15,0,0,1,.679-3.156,5.406,5.406,0,0,1,1.892-2.207,4.668,4.668,0,0,1,2.628-.8,4.387,4.387,0,0,1,3.51,1.51,6.127,6.127,0,0,1,1.3,4.127v.752h-8.67v.258a5.088,5.088,0,0,0,1.185,3.442,3.769,3.769,0,0,0,2.982,1.376,4.379,4.379,0,0,0,1.9-.393,4.222,4.222,0,0,0,1.5-1.258l.842.64A4.9,4.9,0,0,1,120.559,162.225Zm-.247-11.455a3.36,3.36,0,0,0-2.555,1.112,5.136,5.136,0,0,0-1.263,2.987h7.289v-.146a4.459,4.459,0,0,0-1-2.853A3.1,3.1,0,0,0,120.312,150.77Zm13.039.225a5.019,5.019,0,0,0-.91-.079,3.282,3.282,0,0,0-2.128.7,3.844,3.844,0,0,0-1.241,2.038V162h-1.336V149.849h1.314l.022,1.932a3.574,3.574,0,0,1,3.425-2.156,2.21,2.21,0,0,1,.887.146Zm9.4,7.917a1.915,1.915,0,0,0-.8-1.606,6.193,6.193,0,0,0-2.42-.949,10.919,10.919,0,0,1-2.51-.786,3.344,3.344,0,0,1-1.325-1.084,2.7,2.7,0,0,1-.432-1.55,2.891,2.891,0,0,1,1.2-2.375,4.854,4.854,0,0,1,3.077-.938,5,5,0,0,1,3.262,1.005,3.226,3.226,0,0,1,1.23,2.622h-1.348a2.176,2.176,0,0,0-.893-1.774,4.03,4.03,0,0,0-4.38-.118,1.819,1.819,0,0,0-.8,1.533,1.657,1.657,0,0,0,.668,1.409,7.068,7.068,0,0,0,2.437.915,11.454,11.454,0,0,1,2.65.887,3.433,3.433,0,0,1,1.308,1.134,3.119,3.119,0,0,1-.814,4.065,5.3,5.3,0,0,1-3.24.921,5.443,5.443,0,0,1-3.442-1.028,3.163,3.163,0,0,1-1.32-2.6H136.2a2.337,2.337,0,0,0,.994,1.836,4.063,4.063,0,0,0,2.42.657,3.819,3.819,0,0,0,2.269-.618A1.854,1.854,0,0,0,142.75,158.912Zm-228.624,52.5H-93.3L-94.982,216H-96.43l6.188-16.352h1.314L-82.74,216h-1.437Zm-7-1.168h6.559l-3.279-8.906ZM-79.686,216V204.949H-81.7v-1.1h2.01v-1.471a4,4,0,0,1,.949-2.864,3.472,3.472,0,0,1,2.645-1,5.176,5.176,0,0,1,1.426.189l-.1,1.114a5.241,5.241,0,0,0-1.224-.135,2.2,2.2,0,0,0-1.729.693,2.855,2.855,0,0,0-.618,1.965v1.509h2.9v1.1h-2.9V216Zm7.614,0V204.949h-2.01v-1.1h2.01v-1.471a4,4,0,0,1,.949-2.864,3.472,3.472,0,0,1,2.645-1,5.176,5.176,0,0,1,1.426.189l-.1,1.114a5.241,5.241,0,0,0-1.224-.135,2.2,2.2,0,0,0-1.729.693,2.855,2.855,0,0,0-.618,1.965v1.509h2.9v1.1h-2.9V216Zm5.907-6.255a7.15,7.15,0,0,1,.679-3.156,5.179,5.179,0,0,1,1.92-2.184,5.173,5.173,0,0,1,2.813-.781,5,5,0,0,1,3.931,1.7,6.556,6.556,0,0,1,1.5,4.509v.281A7.213,7.213,0,0,1-56,213.288a5.073,5.073,0,0,1-1.915,2.173,5.25,5.25,0,0,1-2.819.764,5,5,0,0,1-3.925-1.7,6.541,6.541,0,0,1-1.51-4.509Zm1.348.371a5.514,5.514,0,0,0,1.129,3.577,3.62,3.62,0,0,0,2.959,1.4,3.609,3.609,0,0,0,2.948-1.4A5.7,5.7,0,0,0-56.652,210v-.258a6.181,6.181,0,0,0-.517-2.549,4.151,4.151,0,0,0-1.449-1.791,3.7,3.7,0,0,0-2.134-.635,3.591,3.591,0,0,0-2.931,1.409,5.7,5.7,0,0,0-1.134,3.689Zm17.89-5.121a5.019,5.019,0,0,0-.91-.079,3.282,3.282,0,0,0-2.128.7,3.844,3.844,0,0,0-1.241,2.038V216h-1.336V203.849h1.314l.022,1.932a3.574,3.574,0,0,1,3.425-2.156,2.21,2.21,0,0,1,.887.146Zm1.37,4.818a7.324,7.324,0,0,1,1.263-4.509,4.066,4.066,0,0,1,3.431-1.679,4.226,4.226,0,0,1,3.751,1.943V198.75h1.336V216h-1.258l-.056-1.617a4.34,4.34,0,0,1-3.8,1.842,4.052,4.052,0,0,1-3.386-1.69,7.362,7.362,0,0,1-1.286-4.565Zm1.359.236a6.337,6.337,0,0,0,.932,3.667,3.015,3.015,0,0,0,2.628,1.342,3.617,3.617,0,0,0,3.526-2.19v-5.705a3.59,3.59,0,0,0-3.5-2.37,3.051,3.051,0,0,0-2.639,1.331A6.772,6.772,0,0,0-44.2,210.048ZM-24.567,216a6.355,6.355,0,0,1-.258-1.7,4.686,4.686,0,0,1-1.8,1.421,5.52,5.52,0,0,1-2.319.5,4.073,4.073,0,0,1-2.836-.977,3.183,3.183,0,0,1-1.084-2.471,3.252,3.252,0,0,1,1.477-2.808,7.1,7.1,0,0,1,4.116-1.033h2.437v-1.381a2.662,2.662,0,0,0-.8-2.05,3.319,3.319,0,0,0-2.342-.747,3.665,3.665,0,0,0-2.325.719,2.136,2.136,0,0,0-.921,1.729l-1.348-.011a3.125,3.125,0,0,1,1.348-2.51,5.189,5.189,0,0,1,3.313-1.061,4.733,4.733,0,0,1,3.206,1.016,3.647,3.647,0,0,1,1.207,2.836v5.75a7.132,7.132,0,0,0,.371,2.639V216Zm-4.223-.966a4.512,4.512,0,0,0,2.409-.651,3.833,3.833,0,0,0,1.544-1.741v-2.673h-2.4a6.022,6.022,0,0,0-3.145.736,2.208,2.208,0,0,0-1.134,1.96,2.172,2.172,0,0,0,.758,1.7A2.856,2.856,0,0,0-28.789,215.034Zm18.654-4.986a7.318,7.318,0,0,1-1.258,4.509,4.017,4.017,0,0,1-3.38,1.668,4.367,4.367,0,0,1-3.841-1.887L-18.671,216h-1.258V198.75h1.336v6.862a4.224,4.224,0,0,1,3.8-1.988,4.054,4.054,0,0,1,3.408,1.645,7.405,7.405,0,0,1,1.252,4.576Zm-1.348-.236a6.33,6.33,0,0,0-.932-3.712,3.039,3.039,0,0,0-2.628-1.308,3.7,3.7,0,0,0-2.19.635,3.858,3.858,0,0,0-1.359,1.859v5.48a3.6,3.6,0,0,0,3.571,2.291,3.017,3.017,0,0,0,2.6-1.314A6.766,6.766,0,0,0-11.483,209.812ZM-5.666,216H-7.013V198.75h1.348Zm8.355.225a5.275,5.275,0,0,1-2.8-.764,5.2,5.2,0,0,1-1.948-2.128,6.635,6.635,0,0,1-.7-3.06v-.483a7.15,7.15,0,0,1,.679-3.156,5.406,5.406,0,0,1,1.892-2.207,4.668,4.668,0,0,1,2.628-.8,4.387,4.387,0,0,1,3.51,1.51,6.127,6.127,0,0,1,1.3,4.127v.752h-8.67v.258a5.088,5.088,0,0,0,1.185,3.442,3.769,3.769,0,0,0,2.982,1.376,4.379,4.379,0,0,0,1.9-.393,4.222,4.222,0,0,0,1.5-1.258l.842.64A4.9,4.9,0,0,1,2.69,216.225ZM2.443,204.77a3.36,3.36,0,0,0-2.555,1.112,5.136,5.136,0,0,0-1.263,2.987H5.913v-.146a4.459,4.459,0,0,0-1-2.853A3.1,3.1,0,0,0,2.443,204.77Zm20.293,8.142a1.915,1.915,0,0,0-.8-1.606,6.193,6.193,0,0,0-2.42-.949,10.919,10.919,0,0,1-2.51-.786,3.344,3.344,0,0,1-1.325-1.084,2.7,2.7,0,0,1-.432-1.55,2.891,2.891,0,0,1,1.2-2.375,4.854,4.854,0,0,1,3.077-.938,5,5,0,0,1,3.262,1.005,3.226,3.226,0,0,1,1.23,2.622H22.669a2.176,2.176,0,0,0-.893-1.774,3.513,3.513,0,0,0-2.252-.708,3.514,3.514,0,0,0-2.128.59,1.819,1.819,0,0,0-.8,1.533,1.657,1.657,0,0,0,.668,1.409,7.068,7.068,0,0,0,2.437.915,11.454,11.454,0,0,1,2.65.887,3.433,3.433,0,0,1,1.308,1.134,3.119,3.119,0,0,1-.814,4.065,5.3,5.3,0,0,1-3.24.921,5.443,5.443,0,0,1-3.442-1.028,3.163,3.163,0,0,1-1.32-2.6h1.348a2.337,2.337,0,0,0,.994,1.836,4.063,4.063,0,0,0,2.42.657,3.819,3.819,0,0,0,2.269-.618A1.854,1.854,0,0,0,22.736,212.912Zm9.074,3.313a5.275,5.275,0,0,1-2.8-.764,5.2,5.2,0,0,1-1.948-2.128,6.635,6.635,0,0,1-.7-3.06v-.483a7.15,7.15,0,0,1,.679-3.156,5.406,5.406,0,0,1,1.892-2.207,4.668,4.668,0,0,1,2.628-.8,4.387,4.387,0,0,1,3.51,1.51,6.127,6.127,0,0,1,1.3,4.127v.752H27.7v.258a5.088,5.088,0,0,0,1.185,3.442,3.769,3.769,0,0,0,2.982,1.376,4.379,4.379,0,0,0,1.9-.393,4.222,4.222,0,0,0,1.5-1.258l.842.64A4.9,4.9,0,0,1,31.81,216.225Zm-.247-11.455a3.36,3.36,0,0,0-2.555,1.112,5.136,5.136,0,0,0-1.263,2.987h7.289v-.146a4.459,4.459,0,0,0-1-2.853A3.1,3.1,0,0,0,31.563,204.77Zm13.039.225a5.019,5.019,0,0,0-.91-.079,3.282,3.282,0,0,0-2.128.7,3.844,3.844,0,0,0-1.241,2.038V216H38.987V203.849H40.3l.022,1.932a3.574,3.574,0,0,1,3.425-2.156,2.21,2.21,0,0,1,.887.146Zm6.109,9.153,3.695-10.3h1.381L51.25,216H50.161L45.6,203.849h1.381ZM59.493,216H58.146V203.849h1.348ZM57.91,200.339a.9.9,0,0,1,.247-.642.881.881,0,0,1,.674-.262.9.9,0,0,1,.679.262.89.89,0,0,1,.253.642.871.871,0,0,1-.253.636.91.91,0,0,1-.679.257.891.891,0,0,1-.674-.257A.882.882,0,0,1,57.91,200.339Zm9.726,14.751a3.549,3.549,0,0,0,2.353-.792,2.786,2.786,0,0,0,1.028-2.05h1.292a3.8,3.8,0,0,1-.7,2.027,4.362,4.362,0,0,1-1.7,1.432,5.128,5.128,0,0,1-2.274.517,4.694,4.694,0,0,1-3.79-1.662,6.719,6.719,0,0,1-1.4-4.47v-.4a7.6,7.6,0,0,1,.629-3.178,4.847,4.847,0,0,1,1.8-2.134,4.976,4.976,0,0,1,2.746-.752,4.686,4.686,0,0,1,3.3,1.19,4.341,4.341,0,0,1,1.387,3.133H71.016a3.252,3.252,0,0,0-3.392-3.178,3.351,3.351,0,0,0-2.824,1.314,5.945,5.945,0,0,0-1.005,3.684v.393a5.812,5.812,0,0,0,1.005,3.627A3.374,3.374,0,0,0,67.635,215.09ZM79.7,216.225a5.275,5.275,0,0,1-2.8-.764,5.2,5.2,0,0,1-1.948-2.128,6.635,6.635,0,0,1-.7-3.06v-.483a7.15,7.15,0,0,1,.679-3.156,5.406,5.406,0,0,1,1.892-2.207,4.668,4.668,0,0,1,2.628-.8,4.387,4.387,0,0,1,3.51,1.51,6.127,6.127,0,0,1,1.3,4.127v.752h-8.67v.258a5.088,5.088,0,0,0,1.185,3.442,3.769,3.769,0,0,0,2.982,1.376,4.379,4.379,0,0,0,1.9-.393,4.222,4.222,0,0,0,1.5-1.258l.842.64A4.9,4.9,0,0,1,79.7,216.225ZM79.45,204.77a3.36,3.36,0,0,0-2.555,1.112,5.136,5.136,0,0,0-1.263,2.987H82.92v-.146a4.459,4.459,0,0,0-1-2.853A3.1,3.1,0,0,0,79.45,204.77Zm14.7,8.142a1.915,1.915,0,0,0-.8-1.606,6.193,6.193,0,0,0-2.42-.949,10.919,10.919,0,0,1-2.51-.786,3.344,3.344,0,0,1-1.325-1.084,2.7,2.7,0,0,1-.432-1.55,2.891,2.891,0,0,1,1.2-2.375,4.854,4.854,0,0,1,3.077-.938,5,5,0,0,1,3.262,1.005,3.226,3.226,0,0,1,1.23,2.622H94.083a2.176,2.176,0,0,0-.893-1.774,4.03,4.03,0,0,0-4.38-.118,1.819,1.819,0,0,0-.8,1.533,1.657,1.657,0,0,0,.668,1.409,7.068,7.068,0,0,0,2.437.915,11.454,11.454,0,0,1,2.65.887,3.433,3.433,0,0,1,1.308,1.134,3.119,3.119,0,0,1-.814,4.065,5.3,5.3,0,0,1-3.24.921,5.443,5.443,0,0,1-3.442-1.028,3.163,3.163,0,0,1-1.32-2.6H87.6a2.337,2.337,0,0,0,.994,1.836,4.063,4.063,0,0,0,2.42.657,3.819,3.819,0,0,0,2.269-.618A1.854,1.854,0,0,0,94.151,212.912ZM-56.265,253.648h1.393v11.489a5.091,5.091,0,0,1-1.342,3.706,4.787,4.787,0,0,1-3.6,1.381,5.034,5.034,0,0,1-3.661-1.247,4.635,4.635,0,0,1-1.28-3.481h1.381a3.529,3.529,0,0,0,.932,2.667,3.646,3.646,0,0,0,2.628.893,3.353,3.353,0,0,0,2.544-1.033,3.984,3.984,0,0,0,1.005-2.808Zm4.38,10.1a7.151,7.151,0,0,1,.679-3.156,5.179,5.179,0,0,1,1.92-2.184,5.173,5.173,0,0,1,2.813-.781,5,5,0,0,1,3.931,1.7,6.556,6.556,0,0,1,1.5,4.509v.281a7.213,7.213,0,0,1-.679,3.173,5.073,5.073,0,0,1-1.915,2.173,5.25,5.25,0,0,1-2.819.764,5,5,0,0,1-3.925-1.7,6.541,6.541,0,0,1-1.51-4.509Zm1.348.371a5.514,5.514,0,0,0,1.129,3.577,3.62,3.62,0,0,0,2.959,1.4,3.609,3.609,0,0,0,2.948-1.4A5.7,5.7,0,0,0-42.373,264v-.258a6.181,6.181,0,0,0-.517-2.549,4.151,4.151,0,0,0-1.449-1.791,3.7,3.7,0,0,0-2.134-.635,3.591,3.591,0,0,0-2.931,1.409,5.7,5.7,0,0,0-1.134,3.689Zm22.057-.067a7.318,7.318,0,0,1-1.258,4.509,4.017,4.017,0,0,1-3.38,1.668,4.367,4.367,0,0,1-3.841-1.887L-37.016,270h-1.258V252.75h1.336v6.862a4.224,4.224,0,0,1,3.8-1.988,4.054,4.054,0,0,1,3.408,1.645,7.405,7.405,0,0,1,1.252,4.576Zm-1.348-.236a6.33,6.33,0,0,0-.932-3.712,3.039,3.039,0,0,0-2.628-1.308,3.7,3.7,0,0,0-2.19.635,3.858,3.858,0,0,0-1.359,1.859v5.48a3.6,3.6,0,0,0,3.571,2.291,3.017,3.017,0,0,0,2.6-1.314A6.766,6.766,0,0,0-29.828,263.812Zm14.4,5.278a3.549,3.549,0,0,0,2.353-.792,2.786,2.786,0,0,0,1.028-2.05h1.292a3.8,3.8,0,0,1-.7,2.027,4.362,4.362,0,0,1-1.7,1.432,5.128,5.128,0,0,1-2.274.517,4.694,4.694,0,0,1-3.79-1.662,6.719,6.719,0,0,1-1.4-4.47v-.4a7.6,7.6,0,0,1,.629-3.178,4.846,4.846,0,0,1,1.8-2.134,4.976,4.976,0,0,1,2.746-.752,4.686,4.686,0,0,1,3.3,1.19,4.341,4.341,0,0,1,1.387,3.133H-12.05a3.3,3.3,0,0,0-1.028-2.3,3.327,3.327,0,0,0-2.364-.876,3.351,3.351,0,0,0-2.824,1.314,5.945,5.945,0,0,0-1.005,3.684v.393a5.812,5.812,0,0,0,1.005,3.627A3.374,3.374,0,0,0-15.431,269.09Zm12.971-10.1a5.02,5.02,0,0,0-.91-.079,3.282,3.282,0,0,0-2.128.7,3.844,3.844,0,0,0-1.241,2.038V270H-8.075V257.849h1.314l.022,1.932a3.574,3.574,0,0,1,3.425-2.156,2.21,2.21,0,0,1,.887.146Zm6.615,11.23a5.275,5.275,0,0,1-2.8-.764A5.2,5.2,0,0,1-.6,267.333a6.635,6.635,0,0,1-.7-3.06v-.483a7.151,7.151,0,0,1,.679-3.156,5.405,5.405,0,0,1,1.892-2.207,4.668,4.668,0,0,1,2.628-.8,4.388,4.388,0,0,1,3.51,1.51,6.127,6.127,0,0,1,1.3,4.127v.752H.045v.258a5.088,5.088,0,0,0,1.185,3.442,3.769,3.769,0,0,0,2.982,1.376,4.379,4.379,0,0,0,1.9-.393,4.222,4.222,0,0,0,1.5-1.258l.842.64A4.9,4.9,0,0,1,4.155,270.225ZM3.908,258.77a3.36,3.36,0,0,0-2.555,1.112A5.136,5.136,0,0,0,.09,262.869H7.378v-.146a4.459,4.459,0,0,0-1-2.853A3.1,3.1,0,0,0,3.908,258.77ZM19,270a6.356,6.356,0,0,1-.258-1.7,4.686,4.686,0,0,1-1.8,1.421,5.521,5.521,0,0,1-2.319.5,4.073,4.073,0,0,1-2.836-.977,3.183,3.183,0,0,1-1.084-2.471,3.252,3.252,0,0,1,1.477-2.808,7.1,7.1,0,0,1,4.116-1.033h2.437v-1.381a2.662,2.662,0,0,0-.8-2.05,3.319,3.319,0,0,0-2.342-.747,3.665,3.665,0,0,0-2.325.719,2.136,2.136,0,0,0-.921,1.729l-1.348-.011a3.125,3.125,0,0,1,1.348-2.51,5.189,5.189,0,0,1,3.313-1.061,4.733,4.733,0,0,1,3.206,1.016,3.647,3.647,0,0,1,1.207,2.836v5.75a7.132,7.132,0,0,0,.371,2.639V270Zm-4.223-.966a4.512,4.512,0,0,0,2.409-.651,3.833,3.833,0,0,0,1.544-1.741v-2.673h-2.4a6.022,6.022,0,0,0-3.145.736,2.208,2.208,0,0,0-1.134,1.96,2.173,2.173,0,0,0,.758,1.7A2.856,2.856,0,0,0,14.779,269.034Zm10.961-14.3v3.111h2.516v1.1H25.74v8.106a2.538,2.538,0,0,0,.365,1.507,1.415,1.415,0,0,0,1.219.495,8.363,8.363,0,0,0,1.089-.112l.056,1.091a4.393,4.393,0,0,1-1.437.189,2.4,2.4,0,0,1-2.01-.8,3.78,3.78,0,0,1-.629-2.364v-8.108H22.158v-1.1h2.235v-3.111ZM32.546,270H31.2V257.849h1.348Zm-1.583-15.661a.9.9,0,0,1,.247-.642.881.881,0,0,1,.674-.262.9.9,0,0,1,.679.262.89.89,0,0,1,.253.642.871.871,0,0,1-.253.636.91.91,0,0,1-.679.257.891.891,0,0,1-.674-.257A.882.882,0,0,1,30.962,254.339Zm4.492,9.406a7.151,7.151,0,0,1,.679-3.156,5.1,5.1,0,0,1,4.734-2.965,5,5,0,0,1,3.931,1.7,6.556,6.556,0,0,1,1.5,4.509v.281a7.213,7.213,0,0,1-.679,3.173,5.073,5.073,0,0,1-1.915,2.173,5.25,5.25,0,0,1-2.819.764,5,5,0,0,1-3.925-1.7,6.541,6.541,0,0,1-1.51-4.509Zm1.348.371a5.514,5.514,0,0,0,1.129,3.577,3.819,3.819,0,0,0,5.907,0A5.7,5.7,0,0,0,44.967,264v-.258a6.181,6.181,0,0,0-.517-2.549A4.151,4.151,0,0,0,43,259.4a3.7,3.7,0,0,0-2.134-.635,3.591,3.591,0,0,0-2.931,1.409,5.7,5.7,0,0,0-1.134,3.689Zm13.555-6.267.045,2.078a4.825,4.825,0,0,1,1.707-1.713,4.436,4.436,0,0,1,2.257-.59,3.645,3.645,0,0,1,2.909,1.1,4.964,4.964,0,0,1,.966,3.3V270H56.9v-7.985a3.712,3.712,0,0,0-.691-2.426,2.706,2.706,0,0,0-2.173-.8,3.4,3.4,0,0,0-2.207.781,4.573,4.573,0,0,0-1.421,2.106V270H49.077V257.849Z" transform="translate(16052 -7216.5)" fill="#fff"/>
    <line id="Line_67" data-name="Line 67" x2="277.44" transform="translate(15917.164 -7197.423)" fill="none" stroke="#fff" stroke-width="0.5"/>
    <line id="Line_69" data-name="Line 69" x2="277.44" transform="translate(15917.164 -7140.702)" fill="none" stroke="#fff" stroke-width="0.5"/>
    <line id="Line_71" data-name="Line 71" x2="277.44" transform="translate(15917.164 -7083.981)" fill="none" stroke="#fff" stroke-width="0.5"/>
    <line id="Line_73" data-name="Line 73" x2="277.44" transform="translate(15917.164 -7033.426)" fill="none" stroke="#fff" stroke-width="0.5"/>
    <line id="Line_74" data-name="Line 74" x2="277.44" transform="translate(15917.164 -6982.87)" fill="none" stroke="#fff" stroke-width="0.5"/>
    <g id="Layer_1" transform="translate(15921.736 -7588.53)">
      <g id="Group_465" data-name="Group 465" transform="translate(21.12 183.405)">
        <path id="Path_5285" data-name="Path 5285" d="M126.488,561.839,52.37,496.708l-.77,2.023,74.8,65.8,135.632-64.2,1.3-2.494Z" transform="translate(-42.954 -407.838)" opacity="0.2"/>
        <g id="Group_384" data-name="Group 384" transform="translate(9.521 23.478)">
          <g id="Group_382" data-name="Group 382">
            <path id="Path_5286" data-name="Path 5286" d="M128.8,395.852,54.686,330.722l134.53-64.547,76.319,65.139Z" transform="translate(-54.686 -266.175)" fill="#d8d8d8"/>
          </g>
          <g id="Group_383" data-name="Group 383" transform="translate(74.119 65.139)">
            <path id="Path_5287" data-name="Path 5287" d="M452.716,497.2l-136.729,64.54v-1.382l136.73-64.538C453.175,495.812,453.254,496.921,452.716,497.2Z" transform="translate(-315.986 -495.817)" fill="#7b7b7b"/>
          </g>
        </g>
        <g id="Group_385" data-name="Group 385" transform="translate(179.191 76.059)">
          <path id="Path_5288" data-name="Path 5288" d="M670.851,465.182c.363.319.067.781-.665,1.031a2.3,2.3,0,0,1-1.981-.128l-8.04-7.046-7.178-6.313c-.348-.32-.045-.777.679-1.025a2.329,2.329,0,0,1,1.974.121l7.178,6.313Z" transform="translate(-652.843 -451.546)" fill="#7a9eb6"/>
        </g>
        <g id="Group_386" data-name="Group 386" transform="translate(173.011 78.912)">
          <path id="Path_5289" data-name="Path 5289" d="M649.064,475.238c.363.319.067.781-.665,1.031a2.3,2.3,0,0,1-1.981-.128l-8.04-7.046-7.178-6.313c-.347-.32-.045-.778.679-1.025a2.33,2.33,0,0,1,1.974.121l7.178,6.313Z" transform="translate(-631.056 -461.602)" fill="#7a9eb6"/>
        </g>
        <g id="Group_387" data-name="Group 387" transform="translate(158.274 86.043)">
          <path id="Path_5290" data-name="Path 5290" d="M597.109,500.377c.363.319.067.781-.665,1.031a2.3,2.3,0,0,1-1.981-.128l-8.04-7.046-7.178-6.313c-.347-.321-.045-.778.679-1.025a2.33,2.33,0,0,1,1.974.121l7.178,6.313Z" transform="translate(-579.101 -486.741)" fill="#7a9eb6"/>
        </g>
        <g id="Group_388" data-name="Group 388" transform="translate(153.044 88.103)">
          <path id="Path_5291" data-name="Path 5291" d="M578.673,507.64c.363.319.067.781-.665,1.031a2.3,2.3,0,0,1-1.981-.128l-8.04-7.046-7.178-6.313c-.347-.321-.045-.778.679-1.025a2.329,2.329,0,0,1,1.974.121l7.178,6.313Z" transform="translate(-560.665 -494.004)" fill="#7a9eb6"/>
        </g>
        <g id="Group_389" data-name="Group 389" transform="translate(147.498 91.114)">
          <path id="Path_5292" data-name="Path 5292" d="M559.12,518.254c.363.319.067.781-.665,1.031a2.3,2.3,0,0,1-1.981-.129l-8.04-7.046-7.178-6.313c-.347-.321-.045-.778.679-1.025a2.33,2.33,0,0,1,1.974.121l7.178,6.313Z" transform="translate(-541.113 -504.618)" fill="#7a9eb6"/>
        </g>
        <path id="Path_5293" data-name="Path 5293" d="M323.1,447.555s-.924,2.773-2.376,3.645c-1.012.607-113.065,65.6-113.065,65.6l-46.707-27.335-3.709-3.254Z" transform="translate(-118.628 -372.628)" opacity="0.2"/>
        <path id="Path_5294" data-name="Path 5294" d="M508.663,267.06,419.72,215.566c1.233.715,2,2.24,2.005,4.4a14.509,14.509,0,0,1-2.766,7.941,14.172,14.172,0,0,1-3.086,3.254,11.22,11.22,0,0,1-.994.654l88.946,51.5a10.224,10.224,0,0,0,.993-.658,14.253,14.253,0,0,0,3.087-3.252,14.571,14.571,0,0,0,2.766-7.944C510.662,269.3,509.9,267.778,508.663,267.06Z" transform="translate(-303.188 -206.443)" fill="#c6c6c6"/>
        <g id="Group_390" data-name="Group 390" transform="translate(106.524 11.181)">
          <path id="Path_5295" data-name="Path 5295" d="M485.611,275.685l-88.946-51.492,0-1.372,88.945,51.495Z" transform="translate(-396.661 -222.821)" fill="#bcbcbc"/>
        </g>
        <path id="Path_5296" data-name="Path 5296" d="M407.517,209.053c-1.466-.853-3.5-.733-5.736.559l-5.12,2.956,88.945,51.5,5.12-2.955c2.24-1.3,4.27-1.416,5.737-.561Z" transform="translate(-290.137 -201.387)" fill="#e8e8e8"/>
        <g id="Group_391" data-name="Group 391" transform="translate(0.007 25.374)">
          <path id="Path_5297" data-name="Path 5297" d="M110.09,388.832l-88.946-51.49,111.685-64.484,88.946,51.5Z" transform="translate(-21.144 -272.859)" fill="#e8e8e8"/>
        </g>
        <g id="Group_392" data-name="Group 392" transform="translate(0.007 89.858)">
          <path id="Path_5298" data-name="Path 5298" d="M110.091,553.062,21.149,501.57l-.005-1.379,88.946,51.49Z" transform="translate(-21.144 -500.191)" fill="#878787"/>
        </g>
        <g id="Group_393" data-name="Group 393" transform="translate(88.953 58.616)">
          <path id="Path_5299" data-name="Path 5299" d="M446.352,391.156c4.447-2.567,8.075-.5,8.088,4.612s-3.584,11.352-8.038,13.919L334.717,474.165v-1.382L446.4,408.306a15.132,15.132,0,0,0,6.846-11.854c-.015-4.35-3.106-6.111-6.893-3.925l-5.118,2.953-.005-1.37Z" transform="translate(-334.716 -390.052)" fill="#7b7b7b"/>
        </g>
        <g id="Group_394" data-name="Group 394" transform="translate(80.669 67.028)">
          <path id="Path_5300" data-name="Path 5300" d="M325.68,429.937c.419.242.219.753-.45,1.142a2.3,2.3,0,0,1-1.967.263L314,426.013l-8.278-4.779c-.4-.246-.2-.754.464-1.139a2.329,2.329,0,0,1,1.959-.269l8.279,4.78Z" transform="translate(-305.511 -419.707)" fill="#7a9eb6"/>
        </g>
        <g id="Group_395" data-name="Group 395" transform="translate(101.087 79.437)">
          <path id="Path_5301" data-name="Path 5301" d="M397.665,473.684c.419.241.219.752-.45,1.142a2.3,2.3,0,0,1-1.967.263l-9.268-5.329-8.278-4.779c-.4-.246-.2-.754.464-1.138a2.326,2.326,0,0,1,1.959-.269l8.279,4.779Z" transform="translate(-377.495 -463.453)" fill="#7a9eb6"/>
        </g>
        <g id="Group_396" data-name="Group 396" transform="translate(122.216 91.798)">
          <path id="Path_5302" data-name="Path 5302" d="M466.149,513.765c.418.241.219.752-.45,1.142a2.3,2.3,0,0,1-1.967.263l-9.268-5.329-2.275-1.283c-.4-.246-.2-.754.464-1.139a2.328,2.328,0,0,1,1.959-.269l2.276,1.284Z" transform="translate(-451.983 -507.031)" fill="#7a9eb6"/>
        </g>
        <g id="Group_397" data-name="Group 397" transform="translate(119.922 85.037)">
          <path id="Path_5303" data-name="Path 5303" d="M464.065,493.426c.419.242.219.753-.45,1.142a2.3,2.3,0,0,1-1.967.263L452.38,489.5l-8.278-4.78c-.4-.246-.2-.754.464-1.139a2.328,2.328,0,0,1,1.959-.269l8.279,4.78Z" transform="translate(-443.896 -483.195)" fill="#7a9eb6"/>
        </g>
        <g id="Group_398" data-name="Group 398" transform="translate(86.56 65.086)">
          <path id="Path_5304" data-name="Path 5304" d="M357.235,429.332c.591.343.535.935-.129,1.323a2.538,2.538,0,0,1-2.288.083l-16.379-9.449L326.674,414.5c-.575-.348-.517-.937.149-1.323a2.54,2.54,0,0,1,2.273-.085l11.765,6.792Z" transform="translate(-326.281 -412.859)" fill="#7a9eb6"/>
        </g>
        <g id="Group_406" data-name="Group 406" transform="translate(18.978 68.122)">
          <g id="Group_405" data-name="Group 405">
            <g id="Group_399" data-name="Group 399" transform="translate(7.825 14.29)">
              <path id="Path_5305" data-name="Path 5305" d="M146.055,474.4l-1.442,4.342-2.42.047.777-2.338c.043-.135-.037-.259-.185-.344a1.015,1.015,0,0,0-.677-.092l-19.38,3.547-7.117.3,29.581-5.895a1.02,1.02,0,0,1,.681.092C146.022,474.14,146.1,474.265,146.055,474.4Z" transform="translate(-115.612 -473.942)" fill="#0d5c9e"/>
            </g>
            <g id="Group_400" data-name="Group 400" transform="translate(31.26 20.301)">
              <path id="Path_5306" data-name="Path 5306" d="M201.253,501.579a.261.261,0,0,0-.01.126l-2.062,2.178a1.156,1.156,0,0,1-.729-.109c-.166-.1-.255-.236-.208-.386l2.728-8.2,2.421-.05Z" transform="translate(-198.232 -495.135)" fill="#0d5c9e"/>
            </g>
            <g id="Group_401" data-name="Group 401" transform="translate(87.73 33.64)">
              <path id="Path_5307" data-name="Path 5307" d="M408.99,542.929,398.7,545.922l.345-1.245.221-.8-.625-.55-1.325-1.166Z" transform="translate(-397.313 -542.162)" fill="#0d5c9e"/>
            </g>
            <g id="Group_402" data-name="Group 402" transform="translate(35.013 23.91)">
              <path id="Path_5308" data-name="Path 5308" d="M266.13,519.305l-.221.8-34.522,4.2a1.172,1.172,0,0,1-.71-.121c-.17-.1-.262-.24-.219-.394l1.374-4.773,3.217-3.61c.144-.166.071-.353-.132-.47a.952.952,0,0,0-.427-.114l-1.431-.068,1.321-4.587a.346.346,0,0,0-.213-.385,1.154,1.154,0,0,0-.713-.117l-21.991,2.958,1.522-1.609,23.386-3.143a1.144,1.144,0,0,1,.707.117c.165.095.257.233.215.382l-3.935,13.667c-.046.153.047.295.215.392a1.178,1.178,0,0,0,.71.122l31.221-3.8Z" transform="translate(-211.462 -507.858)" fill="#0d5c9e"/>
            </g>
            <g id="Group_403" data-name="Group 403" transform="translate(3.554 18.963)">
              <path id="Path_5309" data-name="Path 5309" d="M140.614,490.52c.179.1.243.27.1.414l-7.18,7.587-1.522,1.609-.492.52c-.153.161-.086.346.115.461a.931.931,0,0,0,.42.113l21.553,1.036,1.431.068a.955.955,0,0,1,.427.114c.2.117.275.3.132.47l-3.217,3.61-6.73,7.549c-.148.168-.076.356.132.476a.985.985,0,0,0,.425.118l28.814,1.738-.587-1.218,9.735,2.538-10.332.928.892-1.023-31.865-1.921a.979.979,0,0,1-.429-.115c-.207-.12-.279-.311-.128-.479l9.913-11.123c.147-.165.076-.351-.126-.467a.952.952,0,0,0-.431-.113l-23.076-1.11a.936.936,0,0,1-.419-.111c-.2-.116-.269-.3-.117-.462l1.156-1.221,2.062-2.178,5.794-6.12c.136-.145.071-.311-.107-.414a.85.85,0,0,0-.43-.1l-3.106.064-2.421.05-23.854,1.088-6.569.236c-.084,0,.079.011,0,0l2.319-1.323,4-.346,8.106-.148,16.4-.723,2.42-.047,6.352-.125A.869.869,0,0,1,140.614,490.52Z" transform="translate(-100.556 -490.419)" fill="#dc5d5d"/>
            </g>
            <g id="Group_404" data-name="Group 404">
              <path id="Path_5310" data-name="Path 5310" d="M125.939,424.372c.13.075.138.193.012.271l-31,18.594-2.1,1.262-1.237.741.909.509,64.537,36.114c.134.078.139.2.008.273l-1.288.777a.518.518,0,0,1-.476,0l-67.27-37.643.27-.161,1.482-.89,34.345-20.6a.52.52,0,0,1,.475-.006Z" transform="translate(-88.027 -423.565)" fill="#7a9eb6"/>
            </g>
          </g>
        </g>
        <g id="Group_407" data-name="Group 407" transform="translate(129.709 71.533)">
          <path id="Path_5311" data-name="Path 5311" d="M506.915,438.418c3.822,2.207,5.7,5.424,4.67,8.655l-3.759-.595c.686-2.432-.768-4.839-3.647-6.5a16.693,16.693,0,0,0-5.709-1.915c-6.868-1.084-13.937,1.256-15.789,5.23-1.248,2.676.191,5.408,3.362,7.239a15.76,15.76,0,0,0,4.326,1.647l-1.024,2.189a20.751,20.751,0,0,1-5.994-2.224c-4.124-2.38-6-5.935-4.372-9.416,2.405-5.163,11.594-8.207,20.519-6.8A21.693,21.693,0,0,1,506.915,438.418Z" transform="translate(-478.398 -435.587)" fill="#d7854e"/>
        </g>
        <g id="Group_408" data-name="Group 408" transform="translate(136.343 75.425)">
          <path id="Path_5312" data-name="Path 5312" d="M519.524,451.137c2.633,1.52,3.843,3.786,2.839,6.014-.024.053-.06.107-.086.164l-2.38-.378a1.664,1.664,0,0,0,.089-.161c.771-1.716-.162-3.458-2.189-4.628a10.822,10.822,0,0,0-3.751-1.246c-4.123-.627-8.324.654-9.82,2.9l-2.442-.374c1.861-3.008,7.414-4.744,12.862-3.911A14.04,14.04,0,0,1,519.524,451.137Z" transform="translate(-501.785 -449.311)" fill="#d94444"/>
        </g>
        <g id="Group_411" data-name="Group 411" transform="translate(102.936 57.401)">
          <g id="Group_409" data-name="Group 409" transform="translate(6.135 3.449)">
            <path id="Path_5313" data-name="Path 5313" d="M424.023,399.755a7.945,7.945,0,0,1,1.994,1.586c2.585,2.922.817,6.458-3.908,8.147l-1.147-1.3c3.524-1.319,4.816-4,2.853-6.213a6.12,6.12,0,0,0-1.536-1.221,13.1,13.1,0,0,0-9.635-.88c-3.783,1.117-5.439,3.7-3.969,5.956l-2.244.661c-2.076-2.966.064-6.407,5.068-7.884A17.026,17.026,0,0,1,424.023,399.755Z" transform="translate(-405.642 -397.927)" fill="#386b8e"/>
          </g>
          <g id="Group_410" data-name="Group 410">
            <path id="Path_5314" data-name="Path 5314" d="M412.535,388.6c3.822,2.207,5.7,5.424,4.671,8.656l-3.761-.6c.685-2.433-.766-4.837-3.643-6.5a16.7,16.7,0,0,0-5.712-1.914c-6.87-1.085-13.932,1.255-15.787,5.229-1.248,2.677.19,5.41,3.362,7.242a15.742,15.742,0,0,0,4.32,1.645l-1.02,2.188a20.767,20.767,0,0,1-6-2.224c-4.123-2.381-5.994-5.934-4.369-9.415,2.407-5.167,11.6-8.208,20.519-6.8A21.709,21.709,0,0,1,412.535,388.6Z" transform="translate(-384.014 -385.769)" fill="#119082"/>
          </g>
        </g>
        <g id="Group_412" data-name="Group 412" transform="translate(0 25.361)" opacity="0.2">
          <path id="Path_5315" data-name="Path 5315" d="M110.066,388.786,21.12,337.3,132.8,272.813l88.947,51.5Z" transform="translate(-21.12 -272.813)" fill="#e8e8e8"/>
        </g>
        <g id="Group_417" data-name="Group 417" transform="translate(105.619 14.992)">
          <path id="Path_5316" data-name="Path 5316" d="M415.231,329.05l-.291.852-10.419,6.2-10.7-6.1-.239-.882Z" transform="translate(-393.552 -302.729)" opacity="0.2"/>
          <g id="Group_416" data-name="Group 416">
            <g id="Group_413" data-name="Group 413" transform="translate(10.798 6.234)">
              <path id="Path_5317" data-name="Path 5317" d="M431.591,264.542l10.848-6.3-.052,20.1-10.848,6.3Z" transform="translate(-431.539 -258.238)" fill="#1a6789"/>
            </g>
            <g id="Group_414" data-name="Group 414" transform="translate(0.052)">
              <path id="Path_5318" data-name="Path 5318" d="M393.652,242.563l10.848-6.3,10.8,6.234-10.848,6.3Z" transform="translate(-393.652 -236.259)" fill="#347da5"/>
            </g>
            <g id="Group_415" data-name="Group 415" transform="translate(0 6.304)">
              <path id="Path_5319" data-name="Path 5319" d="M404.32,264.719l-.052,20.1-10.8-6.235.052-20.1Z" transform="translate(-393.47 -258.485)" fill="#3598db"/>
            </g>
          </g>
        </g>
        <g id="Group_419" data-name="Group 419" transform="translate(119.827 10.125)">
          <path id="Path_5320" data-name="Path 5320" d="M465.206,360.684l-.291.852-10.419,6.2-10.7-6.1-.239-.882Z" transform="translate(-443.56 -320.523)" opacity="0.2"/>
          <g id="Group_418" data-name="Group 418" transform="translate(0.015)">
            <path id="Path_5321" data-name="Path 5321" d="M481.775,247.385l10.848-6.3-.1,33.938-10.848,6.305Z" transform="translate(-470.882 -234.846)" fill="#1fb2a3"/>
            <path id="Path_5322" data-name="Path 5322" d="M443.953,225.405,454.8,219.1l10.8,6.235-10.848,6.3Z" transform="translate(-443.857 -219.1)" fill="#2dbaa9"/>
            <path id="Path_5323" data-name="Path 5323" d="M454.508,247.562l-.1,33.94-10.8-6.235.1-33.938Z" transform="translate(-443.614 -235.024)" fill="#49eae2"/>
          </g>
        </g>
        <g id="Group_424" data-name="Group 424" transform="translate(133.486 10.836)">
          <path id="Path_5324" data-name="Path 5324" d="M513.366,387.825l-.291.852-10.42,6.2-10.7-6.1-.239-.882Z" transform="translate(-491.718 -340.676)" opacity="0.2"/>
          <g id="Group_423" data-name="Group 423">
            <g id="Group_420" data-name="Group 420" transform="translate(10.798 6.234)">
              <path id="Path_5325" data-name="Path 5325" d="M529.9,249.888l10.847-6.3-.117,40.918-10.848,6.3Z" transform="translate(-529.779 -243.585)" fill="#bc6a11"/>
            </g>
            <g id="Group_421" data-name="Group 421" transform="translate(0.115)">
              <path id="Path_5326" data-name="Path 5326" d="M492.12,227.91l10.848-6.3,10.8,6.234-10.847,6.3Z" transform="translate(-492.12 -221.606)" fill="#d7841b"/>
            </g>
            <g id="Group_422" data-name="Group 422" transform="translate(0 6.304)">
              <path id="Path_5327" data-name="Path 5327" d="M502.627,250.064l-.117,40.918-10.8-6.234.115-40.918Z" transform="translate(-491.713 -243.83)" fill="#ffae0d"/>
            </g>
          </g>
        </g>
        <g id="Group_429" data-name="Group 429" transform="translate(147.42 6.334)">
          <path id="Path_5328" data-name="Path 5328" d="M562.482,413.965l-.291.852-10.3,6.517-10.776-6.259-.279-1.04Z" transform="translate(-540.836 -354.9)" opacity="0.2"/>
          <g id="Group_428" data-name="Group 428" transform="translate(0.008)">
            <g id="Group_425" data-name="Group 425" transform="translate(10.799 6.234)">
              <path id="Path_5329" data-name="Path 5329" d="M579.083,234.017l10.847-6.3-.149,52.865-10.848,6.3Z" transform="translate(-578.934 -227.712)" fill="#a52525"/>
            </g>
            <g id="Group_426" data-name="Group 426" transform="translate(0.151)">
              <path id="Path_5330" data-name="Path 5330" d="M541.4,212.039l10.847-6.3,10.8,6.234-10.848,6.3Z" transform="translate(-541.396 -205.736)" fill="#d82e2e"/>
            </g>
            <g id="Group_427" data-name="Group 427" transform="translate(0 6.303)">
              <path id="Path_5331" data-name="Path 5331" d="M551.812,234.192l-.149,52.864-10.8-6.234.151-52.865Z" transform="translate(-540.864 -227.957)" fill="#ff4945"/>
            </g>
          </g>
        </g>
        <g id="Group_434" data-name="Group 434" transform="translate(161.286)">
          <path id="Path_5332" data-name="Path 5332" d="M611.365,440.012l-1.162,1.644-9.528,5.645-10.241-5.923-.715-1.3Z" transform="translate(-589.719 -367.224)" opacity="0.2"/>
          <g id="Group_433" data-name="Group 433" transform="translate(0.003)">
            <g id="Group_430" data-name="Group 430" transform="translate(10.796 6.234)">
              <path id="Path_5333" data-name="Path 5333" d="M627.98,211.686l10.848-6.3-.189,66.564-10.848,6.3Z" transform="translate(-627.791 -205.382)" fill="#a52525"/>
            </g>
            <g id="Group_431" data-name="Group 431" transform="translate(0.188)">
              <path id="Path_5334" data-name="Path 5334" d="M590.394,189.709l10.848-6.3,10.8,6.234-10.848,6.3Z" transform="translate(-590.394 -183.405)" fill="#d82e2e"/>
            </g>
            <g id="Group_432" data-name="Group 432" transform="translate(0 6.304)">
              <path id="Path_5335" data-name="Path 5335" d="M600.715,211.863l-.189,66.564-10.8-6.234.188-66.564Z" transform="translate(-589.73 -205.629)" fill="#ff4945"/>
            </g>
          </g>
        </g>
        <g id="Group_460" data-name="Group 460" transform="translate(41.771 44.376)">
          <path id="Path_5336" data-name="Path 5336" d="M226.759,356.6l-.345.066,0-.664a18.7,18.7,0,0,0-6.542-6.358l-.761.443,0-.9c-5.344-3.062-12.692-4.958-20.788-4.958a42.807,42.807,0,0,0-20.1,4.6l0,.892-.781-.451c-5.058,2.958-8.243,6.987-8.475,11.448l0,.582h-.022l.112,8.906c.027,4.713,3.212,9.791,8.562,12.879a34.667,34.667,0,0,0,7.464,3.142l.992-1.147,0,1.417a47.91,47.91,0,0,0,12.42,1.595,49.467,49.467,0,0,0,7.936-.631l.006-1.918,1,1.769c11.917-2.19,20.145-9.475,20.1-17.107l-.4-9.349C227.117,359.22,227.506,358.095,226.759,356.6Z" transform="translate(-168.783 -342.984)" opacity="0.25"/>
          <g id="Group_459" data-name="Group 459" transform="translate(0)">
            <g id="Group_440" data-name="Group 440" transform="translate(9.283)">
              <g id="Group_435" data-name="Group 435" transform="translate(0 4.605)">
                <path id="Path_5337" data-name="Path 5337" d="M215.261,364.223l-.028,9.719L201.1,365.8l.027-9.719Z" transform="translate(-201.104 -356.083)" fill="#7d2921"/>
              </g>
              <g id="Group_437" data-name="Group 437" transform="translate(14.128 11.562)">
                <g id="Group_436" data-name="Group 436" clip-path="url(#clip-path)">
                  <path id="Path_5338" data-name="Path 5338" d="M263.56,382.223l-.028,9.719a15.012,15.012,0,0,0-12.621-.431l.028-9.719a15.011,15.011,0,0,1,12.62.431Z" transform="translate(-250.911 -380.61)" fill="#fc3c32"/>
                </g>
              </g>
              <g id="Group_438" data-name="Group 438" transform="translate(26.749 4.958)">
                <path id="Path_5340" data-name="Path 5340" d="M309.573,357.328l-.029,9.72L295.4,375.265l.028-9.72Z" transform="translate(-295.405 -357.328)" fill="#b33b2f"/>
              </g>
              <g id="Group_439" data-name="Group 439" transform="translate(0.027)">
                <path id="Path_5341" data-name="Path 5341" d="M242.09,344.808l-14.14,8.217a15.009,15.009,0,0,0-12.62-.43l-14.129-8.14a42.807,42.807,0,0,1,20.1-4.6C229.4,339.85,236.746,341.745,242.09,344.808Z" transform="translate(-201.2 -339.85)" fill="#d82e2e"/>
              </g>
            </g>
            <g id="Group_458" data-name="Group 458" transform="translate(0 5.046)">
              <path id="Path_5342" data-name="Path 5342" d="M322.76,381.36l-.029,9.721-19.109,3.6.027-9.721Z" transform="translate(-265.26 -374.631)" fill="#30bfb1"/>
              <path id="Path_5343" data-name="Path 5343" d="M312.286,358.946a18.693,18.693,0,0,1,6.542,6.358l-19.11,3.6a5.528,5.528,0,0,0-1.585-1.711Z" transform="translate(-261.328 -358.575)" fill="#38cec3"/>
              <g id="Group_442" data-name="Group 442" transform="translate(36.779 8.613)">
                <g id="Group_441" data-name="Group 441" clip-path="url(#clip-path-2)">
                  <path id="Path_5344" data-name="Path 5344" d="M299.651,389.712l-.027,9.72a5.529,5.529,0,0,0-1.583-1.712l.026-9.719a5.528,5.528,0,0,1,1.585,1.711Z" transform="translate(-298.04 -388.001)" fill="#49eae2"/>
                </g>
              </g>
              <g id="Group_444" data-name="Group 444" transform="translate(19.859 8.127)">
                <g id="Group_443" data-name="Group 443" clip-path="url(#clip-path-3)">
                  <path id="Path_5346" data-name="Path 5346" d="M241.134,386.29l-.027,9.72a5.057,5.057,0,0,0-2.716,3.328l.027-9.72a5.062,5.062,0,0,1,2.717-3.329Z" transform="translate(-238.39 -386.29)" fill="#3598db"/>
                </g>
              </g>
              <g id="Group_445" data-name="Group 445" transform="translate(0.022 11.448)">
                <path id="Path_5348" data-name="Path 5348" d="M188.321,398l-.027,9.72-19.837-.008.029-9.719Z" transform="translate(-168.458 -397.997)" fill="#256a99"/>
              </g>
              <g id="Group_446" data-name="Group 446" transform="translate(0.051)">
                <path id="Path_5349" data-name="Path 5349" d="M191.111,365.765a5.061,5.061,0,0,0-2.717,3.329l-19.835-.008c.233-4.461,3.417-8.49,8.475-11.448Z" transform="translate(-168.559 -357.638)" fill="#2e83bd"/>
              </g>
              <g id="Group_448" data-name="Group 448" transform="translate(38.646 10.962)">
                <g id="Group_447" data-name="Group 447" clip-path="url(#clip-path-4)">
                  <path id="Path_5350" data-name="Path 5350" d="M304.836,397.382l-.027,9.719a3.3,3.3,0,0,0-.185-1.1l.027-9.719a3.309,3.309,0,0,1,.185,1.1Z" transform="translate(-304.624 -396.285)" fill="#14a797"/>
                </g>
              </g>
              <g id="Group_450" data-name="Group 450" transform="translate(0 12.03)">
                <g id="Group_449" data-name="Group 449" clip-path="url(#clip-path-5)">
                  <path id="Path_5352" data-name="Path 5352" d="M184.572,415.257l-.028,9.721a34.693,34.693,0,0,1-7.464-3.142c-5.35-3.088-8.674-7.354-8.7-12.067l.027-9.718c.026,4.713,3.351,8.977,8.7,12.066a34.675,34.675,0,0,0,7.465,3.141Z" transform="translate(-168.379 -400.05)" fill="#49eae2"/>
                </g>
              </g>
              <path id="Path_5354" data-name="Path 5354" d="M234.3,417.373l-.028,9.72-8.9,10.294.028-9.721Z" transform="translate(-209.202 -400.429)" fill="#30bfb1"/>
              <path id="Path_5355" data-name="Path 5355" d="M188.289,400.036c.008,1.411.942,2.822,2.806,3.9a11.273,11.273,0,0,0,2.45,1.019l-8.9,10.293a34.685,34.685,0,0,1-7.465-3.141c-5.349-3.089-8.674-7.353-8.7-12.066Z" transform="translate(-168.449 -388.01)" fill="#38cec3"/>
              <g id="Group_451" data-name="Group 451" transform="translate(32.282 17.267)">
                <path id="Path_5356" data-name="Path 5356" d="M288.441,429.566l-.028,9.721-6.228-11.057.029-9.719Z" transform="translate(-282.185 -418.511)" fill="#0a544c"/>
              </g>
              <g id="Group_453" data-name="Group 453" transform="translate(38.51 12.043)">
                <g id="Group_452" data-name="Group 452" clip-path="url(#clip-path-6)">
                  <path id="Path_5357" data-name="Path 5357" d="M324.649,400.1l-.03,9.72c.042,7.631-8.56,14.09-20.477,16.28l.028-9.721c11.916-2.188,20.518-8.646,20.48-16.279Z" transform="translate(-304.142 -400.096)" fill="#00bfa3"/>
                </g>
              </g>
              <g id="Group_454" data-name="Group 454" transform="translate(32.31 7.327)">
                <path id="Path_5359" data-name="Path 5359" d="M307.818,383.47a10.706,10.706,0,0,1,1.174,4.716c.038,7.632-8.564,14.091-20.48,16.279l-6.227-11.055a11.98,11.98,0,0,0,3.793-1.345c2.322-1.349,3.17-3.222,2.571-4.96Z" transform="translate(-282.285 -383.47)" fill="#059b7e"/>
              </g>
              <g id="Group_456" data-name="Group 456" transform="translate(17.152 27.51)">
                <g id="Group_455" data-name="Group 455" clip-path="url(#clip-path-7)">
                  <path id="Path_5360" data-name="Path 5360" d="M249.233,455.585l-.029,9.72a49.46,49.46,0,0,1-7.936.631,47.909,47.909,0,0,1-12.42-1.595l.029-9.718a47.964,47.964,0,0,0,12.418,1.594,49.5,49.5,0,0,0,7.938-.631Z" transform="translate(-228.848 -454.622)" fill="#ffae0d"/>
                </g>
              </g>
              <g id="Group_457" data-name="Group 457" transform="translate(17.181 17.205)">
                <path id="Path_5362" data-name="Path 5362" d="M243.03,418.509l6.274,11.053a49.469,49.469,0,0,1-7.939.631,47.965,47.965,0,0,1-12.418-1.594l8.99-10.3A16.131,16.131,0,0,0,243.03,418.509Z" transform="translate(-228.948 -418.294)" fill="#d7841b"/>
              </g>
            </g>
          </g>
        </g>
        <g id="Group_464" data-name="Group 464" transform="translate(83.623 20.009)">
          <path id="Path_5363" data-name="Path 5363" d="M383.219,513.525c-2.978.618-9.216,2.528-10.676,5.45s2.978,2.753,5.451,1.349,10.956-4.832,15.733-5,7.111-1.751.28-2.922C390.073,511.727,383.219,513.525,383.219,513.525Z" transform="translate(-356.276 -438.981)" fill="#0c0a08" opacity="0.2"/>
          <path id="Path_5364" data-name="Path 5364" d="M433.116,270.195a2.6,2.6,0,0,1,.892.646,1.223,1.223,0,0,1,.307.922,61.6,61.6,0,0,1-5.209,11.7c-1.27,2.128-5.414,8.245-5.414,8.245s-1.735,2.7-3.942.92c-1.618-1.3-1.175-6.064.374-7.3a26.181,26.181,0,0,0,5.537-5.706c1.459-2.352,4.84-9.3,4.84-9.3S431.311,269.354,433.116,270.195Z" transform="translate(-389.569 -265.339)" fill="#383736"/>
          <path id="Path_5365" data-name="Path 5365" d="M429.147,383.153a6.215,6.215,0,0,0-3.987-1.2,22.2,22.2,0,0,1-3.14-.106l1.058-10.655s5.328,7.127,5.752,8.82A11.117,11.117,0,0,1,429.147,383.153Z" transform="translate(-391.926 -337.935)" fill="#141413"/>
          <path id="Path_5366" data-name="Path 5366" d="M380.757,519.215a3.4,3.4,0,0,1-.215,2.029s-.464.348-.552.437c-.521.521-2.305,3.13-3.857,3.2-1.694.077-1.921-.6-1.737-1.425.094-.418,2.24-5.406,2.24-5.406Z" transform="translate(-357.772 -443.137)" fill="#3d3d3b"/>
          <path id="Path_5367" data-name="Path 5367" d="M374.475,523.457c-.009.038-.016.076-.022.114.068.534.527.9,1.83.844,1.594-.07,3.428-2.68,3.963-3.2.073-.072.4-.311.518-.4a3.219,3.219,0,0,0,.071-1.6l-4.121-1.164S374.569,523.039,374.475,523.457Z" transform="translate(-357.851 -443.137)" fill="#282827"/>
          <path id="Path_5368" data-name="Path 5368" d="M426.453,501.228l.46.658s5.018,2.358,5.309,2.465a.752.752,0,0,1,.5.661.543.543,0,0,1-.1.353,2.57,2.57,0,0,1-1.545.759c-1.606.389-5.987-.46-6.135-.575,0,0-.808-.285-.926-.048a2.048,2.048,0,0,0-.026.421l-1.7-.56a4.37,4.37,0,0,1-.3-1.214l-.306-2.4Z" transform="translate(-391.69 -431.086)" fill="#231f20"/>
          <g id="Group_461" data-name="Group 461" transform="translate(32.304 73.875)">
            <path id="Path_5369" data-name="Path 5369" d="M438.453,514.6a2.579,2.579,0,0,1-1.6.821c-1.936.39-6.305-.555-6.305-.555-.389-.052-.705-.068-.732.163l0,.322c.016,0,.541-.355.534-.357s4.251,1.087,6.155.875a3.04,3.04,0,0,0,1.969-.979.616.616,0,0,0,.058-.5A1.313,1.313,0,0,1,438.453,514.6Z" transform="translate(-429.811 -514.385)" fill="#3d3d3b"/>
          </g>
          <path id="Path_5370" data-name="Path 5370" d="M418.9,404.065l.585,27.718a1.44,1.44,0,0,1-.462,1.293c-.863.828-4.3,2.025-4.8.845l-2.776-29.3Z" transform="translate(-384.352 -361.483)" fill="#141413"/>
          <path id="Path_5371" data-name="Path 5371" d="M392.894,407.156l-7.67,32.493c-.07.547-.345.708-.83.831-2.8.707-3.938-.277-3.938-.277a.961.961,0,0,1-.524-.954l4.422-32.234Z" transform="translate(-361.776 -363.596)" fill="#383736"/>
          <path id="Path_5372" data-name="Path 5372" d="M395.758,333.241s.991-2.239,2.047-2.77,4.608-.689,4.608-.689,2.291,3.914,2.337,4.192,3.891,4.942,2.939,17.786c-.182,2.436-8.909,2.132-8.909,2.132Z" transform="translate(-373.113 -308.271)" fill="#dadee0"/>
          <path id="Path_5373" data-name="Path 5373" d="M400.231,305.98a1.081,1.081,0,0,1,1.236.755l.322,1.953a.592.592,0,0,1-.332.568c-.534.2-.854-.24-1.189-.732-.02-.028-.464-.762-.49-.805C399.4,307.1,399.312,306.133,400.231,305.98Z" transform="translate(-375.799 -291.207)" fill="#ffe8d9"/>
          <path id="Path_5374" data-name="Path 5374" d="M382.065,358.248l.974-9.908-1.292-7.014-.184-7.138c0,.061,5.361-.567,5.361-.567l.008,0c-.069.074-.2.215-.439.468-.035.006.837,1.016,1.942,2.789.484.775,1.89,6.742,2.638,9.488l.957,10.839a2.129,2.129,0,0,1-1.672,2.633,11.44,11.44,0,0,1-2.858-.106A40.2,40.2,0,0,1,382.065,358.248Z" transform="translate(-362.945 -311.019)" fill="#282827"/>
          <path id="Path_5375" data-name="Path 5375" d="M418.557,330.33c-1.48-2.75-2.4-4.506-3-5.051.5-.189,2.273-.86,2.294-.882a17.951,17.951,0,0,1,4.367,7.616c1.232,5.19,2.846,15.785,2.846,15.785a1.989,1.989,0,0,1-.373,1.8,16.19,16.19,0,0,1-2.115,1.476S422.579,337.81,418.557,330.33Z" transform="translate(-387.298 -304.413)" fill="#282827"/>
          <path id="Path_5376" data-name="Path 5376" d="M415.694,328.1l-.521-.81s.207.083.53.208a7.6,7.6,0,0,1,1.553,1.164l1.589,1.447c.208.4.669.636.458,1.412L418.95,333l1.094.776a2.184,2.184,0,0,1,.988,1.976l.071,5.188s-1.673-6.008-2.364-7.516A29.984,29.984,0,0,0,415.694,328.1Z" transform="translate(-387.021 -306.486)" fill="#7a797a"/>
          <path id="Path_5377" data-name="Path 5377" d="M324.151,297.3a3.354,3.354,0,0,0-.738.908,1.307,1.307,0,0,0,.031,1.284,40.129,40.129,0,0,0,8.044,9.468c3.63,2.953,8.737,6.4,8.737,6.4s.739.739,1.292-.374c.765-1.539-.135-7.075-.985-7.439a40.554,40.554,0,0,1-5.845-3.384,62.483,62.483,0,0,1-8-7.583S325.72,295.936,324.151,297.3Z" transform="translate(-321.177 -284.379)" fill="#383736"/>
          <path id="Path_5378" data-name="Path 5378" d="M396.9,330.93l-.545.922a3.212,3.212,0,0,0-.188.379,3.807,3.807,0,0,0,.059,1.117l.927,2.85c.251.549.492.706.932.669l1.537.158-.9.873c-.3.29-.536.491.09,1.514l2.705,5.026A40.582,40.582,0,0,0,399.477,336C398.4,333.564,396.9,330.93,396.9,330.93Z" transform="translate(-373.383 -309.093)" fill="#7a797a"/>
          <path id="Path_5379" data-name="Path 5379" d="M402.129,340.513a1.088,1.088,0,0,1-.1-.5l.014-.64-1.1-1.2-.416.155.015,1.56.67.48a1.036,1.036,0,0,1,.363.584s2.045,5.821-4.968,10.928c-.041.03-.954,3.2-.954,3.2s3.052-.645,3.537-1.23C405.106,346.742,402.129,340.513,402.129,340.513Z" transform="translate(-373.044 -314.282)" fill="#d81a1a"/>
          <path id="Path_5380" data-name="Path 5380" d="M403.153,321.518c-1.516,1.942-2.8-.82-4.093-2.011l-.176-5.54,4.587.812.105,2.858-.022,1.913Z" transform="translate(-375.353 -296.942)" fill="#e8c5ac"/>
          <path id="Path_5381" data-name="Path 5381" d="M389.546,289.984h0l-3.079,2.244,3.975,5.607a2.7,2.7,0,0,0,1.31.975,4.255,4.255,0,0,0,1.447.036s2.681-.46,3.528-1.695c.349-.508.107-1.2,0-1.658a13.843,13.843,0,0,0-.952-2.258l-1.5-2.971-1.4-2.235Z" transform="translate(-366.458 -278.362)" fill="#e8c5ac"/>
          <path id="Path_5382" data-name="Path 5382" d="M385.941,283.422a6.078,6.078,0,0,1,1.5.369c1,.349,1.245,1.168,1.826,2.339.213.431.468,1.049.494,1.053s-.508-.753-.792-1.214c-.7-1.142-1.5-.58-1.7-.2-.009.017-1.753,2.109-1.753,2.129,0,.062-.282-1.347-.369-1.19a2.559,2.559,0,0,0-.41,1.764,7.2,7.2,0,0,0,1.162,2.813l.351.486c.183.253.333.433.271.473a.938.938,0,0,1-.943-.123,1.15,1.15,0,0,0-1.378.127c-.532.515.915,1.581,1,1.628l.233.435c.141.317.341,1.274-.035,1.023-.635-.423-2.041-1.34-2.45-1.582-4.473-2.668-3.626-8.091,1.071-9.67.028-.009.334-.234-.144-.287a9.6,9.6,0,0,1,2.339,0C386.627,283.851,385.941,283.422,385.941,283.422Z" transform="translate(-361.827 -275.059)" fill="#77541c"/>
          <path id="Path_5383" data-name="Path 5383" d="M393.563,313.1a1.08,1.08,0,0,1,1.443.126l1.152,1.077s.235.522-.021.8c-.388.422-.475.419-1.066.349a4.484,4.484,0,0,1-1.067-.389C393.389,314.672,392.805,313.647,393.563,313.1Z" transform="translate(-371.284 -296.158)" fill="#e8c5ac"/>
          <path id="Path_5384" data-name="Path 5384" d="M413.914,330.259c-.165.272.016.474.177.639l1.01,1.023c.318.3.376-.1.325-.47l-.435-2.634c-.421-1.622-.708-1.407-.708-1.407s-.013.331-.031.779A6.173,6.173,0,0,1,413.914,330.259Z" transform="translate(-386.073 -306.565)" fill="#fff"/>
          <path id="Path_5385" data-name="Path 5385" d="M398.811,327.423a2.254,2.254,0,0,0,.247.77c1,1.432,3.594,2.2,3.594,2.2.29.059.3.2.332.67v1.746c.027.455-.214.447-.421.29,0,0-2.045-1.266-2.634-1.707-1.382-1.038-1.37-1.91-1.329-3.542C398.611,327.388,398.811,327.423,398.811,327.423Z" transform="translate(-375.14 -306.58)" fill="#fff"/>
          <path id="Path_5386" data-name="Path 5386" d="M327.063,296.39s-.123-.509-.415-.509-.93.069-1.93,1.054a3.236,3.236,0,0,0-.631.961c-.085.192-.208.673-.008.831.146.115.359.178.846.061a3.346,3.346,0,0,0,1.984-1.523C326.986,296.974,327.063,296.39,327.063,296.39Z" transform="translate(-321.689 -283.986)" fill="#cadee0"/>
          <path id="Path_5387" data-name="Path 5387" d="M327.2,296.625s.319.712-.85,1.8a2.827,2.827,0,0,1-1.409.846,1.139,1.139,0,0,1-.614-.023l.455.508s.625.231,1.612-.478c1.463-1.053,1.14-2.192,1.14-2.192Z" transform="translate(-321.944 -284.519)" fill="#f5f5f5"/>
          <g id="Group_462" data-name="Group 462" transform="translate(0 7.985)">
            <path id="Path_5388" data-name="Path 5388" d="M320.256,287.233l.448-.568-.459-1.715-1.086-.929a1.481,1.481,0,0,1-.446-.78c-.054-.212-.144-.582-.144-.582s-.92-1.11-1.428-.212a1.306,1.306,0,0,0-.136.656c-.261.349-.632,1-.9,1.406-.617.944.56,1.819.56,1.819l1.068.951A1.8,1.8,0,0,0,320.256,287.233Z" transform="translate(-315.926 -282.097)" fill="#e8c5ac"/>
            <path id="Path_5389" data-name="Path 5389" d="M327.015,298.905l-.878-1.914,2.031-1.313.686,1.163Z" transform="translate(-323.241 -291.826)" fill="#e8c5ac"/>
            <path id="Path_5390" data-name="Path 5390" d="M326.8,286.439a1.563,1.563,0,0,1-.005-1.948c.125-.165-1-1.566-.437-2.2,0,0,.356.306.962.864a1.962,1.962,0,0,1,.776,1.057c.365,1.669.483,1.926.121,2.4S327.342,286.907,326.8,286.439Z" transform="translate(-323.281 -282.234)" fill="#e8c5ac"/>
          </g>
          <g id="Group_463" data-name="Group 463" transform="translate(40.574)">
            <path id="Path_5391" data-name="Path 5391" d="M460.539,271.174s-.085-.5.174-.617a2.631,2.631,0,0,1,2.108.184,3.131,3.131,0,0,1,.924.612c.149.139.44.52.324.74-.085.161-.248.3-.724.388a3.172,3.172,0,0,1-2.334-.582C460.83,271.667,460.539,271.174,460.539,271.174Z" transform="translate(-460.083 -265.75)" fill="#cadee0"/>
            <path id="Path_5392" data-name="Path 5392" d="M462.619,259.6l-.612-.332-.249-1.714.606-1.257a1.478,1.478,0,0,0,.1-.873c-.032-.21-.094-.576-.094-.576s.39-1.353,1.181-.75a1.267,1.267,0,0,1,.37.534c.363.21.94.643,1.332.9.907.6.2,1.847.2,1.847l-.58,1.269A1.731,1.731,0,0,1,462.619,259.6Z" transform="translate(-460.966 -253.946)" fill="#e8c5ac"/>
            <path id="Path_5393" data-name="Path 5393" d="M462.693,273.085l.45-2.051-2.4-.369-.224,1.118Z" transform="translate(-460.079 -265.923)" fill="#e8c5ac"/>
            <path id="Path_5394" data-name="Path 5394" d="M460.247,271.972s-.011.762,1.439,1.279a2.676,2.676,0,0,0,1.567.2,1.1,1.1,0,0,0,.535-.262l-.208.633a1.778,1.778,0,0,1-1.607.206c-1.694-.367-1.844-1.511-1.844-1.511Z" transform="translate(-459.799 -266.859)" fill="#f5f5f5"/>
            <path id="Path_5395" data-name="Path 5395" d="M460.984,259.982a1.526,1.526,0,0,0-.739-1.744c-.106-.06-.318.077.037-1.408.087-.362-.178-.831-.492-.734,0,0-.2.413-.52,1.15a1.953,1.953,0,0,0-.282,1.25c.313,1.636.309,1.911.808,2.191S460.68,260.615,460.984,259.982Z" transform="translate(-458.966 -255.478)" fill="#e8c5ac"/>
          </g>
          <path id="Path_5396" data-name="Path 5396" d="M429.847,516.181a.421.421,0,0,0-.037.131l0,.322c.014,0,.436-.284.517-.344Z" transform="translate(-397.506 -441.797)" fill="#050500"/>
          <path id="Path_5397" data-name="Path 5397" d="M425.187,514.906c0-.006.007-.007.01-.012-.187-.035-.573-.113-1.006-.23a5.893,5.893,0,0,1-.875-.307,1.08,1.08,0,0,0,.148.41l1.7.56A2.048,2.048,0,0,1,425.187,514.906Z" transform="translate(-392.854 -440.49)" fill="#3d3d3b"/>
        </g>
      </g>
    </g>
  </g>
</svg>
