<svg xmlns="http://www.w3.org/2000/svg" viewBox="0 0 54.473 97.271">
  <g id="Transformation_roadmap_Arroq" data-name="Transformation roadmap Arroq" transform="translate(-584.388 -478.623)">
    <g id="Group_466" data-name="Group 466" transform="translate(584.388 535.688)">
      <path id="Path_5398" data-name="Path 5398" d="M596.061,587.568a5.836,5.836,0,1,1-5.836-5.836A5.836,5.836,0,0,1,596.061,587.568Z" transform="translate(-584.388 -581.732)" fill="#fff"/>
    </g>
    <g id="Group_467" data-name="Group 467" transform="translate(584.388 549.955)">
      <path id="Path_5399" data-name="Path 5399" d="M596.061,613.346a5.836,5.836,0,1,1-5.836-5.837A5.836,5.836,0,0,1,596.061,613.346Z" transform="translate(-584.388 -607.509)" fill="#fff"/>
    </g>
    <g id="Group_468" data-name="Group 468" transform="translate(598.655 551.252)">
      <path id="Path_5400" data-name="Path 5400" d="M621.838,615.689A5.836,5.836,0,1,1,616,609.853,5.836,5.836,0,0,1,621.838,615.689Z" transform="translate(-610.166 -609.853)" fill="#fff"/>
    </g>
    <g id="Group_469" data-name="Group 469" transform="translate(584.388 564.221)">
      <path id="Path_5401" data-name="Path 5401" d="M596.061,639.123a5.836,5.836,0,1,1-5.836-5.836A5.836,5.836,0,0,1,596.061,639.123Z" transform="translate(-584.388 -633.287)" fill="#fff"/>
    </g>
    <g id="Group_470" data-name="Group 470" transform="translate(584.388 478.623)">
      <path id="Path_5402" data-name="Path 5402" d="M596.061,484.459a5.836,5.836,0,1,1-5.836-5.836A5.836,5.836,0,0,1,596.061,484.459Z" transform="translate(-584.388 -478.623)" fill="#fff"/>
    </g>
    <g id="Group_471" data-name="Group 471" transform="translate(584.388 521.422)">
      <path id="Path_5403" data-name="Path 5403" d="M596.061,561.791a5.836,5.836,0,1,1-5.836-5.836A5.836,5.836,0,0,1,596.061,561.791Z" transform="translate(-584.388 -555.955)" fill="#fff"/>
    </g>
    <g id="Group_472" data-name="Group 472" transform="translate(598.655 522.071)">
      <path id="Path_5404" data-name="Path 5404" d="M621.838,562.963A5.836,5.836,0,1,1,616,557.127,5.836,5.836,0,0,1,621.838,562.963Z" transform="translate(-610.166 -557.127)" fill="#fff"/>
    </g>
    <g id="Group_473" data-name="Group 473" transform="translate(598.655 536.661)">
      <path id="Path_5405" data-name="Path 5405" d="M621.838,589.326A5.836,5.836,0,1,1,616,583.49,5.836,5.836,0,0,1,621.838,589.326Z" transform="translate(-610.166 -583.49)" fill="#fff"/>
    </g>
    <g id="Group_474" data-name="Group 474" transform="translate(584.388 507.155)">
      <path id="Path_5406" data-name="Path 5406" d="M596.061,536.014a5.836,5.836,0,1,1-5.836-5.837A5.836,5.836,0,0,1,596.061,536.014Z" transform="translate(-584.388 -530.177)" fill="#fff"/>
    </g>
    <g id="Group_475" data-name="Group 475" transform="translate(598.655 507.48)">
      <path id="Path_5407" data-name="Path 5407" d="M621.838,536.6A5.836,5.836,0,1,1,616,530.764,5.836,5.836,0,0,1,621.838,536.6Z" transform="translate(-610.166 -530.764)" fill="#fff"/>
    </g>
    <g id="Group_476" data-name="Group 476" transform="translate(584.388 492.889)">
      <path id="Path_5408" data-name="Path 5408" d="M596.061,510.236a5.836,5.836,0,1,1-5.836-5.836A5.836,5.836,0,0,1,596.061,510.236Z" transform="translate(-584.388 -504.4)" fill="#fff"/>
    </g>
    <g id="Group_477" data-name="Group 477" transform="translate(598.655 492.889)">
      <path id="Path_5409" data-name="Path 5409" d="M621.838,510.236A5.836,5.836,0,1,1,616,504.4,5.836,5.836,0,0,1,621.838,510.236Z" transform="translate(-610.166 -504.4)" fill="#fff"/>
    </g>
    <g id="Group_478" data-name="Group 478" transform="translate(612.921 521.422)">
      <path id="Path_5410" data-name="Path 5410" d="M647.616,561.791a5.836,5.836,0,1,1-5.836-5.836A5.836,5.836,0,0,1,647.616,561.791Z" transform="translate(-635.943 -555.955)" fill="#fff"/>
    </g>
    <g id="Group_479" data-name="Group 479" transform="translate(612.921 535.688)">
      <path id="Path_5411" data-name="Path 5411" d="M647.616,587.568a5.836,5.836,0,1,1-5.836-5.836A5.837,5.837,0,0,1,647.616,587.568Z" transform="translate(-635.943 -581.732)" fill="#fff"/>
    </g>
    <g id="Group_480" data-name="Group 480" transform="translate(627.187 521.422)">
      <path id="Path_5412" data-name="Path 5412" d="M673.393,561.791a5.836,5.836,0,1,1-5.836-5.836A5.836,5.836,0,0,1,673.393,561.791Z" transform="translate(-661.72 -555.955)" fill="#fff"/>
    </g>
    <g id="Group_481" data-name="Group 481" transform="translate(612.921 507.155)">
      <path id="Path_5413" data-name="Path 5413" d="M647.616,536.014a5.836,5.836,0,1,1-5.836-5.837A5.836,5.836,0,0,1,647.616,536.014Z" transform="translate(-635.943 -530.177)" fill="#fff"/>
    </g>
  </g>
</svg>
