<svg viewBox="0 0 98 55" fill="none" xmlns="http://www.w3.org/2000/svg">
<g clip-path="url(#clip0_1439_41)">
<path d="M34.9765 12.0719C33.8222 12.0719 32.6939 11.7296 31.7342 11.0883C30.7745 10.4471 30.0264 9.53559 29.5847 8.4692C29.143 7.40281 29.0274 6.22938 29.2526 5.09731C29.4778 3.96524 30.0336 2.92539 30.8498 2.10921C31.666 1.29303 32.7059 0.737228 33.838 0.512045C34.97 0.286861 36.1434 0.402424 37.2098 0.844137C38.2762 1.28585 39.1877 2.03383 39.829 2.99355C40.4702 3.95328 40.8125 5.08161 40.8125 6.23586C40.8125 7.78366 40.1976 9.26811 39.1031 10.3626C38.0087 11.457 36.5243 12.0719 34.9765 12.0719Z" fill="white"/>
<path d="M20.7098 12.0719C19.5556 12.0717 18.4274 11.7293 17.4678 11.0879C16.5082 10.4465 15.7603 9.53498 15.3188 8.46857C14.8772 7.40216 14.7618 6.22875 14.9871 5.09675C15.2124 3.96474 15.7683 2.92497 16.5845 2.10889C17.4008 1.29281 18.4406 0.73707 19.5727 0.511968C20.7047 0.286865 21.8781 0.402501 22.9444 0.844243C24.0107 1.28599 24.9221 2.03401 25.5634 2.99372C26.2046 3.95342 26.5469 5.0817 26.5469 6.23591C26.5469 7.00238 26.3959 7.76137 26.1025 8.46949C25.8092 9.17761 25.3792 9.82105 24.8372 10.363C24.2951 10.9049 23.6517 11.3348 22.9435 11.628C22.2353 11.9212 21.4763 12.072 20.7098 12.0719Z" fill="white"/>
<path d="M19.4062 26.338C18.252 26.338 17.1238 25.9958 16.1641 25.3546C15.2044 24.7134 14.4564 23.8021 14.0146 22.7358C13.5729 21.6695 13.4572 20.4962 13.6822 19.3642C13.9072 18.2322 14.4628 17.1923 15.2788 16.3761C16.0948 15.5598 17.1345 15.0038 18.2664 14.7784C19.3984 14.553 20.5718 14.6683 21.6382 15.1097C22.7046 15.5511 23.6162 16.2988 24.2577 17.2583C24.8992 18.2177 25.2418 19.3458 25.2422 20.5C25.2424 21.2666 25.0917 22.0257 24.7985 22.734C24.5054 23.4422 24.0755 24.0859 23.5336 24.628C22.9916 25.1701 22.3482 25.6002 21.64 25.8936C20.9318 26.187 20.1728 26.338 19.4062 26.338Z" fill="white"/>
<path d="M6.43744 12.0719C5.28319 12.0719 4.15485 11.7296 3.19513 11.0883C2.2354 10.4471 1.48737 9.53559 1.04565 8.4692C0.603941 7.40281 0.488379 6.22938 0.713562 5.09731C0.938745 3.96524 1.49455 2.92539 2.31073 2.10921C3.12691 1.29303 4.16682 0.737228 5.29889 0.512045C6.43096 0.286861 7.60439 0.402424 8.67078 0.844137C9.73717 1.28585 10.6486 2.03383 11.2899 2.99355C11.9311 3.95328 12.2734 5.08161 12.2734 6.23586C12.2734 7.78366 11.6585 9.26811 10.5641 10.3626C9.46962 11.457 7.98524 12.0719 6.43744 12.0719Z" fill="white"/>
<path d="M92.039 12.0719C90.8847 12.0719 89.7564 11.7296 88.7967 11.0883C87.837 10.4471 87.0889 9.53559 86.6472 8.4692C86.2055 7.40281 86.0899 6.22938 86.3151 5.09731C86.5403 3.96524 87.0961 2.92539 87.9123 2.10921C88.7285 1.29303 89.7684 0.737228 90.9005 0.512045C92.0325 0.286861 93.2059 0.402424 94.2723 0.844137C95.3387 1.28585 96.2502 2.03383 96.8914 2.99355C97.5327 3.95328 97.875 5.08161 97.875 6.23586C97.875 7.78366 97.2601 9.26811 96.1656 10.3626C95.0712 11.457 93.5868 12.0719 92.039 12.0719Z" fill="white"/>
<path d="M49.2421 12.0719C48.0879 12.0719 46.9595 11.7296 45.9998 11.0883C45.0401 10.4471 44.2921 9.53559 43.8504 8.4692C43.4087 7.40281 43.2931 6.22938 43.5182 5.09731C43.7434 3.96524 44.2993 2.92539 45.1155 2.10921C45.9317 1.29303 46.9715 0.737228 48.1036 0.512045C49.2356 0.286861 50.4091 0.402424 51.4755 0.844137C52.5419 1.28585 53.4533 2.03383 54.0946 2.99355C54.7359 3.95328 55.0781 5.08161 55.0781 6.23586C55.0781 7.78366 54.4633 9.26811 53.3688 10.3626C52.2744 11.457 50.7899 12.0719 49.2421 12.0719Z" fill="white"/>
<path d="M48.5937 26.338C47.4395 26.338 46.3113 25.9958 45.3516 25.3546C44.3919 24.7134 43.6439 23.8021 43.2021 22.7358C42.7604 21.6695 42.6447 20.4962 42.8697 19.3642C43.0947 18.2322 43.6503 17.1923 44.4663 16.3761C45.2823 15.5598 46.322 15.0038 47.4539 14.7784C48.5859 14.553 49.7593 14.6683 50.8257 15.1097C51.8921 15.5511 52.8037 16.2988 53.4452 17.2583C54.0867 18.2177 54.4293 19.3458 54.4297 20.5C54.4299 21.2666 54.2792 22.0257 53.986 22.734C53.6929 23.4422 53.263 24.0859 52.7211 24.628C52.1791 25.1701 51.5357 25.6002 50.8275 25.8936C50.1193 26.187 49.3603 26.338 48.5937 26.338Z" fill="white"/>
<path d="M33.9999 26.338C32.8458 26.338 31.7175 25.9958 30.7578 25.3546C29.7981 24.7134 29.0501 23.8021 28.6083 22.7358C28.1666 21.6695 28.0509 20.4962 28.2759 19.3642C28.501 18.2322 29.0566 17.1923 29.8726 16.3761C30.6885 15.5598 31.7282 15.0038 32.8602 14.7784C33.9921 14.553 35.1654 14.6683 36.2319 15.1097C37.2983 15.5511 38.2099 16.2988 38.8514 17.2583C39.4929 18.2177 39.8355 19.3458 39.8359 20.5C39.8362 21.2666 39.6854 22.0257 39.3923 22.734C39.0991 23.4422 38.6693 24.0859 38.1273 24.628C37.5854 25.1701 36.9419 25.6002 36.2337 25.8936C35.5255 26.187 34.7665 26.338 33.9999 26.338Z" fill="white"/>
<path d="M63.5068 12.0719C62.3526 12.0717 61.2243 11.7293 60.2647 11.0879C59.3051 10.4465 58.5573 9.53498 58.1157 8.46857C57.6742 7.40216 57.5587 6.22875 57.784 5.09675C58.0093 3.96474 58.5652 2.92497 59.3814 2.10889C60.1976 1.29281 61.2375 0.73707 62.3696 0.511968C63.5016 0.286865 64.675 0.402501 65.7413 0.844243C66.8077 1.28599 67.7191 2.03401 68.3603 2.99372C69.0015 3.95342 69.3437 5.0817 69.3437 6.23591C69.3438 7.00238 69.1928 7.76137 68.8994 8.46949C68.6061 9.17761 68.1761 9.82105 67.6341 10.363C67.0921 10.9049 66.4486 11.3348 65.7404 11.628C65.0322 11.9212 64.2733 12.072 63.5068 12.0719Z" fill="white"/>
<path d="M63.1796 26.338C62.0255 26.338 60.8972 25.9958 59.9375 25.3546C58.9778 24.7134 58.2298 23.8021 57.788 22.7358C57.3463 21.6695 57.2305 20.4962 57.4556 19.3642C57.6806 18.2322 58.2363 17.1923 59.0522 16.3761C59.8682 15.5598 60.9079 15.0038 62.0399 14.7784C63.1718 14.553 64.3451 14.6683 65.4116 15.1097C66.478 15.5511 67.3896 16.2988 68.0311 17.2583C68.6726 18.2177 69.0152 19.3458 69.0156 20.5C69.0159 21.2666 68.8651 22.0257 68.572 22.734C68.2788 23.4422 67.849 24.0859 67.307 24.628C66.7651 25.1701 66.1216 25.6002 65.4134 25.8936C64.7052 26.187 63.9462 26.338 63.1796 26.338Z" fill="white"/>
<path d="M77.7734 12.0719C76.6191 12.0719 75.4908 11.7296 74.531 11.0883C73.5713 10.4471 72.8233 9.53559 72.3816 8.4692C71.9399 7.40281 71.8243 6.22938 72.0495 5.09731C72.2747 3.96524 72.8305 2.92539 73.6467 2.10921C74.4629 1.29303 75.5028 0.737228 76.6348 0.512045C77.7669 0.286861 78.9403 0.402424 80.0067 0.844137C81.0731 1.28585 81.9846 2.03383 82.6258 2.99355C83.2671 3.95328 83.6094 5.08161 83.6094 6.23586C83.6094 7.78366 82.9945 9.26811 81.9001 10.3626C80.8056 11.457 79.3212 12.0719 77.7734 12.0719Z" fill="white"/>
<path d="M77.7734 26.338C76.6192 26.338 75.491 25.9958 74.5313 25.3546C73.5716 24.7134 72.8236 23.8021 72.3818 22.7358C71.94 21.6695 71.8243 20.4962 72.0493 19.3642C72.2744 18.2322 72.83 17.1923 73.646 16.3761C74.4619 15.5598 75.5017 15.0038 76.6336 14.7784C77.7655 14.553 78.9389 14.6683 80.0053 15.1097C81.0717 15.5511 81.9833 16.2988 82.6248 17.2583C83.2664 18.2177 83.609 19.3458 83.6094 20.5C83.6096 21.2666 83.4589 22.0257 83.1657 22.734C82.8725 23.4422 82.4427 24.0859 81.9008 24.628C81.3588 25.1701 80.7154 25.6002 80.0072 25.8936C79.299 26.187 78.5399 26.338 77.7734 26.338Z" fill="white"/>
<path d="M49.2421 40.6051C48.0879 40.6051 46.9595 40.2628 45.9998 39.6215C45.0401 38.9803 44.2921 38.0689 43.8504 37.0025C43.4087 35.9361 43.2931 34.7626 43.5182 33.6306C43.7434 32.4985 44.2993 31.4586 45.1155 30.6424C45.9317 29.8262 46.9715 29.2704 48.1036 29.0452C49.2356 28.8201 50.4091 28.9356 51.4755 29.3773C52.5419 29.8191 53.4533 30.5671 54.0946 31.5268C54.7359 32.4865 55.0781 33.6149 55.0781 34.7691C55.0781 35.5355 54.9272 36.2944 54.6339 37.0025C54.3406 37.7105 53.9108 38.3539 53.3688 38.8958C52.8269 39.4377 52.1835 39.8676 51.4755 40.1608C50.7674 40.4541 50.0085 40.6051 49.2421 40.6051Z" fill="white"/>
<path d="M34.9765 40.6051C33.8222 40.6051 32.6939 40.2628 31.7342 39.6215C30.7745 38.9803 30.0264 38.0689 29.5847 37.0025C29.143 35.9361 29.0274 34.7626 29.2526 33.6306C29.4778 32.4985 30.0336 31.4586 30.8498 30.6424C31.666 29.8262 32.7059 29.2704 33.838 29.0452C34.97 28.8201 36.1434 28.9356 37.2098 29.3773C38.2762 29.8191 39.1877 30.5671 39.829 31.5268C40.4702 32.4865 40.8125 33.6149 40.8125 34.7691C40.8122 36.3168 40.1973 37.8011 39.1029 38.8955C38.0085 39.9899 36.5242 40.6049 34.9765 40.6051Z" fill="white"/>
<path d="M49.2421 54.8712C48.0879 54.8712 46.9595 54.529 45.9998 53.8877C45.0401 53.2464 44.2921 52.335 43.8504 51.2686C43.4087 50.2022 43.2931 49.0288 43.5182 47.8967C43.7434 46.7646 44.2993 45.7247 45.1155 44.9085C45.9317 44.0923 46.9715 43.5365 48.1036 43.3114C49.2356 43.0862 50.4091 43.2017 51.4755 43.6435C52.5419 44.0852 53.4533 44.8332 54.0946 45.7929C54.7359 46.7527 55.0781 47.881 55.0781 49.0352C55.0781 50.583 54.4633 52.0674 53.3688 53.1619C52.2744 54.2563 50.7899 54.8712 49.2421 54.8712Z" fill="white"/>
<path d="M63.5068 40.6051C62.3526 40.6049 61.2243 40.2624 60.2647 39.6211C59.3051 38.9797 58.5573 38.0681 58.1157 37.0017C57.6742 35.9353 57.5587 34.762 57.784 33.63C58.0093 32.498 58.5652 31.4581 59.3814 30.642C60.1976 29.826 61.2375 29.2703 62.3696 29.0452C63.5016 28.8201 64.675 28.9357 65.7413 29.3774C66.8077 29.8191 67.7191 30.5672 68.3603 31.5269C69.0015 32.4866 69.3437 33.6149 69.3437 34.7691C69.3438 35.5356 69.1928 36.2945 68.8994 37.0026C68.6061 37.7108 68.1761 38.3542 67.6341 38.8961C67.0921 39.4381 66.4486 39.8679 65.7404 40.1612C65.0322 40.4544 64.2733 40.6053 63.5068 40.6051Z" fill="white"/>
</g>
<defs>
<clipPath id="clip0_1439_41">
<rect width="54.473" height="97.271" fill="white" transform="matrix(0 1 -1 0 97.875 0.398926)"/>
</clipPath>
</defs>
</svg>
