<svg xmlns="http://www.w3.org/2000/svg" width="85.042" height="85.042" viewBox="0 0 85.042 85.042">
  <defs>
    <clipPath id="clip-path">
      <path id="path924" d="M0-682.665H85.042v85.042H0Z" transform="translate(0 682.665)" fill="#59db35"/>
    </clipPath>
  </defs>
  <g id="_1.3_billion_people" transform="translate(-1400.479 -2923.958)">
    <g id="g918" transform="translate(1400.479 2923.958)">
      <g id="g920" transform="translate(0 0)">
        <g id="g922" transform="translate(0 0)" clip-path="url(#clip-path)">
          <g id="g928" transform="translate(2.649 -0.006)">
            <path id="path930" d="M-220.093-420.657a5.343,5.343,0,0,1-1.57-.232c-3.008-.919-3.7-2.049-3.968-3.944a3.587,3.587,0,0,0-.6-1.719,8.718,8.718,0,0,1-1.641-4.357,9.155,9.155,0,0,0-1.755-4.451,11.231,11.231,0,0,1-1.673-7.666,1.661,1.661,0,0,1,1.948-1.312,1.661,1.661,0,0,1,1.312,1.948,8.01,8.01,0,0,0,1.225,5.263,12.328,12.328,0,0,1,2.239,5.809,5.479,5.479,0,0,0,1.11,2.926,6.832,6.832,0,0,1,1.119,3.088,2.974,2.974,0,0,0,.105.544s.194.282,1.544.695c1.933.59,4.966-1.888,7.4-3.879a31.192,31.192,0,0,1,3.245-2.442,5.936,5.936,0,0,0,2.092-2.62,9.172,9.172,0,0,0,.324-2.78c-1.133-4.56,1.755-5.964,3.481-6.8,1.4-.679,1.894-1,2-1.883a7.4,7.4,0,0,0-.087-2.381,18.394,18.394,0,0,1-.255-3.07c0-8.324.676-9.654,3.827-12.2a28.351,28.351,0,0,0,4.7-4.644l.192-.235c2.387-2.926,2.925-3.585,3.382-6.934-.23.07-.466.147-.663.211-1.922.626-5.139,1.675-7.227-.794l-.443-.525c-1.063-1.261-1.063-1.261-1.511-1.5-.39-.206-.981-.517-2.029-1.182-1.835-1.164-2.377-3.632-2.812-5.615a11.029,11.029,0,0,0-.507-1.872,3.035,3.035,0,0,0-.921-1.008,10.872,10.872,0,0,1-2.741-3.264,6.808,6.808,0,0,1-.567-4.445,5.108,5.108,0,0,0-.014-2.134c-.392.03-.9.086-1.316.131-2.234.244-5.013.547-6.978-.194a18.26,18.26,0,0,0-2.724-.74,2.33,2.33,0,0,1-.905,2.718c-2,1.352-3.836.32-4.936-.3a4.874,4.874,0,0,0-.99-.475c-1.632-.373-4.237-2.012-4.681-4l-.063-.284c-.378-1.709-.436-1.972-1.653-2.633a5.188,5.188,0,0,0-4.438-.082c-.116.06-.261.165-.437.284A9.588,9.588,0,0,1-242-500.128a6.891,6.891,0,0,1-2.321.069,4.541,4.541,0,0,0-1.486.012c-1.947.559-3.3,1.645-3.3,2.271,0,3.6-1.9,4.363-3.431,4.973a6.868,6.868,0,0,0-3.612,2.758c-.157.224-.3.423-.438.607-.769,1.049-.976,1.33-.976,4.263a12.5,12.5,0,0,1-.8,4.044c-.7,2.156-1.311,4.018.885,8.119.637,1.1,5.661,5.3,7.2,5.678-2.115,1.513-1.966,2.66-2.268,2.66-3.355,0-7.205-5.543-7.862-6.77-2.865-5.351-1.935-8.2-1.114-10.717a9.412,9.412,0,0,0,.635-3.014c0-3.691.42-4.593,1.619-6.228.122-.166.254-.346.4-.549a10.169,10.169,0,0,1,5.1-3.937c1.264-.5,1.34-.535,1.34-1.888,0-2.821,2.949-4.672,5.709-5.464a7.215,7.215,0,0,1,2.7-.127,4.615,4.615,0,0,0,1.224.016,6.622,6.622,0,0,0,2-1.033,8.3,8.3,0,0,1,.793-.494,8.428,8.428,0,0,1,7.529.125c2.547,1.384,2.884,2.907,3.311,4.834l.061.277a4.238,4.238,0,0,0,2.18,1.485,7.1,7.1,0,0,1,1.874.816c.3.169.53.29.708.373a2.751,2.751,0,0,1,.524-2.452c1.3-1.606,4.87-.572,6.882.187,1.221.461,3.763.184,5.445,0,2.233-.244,3.354-.366,4.083.658a6.579,6.579,0,0,1,.906,5.039,3.853,3.853,0,0,0,.159,2.416,7.633,7.633,0,0,0,2,2.364,6.133,6.133,0,0,1,1.763,2.092,12.265,12.265,0,0,1,.765,2.613c.271,1.234.681,3.1,1.347,3.522.936.594,1.456.868,1.8,1.05,1.02.538,1.189.738,2.5,2.294l.44.521c.6.707,1.952.337,3.661-.219,1.491-.486,3.033-.988,4.21-.019a2.886,2.886,0,0,1,.859,2.757c-.6,4.846-1.5,5.954-4.184,9.243l-.191.234a31.672,31.672,0,0,1-5.186,5.129c-2.145,1.732-2.592,2.093-2.592,9.614a15.091,15.091,0,0,0,.217,2.568,10.7,10.7,0,0,1,.1,3.289c-.339,2.76-2.451,3.786-3.848,4.465-1.687.82-2.2,1.068-1.69,3.113a11.16,11.16,0,0,1-.485,4.72,9.167,9.167,0,0,1-3.451,4.222,29.282,29.282,0,0,0-2.867,2.175C-213.8-423.239-216.959-420.657-220.093-420.657Z" transform="translate(262.349 505.705)" fill="#59db35"/>
          </g>
          <g id="g932" transform="translate(68.197 55.765)">
            <path id="path934" d="M-73.592-13.436a3.024,3.024,0,0,1,.412.028,3.512,3.512,0,0,1,2.419,1.5A7.877,7.877,0,0,1-69.786-6.4a13.12,13.12,0,0,1-3.1,6.51,9.086,9.086,0,0,0-1.138,2.063c-.929,2.029-2.333,5.1-5.821,5.1a6.152,6.152,0,0,1-.734-.045A3.481,3.481,0,0,1-83.3,5.416c-1.089-1.99-.4-4.929.608-7.016a11.187,11.187,0,0,0,.747-3.069c.265-1.788.539-3.637,2.263-4.233l.455-.154c.974-.325,1.149-.384,1.551-1.022l.146-.234C-76.7-11.63-75.571-13.436-73.592-13.436ZM-79.846,3.947c1.221,0,1.818-1.011,2.8-3.157a11.042,11.042,0,0,1,1.722-2.938,9.877,9.877,0,0,0,2.279-4.9,4.841,4.841,0,0,0-.419-2.932.539.539,0,0,0-.1-.116,7.386,7.386,0,0,0-1.141,1.54l-.153.244a5.246,5.246,0,0,1-3.31,2.4l-.163.055a11.955,11.955,0,0,0-.321,1.668A13.87,13.87,0,0,1-79.7-.155c-.828,1.716-1,3.4-.685,3.977.034.061.047.087.2.1A2.834,2.834,0,0,0-79.846,3.947Z" transform="translate(83.849 13.436)" fill="#59db35"/>
          </g>
          <g id="g936" transform="translate(35.899 55.539)">
            <path id="path938" transform="translate(0 0)" fill="#59db35"/>
          </g>
        </g>
      </g>
    </g>
    <path id="group_1_" d="M49.241,35a5.585,5.585,0,0,0-3.193-9.634,7.342,7.342,0,0,0-5.3-5.282,5.6,5.6,0,1,0-7.661,0A7.342,7.342,0,0,0,28.4,23.761a7.342,7.342,0,0,0-4.68-3.679,5.588,5.588,0,1,0-7.656,0,7.35,7.35,0,0,0-5.309,5.3A5.578,5.578,0,0,0,7.57,35,7.418,7.418,0,0,0,2,42.169v5.357a.88.88,0,0,0,.88.88H53.928a.88.88,0,0,0,.88-.88V42.169A7.418,7.418,0,0,0,49.241,35Zm.014-4.077a3.835,3.835,0,1,1-3.835-3.834A3.84,3.84,0,0,1,49.255,30.922ZM36.912,12.181a3.833,3.833,0,0,1,.034,7.666h-.068a3.833,3.833,0,0,1,.034-7.666Zm-1.977,9.426h1.909c.023,0,.045,0,.068,0s.045,0,.068,0h1.907a5.6,5.6,0,0,1,5.347,3.849A5.584,5.584,0,0,0,41.6,35a7.436,7.436,0,0,0-4.688,3.672A7.435,7.435,0,0,0,32.223,35a5.578,5.578,0,0,0-2.636-9.528,5.605,5.605,0,0,1,5.348-3.862ZM24.576,30.93A3.828,3.828,0,1,1,28.4,34.757,3.832,3.832,0,0,1,24.576,30.93ZM19.9,12.195a3.826,3.826,0,0,1,.034,7.652h-.068a3.826,3.826,0,0,1,.034-7.652Zm-1.975,9.413h1.907c.023,0,.045,0,.068,0s.045,0,.068,0h1.909a5.605,5.605,0,0,1,5.348,3.862A5.578,5.578,0,0,0,24.586,35,7.434,7.434,0,0,0,19.9,38.671,7.435,7.435,0,0,0,15.207,35a5.577,5.577,0,0,0-2.633-9.528,5.606,5.606,0,0,1,5.348-3.863ZM11.388,27.1A3.828,3.828,0,1,1,7.561,30.93,3.832,3.832,0,0,1,11.388,27.1ZM3.76,42.169a5.658,5.658,0,0,1,5.651-5.651h3.954a5.658,5.658,0,0,1,5.651,5.651v4.477H3.76Zm17.016,0a5.658,5.658,0,0,1,5.651-5.651h3.954a5.658,5.658,0,0,1,5.651,5.651v4.477H20.777Zm32.272,4.477H37.792V42.169a5.658,5.658,0,0,1,5.651-5.651H47.4a5.658,5.658,0,0,1,5.651,5.651Z" transform="translate(1407.473 2936.678)" fill="#59db35"/>
  </g>
</svg>
