<svg xmlns="http://www.w3.org/2000/svg" width="75.703" height="76.157" viewBox="0 0 75.703 76.157">
  <g id="Accelerated_technology" transform="translate(-1.281 -1)">
    <g id="Group_752" transform="translate(1.281 1)">
      <g id="Group_744" transform="translate(56.007 11.818)">
        <path id="Path_5760" d="M49.394,18.062a1.084,1.084,0,0,1-.836-.358,1.154,1.154,0,0,1,0-1.671l4.655-4.775a1.182,1.182,0,0,1,1.671,1.671L50.229,17.7A1.084,1.084,0,0,1,49.394,18.062Z" transform="translate(-48.2 -10.9)" fill="#59db35"/>
      </g>
      <g id="Group_745" transform="translate(25.806 5.73)">
        <path id="Path_5761" d="M65.037,28.719h-6.8a1.128,1.128,0,0,1-1.194-1.194,12.474,12.474,0,1,0-24.948,0A1.128,1.128,0,0,1,30.9,28.719h-6.8A1.128,1.128,0,0,1,22.9,27.525a21.666,21.666,0,1,1,43.331,0A1.128,1.128,0,0,1,65.037,28.719Zm-5.61-2.387h4.417a19.314,19.314,0,0,0-38.556,0H29.7a14.908,14.908,0,0,1,29.723,0Z" transform="translate(-22.9 -5.8)" fill="#59db35"/>
      </g>
      <g id="Group_746" transform="translate(19.122)">
        <path id="Path_5762" d="M45.591,57.581A28.291,28.291,0,1,1,73.881,29.291,28.274,28.274,0,0,1,45.591,57.581Zm0-54.194a25.9,25.9,0,1,0,25.9,25.9A25.88,25.88,0,0,0,45.591,3.387Z" transform="translate(-17.3 -1)" fill="#59db35"/>
      </g>
      <g id="Group_747" transform="translate(40.6 23.946)">
        <path id="Path_5763" d="M41.509,39.132a5.631,5.631,0,0,1-3.82-1.432,6.5,6.5,0,0,1,3.7-11.459l7.878-5.014a1.269,1.269,0,0,1,1.432.119,1.13,1.13,0,0,1,.358,1.313l-3.1,8.833a6.589,6.589,0,0,1-1.074,5.133.117.117,0,0,1-.119.119,6.149,6.149,0,0,1-4.3,2.268,2.967,2.967,0,0,1-.955.119Zm5.968-13.966-5.133,3.342a2.017,2.017,0,0,1-.6.239,3.959,3.959,0,0,0-3.1,1.552,4.094,4.094,0,0,0,.6,5.61,3.911,3.911,0,0,0,2.865.836,4.143,4.143,0,0,0,2.745-1.432,4.272,4.272,0,0,0,.6-3.581v-.716Z" transform="translate(-35.293 -21.061)" fill="#59db35"/>
      </g>
      <g id="Group_748" transform="translate(46.219 5.849)">
        <path id="Path_5764" d="M41.194,15.091A1.128,1.128,0,0,1,40,13.9v-6.8a1.194,1.194,0,0,1,2.387,0v6.8A1.128,1.128,0,0,1,41.194,15.091Z" transform="translate(-40 -5.9)" fill="#59db35"/>
      </g>
      <g id="Group_749" transform="translate(31.656 11.937)">
        <path id="Path_5765" d="M33.649,18.043a1.084,1.084,0,0,1-.836-.358l-4.655-4.655a1.182,1.182,0,0,1,1.671-1.671l4.655,4.655a1.154,1.154,0,0,1,0,1.671A1.084,1.084,0,0,1,33.649,18.043Z" transform="translate(-27.8 -11)" fill="#59db35"/>
      </g>
      <g id="Group_750" transform="translate(0 24.687)">
        <path id="Path_5766" d="M31.624,73.152A1.162,1.162,0,0,1,30.43,72.2c-.6-2.387-1.91-4.059-3.223-4.059S24.581,69.81,23.984,72.2a1.294,1.294,0,0,1-1.313.955,23.5,23.5,0,0,1-10.385-4.3,1.285,1.285,0,0,1-.358-1.671c1.313-2.149,1.671-4.178.6-5.252-.955-.836-3.1-.6-5.252.716a1.162,1.162,0,0,1-1.552-.358A23.113,23.113,0,0,1,1.3,51.9a1.1,1.1,0,0,1,.955-1.313c2.507-.6,4.059-1.91,4.059-3.223,0-1.432-1.552-2.626-4.059-3.223a1.087,1.087,0,0,1-.836-1.432,25.929,25.929,0,0,1,4.3-10.385,1.3,1.3,0,0,1,1.552-.358c2.387,1.432,4.536,1.432,5.252.716s.716-2.865-.716-5.252a1.162,1.162,0,0,1,.358-1.552A25.37,25.37,0,0,1,21.477,21.7a1.217,1.217,0,0,1,.477,2.387,23.289,23.289,0,0,0-7.52,3.1c1.313,2.865,1.313,5.61-.239,7.162s-4.3,1.552-7.162.239a23.289,23.289,0,0,0-3.1,7.52C6.914,43.19,8.7,45.1,8.7,47.368s-1.791,4.3-4.775,5.252a21.135,21.135,0,0,0,3.223,7.52c2.865-1.313,5.491-1.313,7.162.239,1.671,1.671,1.791,4.417.358,7.162a23.289,23.289,0,0,0,7.52,3.1c.955-2.984,2.984-4.894,5.252-4.894s4.178,1.91,5.252,4.775a26.857,26.857,0,0,0,7.52-3.1c-1.432-2.865-1.313-5.491.358-7.162,1.552-1.552,4.3-1.671,7.162-.358a21.748,21.748,0,0,0,3.223-8.356,1.217,1.217,0,1,1,2.387.477,23.78,23.78,0,0,1-4.3,10.146,1.3,1.3,0,0,1-1.552.358c-2.149-1.313-4.3-1.552-5.252-.6s-.716,2.984.6,5.252a1.162,1.162,0,0,1-.358,1.552A24.922,24.922,0,0,1,32.1,73.152h-.477Z" transform="translate(-1.281 -21.681)" fill="#59db35"/>
      </g>
      <g id="Group_751" transform="translate(10.729 35.549)">
        <path id="Path_5767" d="M25.7,61a15.412,15.412,0,0,1-14.444-20.89,15.11,15.11,0,0,1,8.117-8.595l1.791-.716a1.173,1.173,0,1,1,.6,2.268,9.067,9.067,0,0,0-1.313.477A13.011,13.011,0,1,0,31.076,57.3a12.537,12.537,0,0,0,7.162-8.356,1.173,1.173,0,1,1,2.268.6,15.062,15.062,0,0,1-8.595,10.027A13.108,13.108,0,0,1,25.7,61Z" transform="translate(-10.269 -30.781)" fill="#59db35"/>
      </g>
    </g>
  </g>
</svg>
