<svg xmlns="http://www.w3.org/2000/svg" width="78.934" height="80.316" viewBox="0 0 78.934 80.316">
  <path id="Emerging_market_leader" d="M21.3,66.425H12.7a1.279,1.279,0,0,1-1.272-1.416,26.466,26.466,0,0,1,19.6-22.736,14,14,0,1,1,13.369,0A26.469,26.469,0,0,1,63.531,62.189h2.32l2.47-7.6a2.055,2.055,0,0,1,3.91,0l2.47,7.6h7.992A2.055,2.055,0,0,1,83.9,65.907l-6.466,4.7,2.47,7.6a2.055,2.055,0,0,1-3.163,2.3l-6.466-4.7L63.81,80.5a2.055,2.055,0,0,1-3.163-2.3l2.47-7.6-5.752-4.179H54.119a1.279,1.279,0,0,1,.425.952v4.209a1.279,1.279,0,0,1-.82,1.194l-1.967.757a14.627,14.627,0,0,1-1.247,3.007l.855,1.93A1.279,1.279,0,0,1,51.1,79.9l-2.976,2.976a1.279,1.279,0,0,1-1.423.265l-1.928-.854a14.475,14.475,0,0,1-3.009,1.247L41.008,85.5a1.279,1.279,0,0,1-1.194.82H35.605a1.279,1.279,0,0,1-1.194-.82l-.757-1.966a14.594,14.594,0,0,1-3.011-1.248l-1.93.855a1.279,1.279,0,0,1-1.423-.265L24.315,79.9a1.279,1.279,0,0,1-.264-1.424l.857-1.927a14.591,14.591,0,0,1-1.248-3.007l-1.968-.757a1.279,1.279,0,0,1-.82-1.194V67.378a1.279,1.279,0,0,1,.425-.952ZM37.708,43.98A23.884,23.884,0,0,0,14.166,63.867H24.207a14.521,14.521,0,0,1,.7-1.451l-.857-1.928a1.279,1.279,0,0,1,.264-1.424l2.976-2.976a1.279,1.279,0,0,1,1.424-.264l1.928.857a14.519,14.519,0,0,1,3.008-1.246l.761-1.971a1.28,1.28,0,0,1,1.194-.819h4.209a1.279,1.279,0,0,1,1.194.821l.757,1.97a14.514,14.514,0,0,1,3.007,1.246l1.928-.857a1.279,1.279,0,0,1,1.424.264L51.1,59.064a1.279,1.279,0,0,1,.265,1.423l-.854,1.928a14.467,14.467,0,0,1,.7,1.452h4.627a2.056,2.056,0,0,1,2.02-1.678h3.046a23.879,23.879,0,0,0-23.2-18.209Zm21.7,20.768,5.509,4a2.055,2.055,0,0,1,.747,2.3l-2.1,6.476,5.509-4a2.056,2.056,0,0,1,2.416,0l5.509,4-2.1-6.476a2.055,2.055,0,0,1,.747-2.3l5.509-4H74.335a2.055,2.055,0,0,1-1.955-1.42l-2.1-6.476-2.1,6.476a2.055,2.055,0,0,1-1.955,1.42Zm-21.7-23.326A11.439,11.439,0,1,0,26.275,29.982,11.46,11.46,0,0,0,37.708,41.421Zm1.9,15.543L38.935,55.2H36.483l-.68,1.763a1.28,1.28,0,0,1-.9.784A11.96,11.96,0,0,0,31.393,59.2a1.279,1.279,0,0,1-1.191.08l-1.723-.766-1.733,1.733.766,1.723a1.279,1.279,0,0,1-.08,1.191,12.056,12.056,0,0,0-1.46,3.519,1.28,1.28,0,0,1-.785.9l-1.757.676v2.452l1.757.676a1.279,1.279,0,0,1,.784.895,12.036,12.036,0,0,0,1.459,3.514,1.279,1.279,0,0,1,.081,1.192l-.766,1.724,1.734,1.734,1.724-.764a1.279,1.279,0,0,1,1.186.079,12.052,12.052,0,0,0,3.518,1.457,1.279,1.279,0,0,1,.9.785l.676,1.757h2.452L39.612,82a1.279,1.279,0,0,1,.9-.785,11.909,11.909,0,0,0,3.51-1.454,1.279,1.279,0,0,1,1.191-.082l1.724.764,1.735-1.735-.764-1.724a1.279,1.279,0,0,1,.079-1.186,12.068,12.068,0,0,0,1.457-3.515,1.28,1.28,0,0,1,.785-.9l1.757-.676V68.256l-1.757-.676a1.28,1.28,0,0,1-.785-.9,11.939,11.939,0,0,0-1.455-3.515,1.279,1.279,0,0,1-.081-1.189l.764-1.724-1.734-1.734-1.723.766a1.279,1.279,0,0,1-1.191-.08A11.96,11.96,0,0,0,40.51,57.75a1.279,1.279,0,0,1-.9-.786Zm-1.9,3.9a8.623,8.623,0,1,1-8.621,8.621A8.622,8.622,0,0,1,37.708,60.859Zm0,2.559a6.065,6.065,0,1,0,6.067,6.062A6.06,6.06,0,0,0,37.708,63.418ZM86,18.366,78.83,9.916l-7.173,8.45h2.58a1.279,1.279,0,0,1,1.279,1.279V42.216a1.279,1.279,0,1,1-2.559,0V20.924H70.24a1.9,1.9,0,0,1-1.447-3.138L77.378,7.673a1.9,1.9,0,0,1,2.9-.009l.006.007L88.87,17.79a1.9,1.9,0,0,1-1.45,3.135H84.7V35.13a1.279,1.279,0,0,1-2.559,0V19.645a1.279,1.279,0,0,1,1.279-1.279ZM82.14,38.673a1.279,1.279,0,1,1,2.559,0v3.543a1.279,1.279,0,0,1-2.559,0Zm0,7.086a1.279,1.279,0,0,1,2.559,0v3.456a1.279,1.279,0,0,1-2.559,0Zm-6.623,3.456a1.279,1.279,0,0,1-2.559,0V45.759a1.279,1.279,0,0,1,2.559,0ZM67.47,32.229l-5.769-6.8-5.769,6.8h1.825a1.279,1.279,0,0,1,1.279,1.279V45.089a1.279,1.279,0,1,1-2.559,0v-10.3H54.324a1.814,1.814,0,0,1-1.38-2.993l7.371-8.684a1.815,1.815,0,0,1,2.763-.009l.006.007L70.46,31.8a1.816,1.816,0,0,1-1.382,2.99H66.921V52.693a1.279,1.279,0,1,1-2.559,0V33.508a1.279,1.279,0,0,1,1.279-1.279Z" transform="translate(-10.919 -6.5)" fill="#59db35" stroke="rgba(0,0,0,0)" stroke-miterlimit="10" stroke-width="1" fill-rule="evenodd"/>
</svg>
