<svg xmlns="http://www.w3.org/2000/svg" width="73.953" height="73.953" viewBox="0 0 73.953 73.953">
  <g id="Immense_connectivity_potential_" transform="translate(73.953) rotate(90)">
    <g id="Group_33" transform="translate(0 0)">
      <g id="Group_7" transform="translate(19.539 35.821)">
        <g id="Group_6">
          <path id="Path_4343" d="M17.438,18.593a17.331,17.331,0,0,1-6.788-1.371,17.379,17.379,0,0,1-5.542-3.737A17.387,17.387,0,0,1,0,1.156a1.156,1.156,0,0,1,2.311,0,15.127,15.127,0,0,0,30.254,0,1.156,1.156,0,0,1,2.311,0,17.387,17.387,0,0,1-5.107,12.33,17.378,17.378,0,0,1-5.542,3.737A17.331,17.331,0,0,1,17.438,18.593Z" fill="#59db35"/>
        </g>
      </g>
      <g id="Group_8" transform="translate(0 35.821)">
        <path id="Path_4344" d="M43.489,38.132H30.464a1.156,1.156,0,0,1-1.156-1.156V30.645a30.2,30.2,0,0,1-7.759-3.217l-4.48,4.479a1.155,1.155,0,0,1-1.634,0L6.225,22.7a1.156,1.156,0,0,1,0-1.634l4.48-4.48A30.2,30.2,0,0,1,7.488,8.824H1.156A1.155,1.155,0,0,1,0,7.668V1.156A1.155,1.155,0,0,1,1.156,0H72.8a1.156,1.156,0,0,1,1.156,1.156V7.668A1.156,1.156,0,0,1,72.8,8.824H66.465a30.2,30.2,0,0,1-3.217,7.759l4.48,4.48a1.155,1.155,0,0,1,0,1.634l-9.211,9.21a1.155,1.155,0,0,1-1.634,0L52.4,27.427a30.2,30.2,0,0,1-7.759,3.217v6.332A1.156,1.156,0,0,1,43.489,38.132Zm-11.87-2.311H42.334V29.736a1.155,1.155,0,0,1,.9-1.127,27.924,27.924,0,0,0,8.729-3.619,1.156,1.156,0,0,1,1.433.161l4.3,4.3,7.576-7.576-4.3-4.3a1.156,1.156,0,0,1-.161-1.433A27.925,27.925,0,0,0,64.43,7.413a1.155,1.155,0,0,1,1.127-.9h6.085v-4.2H2.311v4.2H8.4a1.156,1.156,0,0,1,1.127.9,27.922,27.922,0,0,0,3.619,8.729,1.155,1.155,0,0,1-.161,1.433l-4.3,4.3,7.576,7.576,4.3-4.3a1.156,1.156,0,0,1,1.433-.161,27.924,27.924,0,0,0,8.729,3.619,1.155,1.155,0,0,1,.9,1.127Z" fill="#59db35"/>
      </g>
      <g id="Group_15" transform="translate(28.657 11.94)">
        <g id="Group_11">
          <g id="Group_9" transform="translate(2.388 4.776)">
            <path id="Path_4345" d="M1.156,21.416A1.156,1.156,0,0,1,0,20.26V1.156a1.156,1.156,0,0,1,2.311,0v19.1A1.156,1.156,0,0,1,1.156,21.416Z" fill="#59db35"/>
          </g>
          <g id="Group_10">
            <path id="Path_4346" d="M3.544,7.087A3.544,3.544,0,1,1,7.087,3.544,3.548,3.548,0,0,1,3.544,7.087Zm0-4.776A1.233,1.233,0,1,0,4.776,3.544,1.234,1.234,0,0,0,3.544,2.311Z" fill="#59db35"/>
          </g>
        </g>
        <g id="Group_14" transform="translate(9.552 0)">
          <g id="Group_12" transform="translate(2.388 4.776)">
            <path id="Path_4347" d="M1.156,21.416A1.156,1.156,0,0,1,0,20.26V1.156a1.156,1.156,0,0,1,2.311,0v19.1A1.156,1.156,0,0,1,1.156,21.416Z" fill="#59db35"/>
          </g>
          <g id="Group_13">
            <path id="Path_4348" d="M3.544,7.087A3.544,3.544,0,1,1,7.087,3.544,3.548,3.548,0,0,1,3.544,7.087Zm0-4.776A1.233,1.233,0,1,0,4.776,3.544,1.234,1.234,0,0,0,3.544,2.311Z" fill="#59db35"/>
          </g>
        </g>
      </g>
      <g id="Group_18" transform="translate(46.567 0)">
        <g id="Group_16" transform="translate(0 4.776)">
          <path id="Path_4349" d="M1.156,33.356A1.156,1.156,0,0,1,0,32.2V19.066a1.155,1.155,0,0,1,.338-.817l4.438-4.438V1.156a1.156,1.156,0,0,1,2.311,0V14.29a1.155,1.155,0,0,1-.338.817L2.311,19.545V32.2A1.156,1.156,0,0,1,1.156,33.356Z" fill="#59db35"/>
        </g>
        <g id="Group_17" transform="translate(2.388 0)">
          <path id="Path_4350" d="M3.544,7.087A3.544,3.544,0,1,1,7.087,3.544,3.548,3.548,0,0,1,3.544,7.087Zm0-4.776A1.233,1.233,0,1,0,4.776,3.544,1.234,1.234,0,0,0,3.544,2.311Z" fill="#59db35"/>
        </g>
      </g>
      <g id="Group_21" transform="translate(17.91 0)">
        <g id="Group_19" transform="translate(2.388 4.776)">
          <path id="Path_4351" d="M5.932,33.356A1.155,1.155,0,0,1,4.776,32.2V19.545L.338,15.107A1.156,1.156,0,0,1,0,14.29V1.156a1.156,1.156,0,0,1,2.311,0V13.811l4.438,4.438a1.155,1.155,0,0,1,.338.817V32.2A1.155,1.155,0,0,1,5.932,33.356Z" fill="#59db35"/>
        </g>
        <g id="Group_20">
          <path id="Path_4352" d="M3.544,7.087A3.544,3.544,0,1,1,7.087,3.544,3.548,3.548,0,0,1,3.544,7.087Zm0-4.776A1.233,1.233,0,1,0,4.776,3.544,1.234,1.234,0,0,0,3.544,2.311Z" fill="#59db35"/>
        </g>
      </g>
      <g id="Group_22" transform="translate(13.134 22.687)">
        <path id="Path_4353" d="M7.126,15.445A1.156,1.156,0,0,1,5.97,14.29V7.6L.338,1.973A1.156,1.156,0,0,1,1.973.338l5.97,5.97a1.156,1.156,0,0,1,.338.817V14.29A1.156,1.156,0,0,1,7.126,15.445Z" fill="#59db35"/>
      </g>
      <g id="Group_23" transform="translate(9.552 27.463)">
        <path id="Path_4354" d="M4.738,10.669A1.156,1.156,0,0,1,3.582,9.514v-4.3L.338,1.973A1.156,1.156,0,0,1,1.973.338L5.555,3.921a1.155,1.155,0,0,1,.338.817V9.514A1.156,1.156,0,0,1,4.738,10.669Z" fill="#59db35"/>
      </g>
      <g id="Group_24" transform="translate(52.537 22.687)">
        <path id="Path_4355" d="M1.156,15.445A1.156,1.156,0,0,1,0,14.29V7.126a1.155,1.155,0,0,1,.339-.817L6.309.338A1.155,1.155,0,0,1,7.943,1.973L2.311,7.6V14.29A1.155,1.155,0,0,1,1.156,15.445Z" fill="#59db35"/>
      </g>
      <g id="Group_25" transform="translate(58.507 27.463)">
        <path id="Path_4356" d="M1.156,10.669A1.156,1.156,0,0,1,0,9.514V4.738a1.156,1.156,0,0,1,.339-.817L3.921.338A1.156,1.156,0,0,1,5.555,1.973L2.311,5.216v4.3A1.156,1.156,0,0,1,1.156,10.669Z" fill="#59db35"/>
      </g>
      <g id="Group_26" transform="translate(35.821 25.075)">
        <path id="Path_4357" d="M1.156,13.057A1.156,1.156,0,0,1,0,11.9V1.156a1.156,1.156,0,0,1,2.311,0V11.9A1.156,1.156,0,0,1,1.156,13.057Z" fill="#59db35"/>
      </g>
      <g id="Group_27" transform="translate(62.09 14.328)">
        <path id="Path_4358" d="M5.932,7.087H1.156A1.156,1.156,0,0,1,0,5.932V1.156A1.156,1.156,0,0,1,1.156,0H5.932A1.156,1.156,0,0,1,7.087,1.156V5.932A1.156,1.156,0,0,1,5.932,7.087ZM2.311,4.776H4.776V2.311H2.311Z" fill="#59db35"/>
      </g>
      <g id="Group_28" transform="translate(57.313 9.552)">
        <path id="Path_4359" d="M5.932,7.087H1.156A1.156,1.156,0,0,1,0,5.932V1.155A1.155,1.155,0,0,1,1.156,0H5.932A1.155,1.155,0,0,1,7.087,1.155V5.932A1.156,1.156,0,0,1,5.932,7.087ZM2.311,4.776H4.776V2.311H2.311Z" fill="#59db35"/>
      </g>
      <g id="Group_29" transform="translate(63.284 0)">
        <path id="Path_4360" d="M5.932,7.087H1.156A1.156,1.156,0,0,1,0,5.932V1.156A1.156,1.156,0,0,1,1.156,0H5.932A1.155,1.155,0,0,1,7.087,1.156V5.932A1.155,1.155,0,0,1,5.932,7.087ZM2.311,4.776H4.776V2.311H2.311Z" fill="#59db35"/>
      </g>
      <g id="Group_30" transform="translate(4.776 14.328)">
        <path id="Path_4361" d="M5.932,7.087H1.156A1.156,1.156,0,0,1,0,5.932V1.156A1.156,1.156,0,0,1,1.156,0H5.932A1.155,1.155,0,0,1,7.087,1.156V5.932A1.155,1.155,0,0,1,5.932,7.087ZM2.311,4.776H4.776V2.311H2.311Z" fill="#59db35"/>
      </g>
      <g id="Group_31" transform="translate(9.552 9.552)">
        <path id="Path_4362" d="M5.932,7.087H1.155A1.155,1.155,0,0,1,0,5.932V1.155A1.155,1.155,0,0,1,1.155,0H5.932A1.155,1.155,0,0,1,7.087,1.155V5.932A1.156,1.156,0,0,1,5.932,7.087ZM2.311,4.776H4.776V2.311H2.311Z" fill="#59db35"/>
      </g>
      <g id="Group_32" transform="translate(3.582 0)">
        <path id="Path_4363" d="M5.932,7.087H1.156A1.155,1.155,0,0,1,0,5.932V1.156A1.155,1.155,0,0,1,1.156,0H5.932A1.156,1.156,0,0,1,7.087,1.156V5.932A1.156,1.156,0,0,1,5.932,7.087ZM2.311,4.776H4.776V2.311H2.311Z" fill="#59db35"/>
      </g>
    </g>
  </g>
</svg>
