<svg xmlns="http://www.w3.org/2000/svg" width="79.316" height="79.317" viewBox="0 0 79.316 79.317">
  <g id="Rapid_pace_of_growth" transform="translate(-25.001 -25)">
    <path id="Path_5745" d="M98.1,94.84a1.362,1.362,0,0,1-.963-2.324l22.5-22.5a1.361,1.361,0,0,1,1.925,0l9.762,9.761L145.313,28.3,93.839,42.282l9.762,9.762a1.361,1.361,0,0,1,0,1.925l-22.5,22.5a1.361,1.361,0,0,1-1.925-1.925l21.541-21.542-10.46-10.46a1.361,1.361,0,0,1,.606-2.276l56.034-15.221a1.361,1.361,0,0,1,1.671,1.671L133.342,82.754a1.361,1.361,0,0,1-2.276.605L120.606,72.9,99.065,94.441A1.358,1.358,0,0,1,98.1,94.84Z" transform="translate(-44.294 0)" fill="#59db35"/>
    <path id="Path_5746" d="M109.385,171.768a1.362,1.362,0,0,1-.963-2.324L136.3,141.566a1.361,1.361,0,0,1,1.925,0l2.968,2.967,4.929-18.144-18.144,4.929,2.967,2.967a1.361,1.361,0,0,1,0,1.925l-27.878,27.877a1.361,1.361,0,0,1-1.925-1.925l26.915-26.915-3.665-3.666a1.361,1.361,0,0,1,.606-2.276l22.7-6.167a1.361,1.361,0,0,1,1.67,1.67l-6.167,22.7a1.361,1.361,0,0,1-2.276.605l-3.666-3.666-26.915,26.915A1.358,1.358,0,0,1,109.385,171.768Z" transform="translate(-62.392 -80.801)" fill="#59db35"/>
    <path id="Path_5747" d="M109.972,159.778a1.362,1.362,0,0,1-.963-2.324l11.8-11.8a1.361,1.361,0,0,1,1.925,1.925l-11.8,11.8A1.356,1.356,0,0,1,109.972,159.778Z" transform="translate(-68.872 -99.062)" fill="#59db35"/>
    <path id="Path_5748" d="M26.363,188.02A1.362,1.362,0,0,1,25.4,185.7L38.591,172.5a1.361,1.361,0,0,1,1.925,1.925L27.325,187.621A1.357,1.357,0,0,1,26.363,188.02Z" transform="translate(0 -121.176)" fill="#59db35"/>
    <path id="Path_5749" d="M64.878,249.169a1.361,1.361,0,0,1-.963-2.324l2.318-2.318a1.361,1.361,0,0,1,1.925,1.925l-2.318,2.318A1.357,1.357,0,0,1,64.878,249.169Z" transform="translate(-31.727 -180.505)" fill="#59db35"/>
    <path id="Path_5750" d="M273.73,323.538a1.362,1.362,0,0,1-.963-2.324l11.8-11.8a1.361,1.361,0,0,1,1.925,1.925l-11.8,11.8A1.358,1.358,0,0,1,273.73,323.538Z" transform="translate(-203.767 -233.957)" fill="#59db35"/>
    <path id="Path_5751" d="M238.971,400.63a1.362,1.362,0,0,1-.963-2.324l13.191-13.19a1.361,1.361,0,1,1,1.925,1.925l-13.191,13.19A1.358,1.358,0,0,1,238.971,400.63Z" transform="translate(-175.134 -296.313)" fill="#59db35"/>
    <path id="Path_5752" d="M228.637,412.929a1.362,1.362,0,0,1-.963-2.324l2.318-2.318a1.361,1.361,0,0,1,1.925,1.925L229.6,412.53A1.356,1.356,0,0,1,228.637,412.929Z" transform="translate(-166.621 -315.401)" fill="#59db35"/>
  </g>
</svg>
