<svg xmlns="http://www.w3.org/2000/svg" width="70.963" height="79.362" viewBox="0 0 70.963 79.362"><path id="Targeted_outcomes" d="M96.8,26A23.877,23.877,0,0,0,72.967,49H63.5l-2.448-3.379a.852.852,0,0,0-.69-.352H51.554a.852.852,0,0,0-.69,1.351L53.2,49.849,50.864,53.08a.852.852,0,0,0,.69,1.351h8.813a.852.852,0,0,0,.69-.352L63.5,50.7h9.463A23.873,23.873,0,0,0,85.315,70.744l-1.1,2.18a4.4,4.4,0,0,0-5.145,2.32L73.66,73.825c.005-.09.009-.181.009-.272A4.4,4.4,0,1,0,65.017,74.7l-6.025,2.979a4.391,4.391,0,1,0,.757,1.526l6.025-2.979a4.4,4.4,0,0,0,7.454-.757l5.411,1.419c-.005.09-.009.181-.009.272a4.4,4.4,0,1,0,7.107-3.472l1.1-2.18A23.848,23.848,0,1,0,96.8,26ZM55.5,83.059a2.7,2.7,0,1,1,2.7-2.7A2.7,2.7,0,0,1,55.5,83.059Zm13.767-6.807a2.7,2.7,0,1,1,2.7-2.7A2.7,2.7,0,0,1,69.266,76.253Zm13.767,3.611a2.7,2.7,0,1,1,2.7-2.7A2.7,2.7,0,0,1,83.033,79.864Zm-23.1-27.136h-6.71l1.724-2.379a.851.851,0,0,0,0-1l-1.724-2.38h6.71l2.086,2.879ZM74.672,50.7H81.04a15.8,15.8,0,0,0,7.907,12.835l-2.866,5.687A22.168,22.168,0,0,1,74.672,50.7ZM96.8,49h-5.95a6.012,6.012,0,1,1,0,1.7H96.8a.852.852,0,0,0,0-1.7Zm0,8.567A7.715,7.715,0,1,0,89.132,49H82.749a14.082,14.082,0,1,1,8.487,13.782l2.873-5.7A7.679,7.679,0,0,0,96.8,57.564ZM89.132,50.7a7.722,7.722,0,0,0,3.457,5.609l-2.872,5.7A14.089,14.089,0,0,1,82.749,50.7ZM96.8,71.994a22.014,22.014,0,0,1-9.2-2L90.468,64.3A15.781,15.781,0,1,0,81.041,49H74.672a22.145,22.145,0,1,1,22.127,23ZM59.446,93.1H51.554a.852.852,0,0,0-.852.852v9.558a.852.852,0,0,0,.852.852h7.892a.852.852,0,0,0,.852-.852V93.953A.852.852,0,0,0,59.446,93.1Zm-.852,9.558H52.405V94.8h6.188ZM73.212,86H65.32a.852.852,0,0,0-.852.852v16.662a.852.852,0,0,0,.852.852h7.892a.852.852,0,0,0,.852-.852V86.849A.852.852,0,0,0,73.212,86Zm-.852,16.662H66.172V87.7H72.36ZM86.979,90.118H79.087a.852.852,0,0,0-.852.852v12.541a.852.852,0,0,0,.852.852h7.892a.852.852,0,0,0,.852-.852V90.97A.852.852,0,0,0,86.979,90.118Zm-.852,12.541H79.939V91.821h6.188Zm14.618-24.376H92.853a.852.852,0,0,0-.852.852v24.376a.852.852,0,0,0,.852.852h7.892a.852.852,0,0,0,.852-.852V79.135A.852.852,0,0,0,100.745,78.283Zm-.852,24.376H93.705V79.986h6.188Z" transform="translate(-50.185 -25.5)" fill="#59db35" stroke="rgba(0,0,0,0)" stroke-miterlimit="10" stroke-width="1"/></svg>
