<svg xmlns="http://www.w3.org/2000/svg" width="96.943" height="79.887" viewBox="0 0 96.943 79.887">
  <defs>
    <clipPath id="clip-path">
      <path id="path141" d="M0-682.665H27.538v27.538H0Z" transform="translate(0 682.665)" fill="#59db35"/>
    </clipPath>
  </defs>
  <g id="Youthful_demographics" transform="translate(-448.723 -3631.851)">
    <g id="g6027" transform="translate(448.723 3631.851)">
      <g id="g6029" transform="translate(40.053 39.835)">
        <path id="path6031" d="M-222.057-119.25l-34.119-18.323" transform="translate(256.177 137.573)" fill="none"/>
      </g>
      <g id="g6033" transform="translate(0 0)">
        <g id="Group_730">
          <g id="g6041" transform="translate(0 11.126)">
            <path id="path6043" d="M30.052-185.518H-8.668A1.332,1.332,0,0,1-10-186.85a1.332,1.332,0,0,1,1.332-1.332H29.5l26.99-26.988a1.332,1.332,0,0,1,1.884,0,1.332,1.332,0,0,1,0,1.884l-26.23,26.229c-.26.26,16.32,33.564,16.125,33.9-4,3.523-2.642,1.6-2.642,1.6C45.376-151.3,30.405-185.518,30.052-185.518Z" transform="translate(10 215.559)" fill="#59db35"/>
          </g>
          <g id="g6045" transform="translate(19.626 72.194)">
            <path id="path6047" d="M10.426-2.309a40.047,40.047,0,0,1-19.753-5.2,1.332,1.332,0,0,1-.5-1.816,1.332,1.332,0,0,1,1.816-.5A37.378,37.378,0,0,0,10.426-4.972c1.226,0,2.477-.062,3.718-.184a1.332,1.332,0,0,1,1.456,1.2A1.332,1.332,0,0,1,14.4-2.5C13.077-2.375,11.738-2.309,10.426-2.309Z" transform="translate(10.002 10.002)" fill="#59db35"/>
          </g>
          <g id="g6049" transform="translate(0.001 30.949)">
            <path id="path6051" d="M-59.289-208.022a1.33,1.33,0,0,1-1.065-.53A39.7,39.7,0,0,1-68.4-232.635a40.24,40.24,0,0,1,.764-7.814A1.332,1.332,0,0,1-66.07-241.5a1.332,1.332,0,0,1,1.047,1.566,37.571,37.571,0,0,0-.713,7.3,37.061,37.061,0,0,0,7.51,22.479,1.332,1.332,0,0,1-.262,1.865A1.326,1.326,0,0,1-59.289-208.022Z" transform="translate(68.4 241.521)" fill="#59db35"/>
          </g>
          <g id="g6053" transform="translate(46.856 0.641)">
            <path id="path6055" d="M16.678,11.063a1.331,1.331,0,0,1-1.152-.662A37.463,37.463,0,0,0-8.948-7.367,1.332,1.332,0,0,1-9.972-8.948,1.332,1.332,0,0,1-8.392-9.972,40.132,40.132,0,0,1,17.827,9.061a1.332,1.332,0,0,1-1.15,2Z" transform="translate(10.002 10.002)" fill="#59db35"/>
          </g>
          <g id="g6057" transform="translate(2.471)">
            <path id="path6059" d="M-8.671-169.212a1.329,1.329,0,0,1-.469-.086,1.332,1.332,0,0,1-.778-1.715,40.335,40.335,0,0,1,33.236-25.728,1.332,1.332,0,0,1,1.465,1.184,1.332,1.332,0,0,1-1.184,1.465A37.65,37.65,0,0,0-7.424-170.075,1.332,1.332,0,0,1-8.671-169.212Z" transform="translate(10.003 196.748)" fill="#59db35"/>
          </g>
          <g id="g6061" transform="translate(48.737 50.206)">
            <path id="path6063" d="M-8.671-174.644a1.332,1.332,0,0,1-1.286-.989,1.332,1.332,0,0,1,.943-1.63,37.892,37.892,0,0,0,22.24-16.663c1.478-2.361,4.093-1.659,2.393,1.19A40.233,40.233,0,0,1-8.327-174.69,1.334,1.334,0,0,1-8.671-174.644Z" transform="translate(10.002 203.015)" fill="#59db35"/>
          </g>
          <g id="Group_732" transform="translate(-5 4.403)">
            <g id="g6081" transform="translate(70.799 17.682)">
              <path id="path6083" d="M-70.684-45.416A10.159,10.159,0,0,1-60.536-35.269,10.159,10.159,0,0,1-70.684-25.122,10.158,10.158,0,0,1-80.83-35.269,10.158,10.158,0,0,1-70.684-45.416Zm0,15.826A5.685,5.685,0,0,0-65-35.269a5.685,5.685,0,0,0-5.679-5.679,5.685,5.685,0,0,0-5.678,5.679A5.685,5.685,0,0,0-70.684-29.59Z" transform="translate(86.732 36.495)" fill="#59db35"/>
            </g>
            <g id="g6085" transform="translate(67.85 27.116)">
              <path id="path6087" d="M-114-96.482h8A9.979,9.979,0,0,1-96-87.34l1.088,12.217a3.8,3.8,0,0,1-.98,2.9,3.8,3.8,0,0,1-2.8,1.233h-1.468v12.363a5.359,5.359,0,0,1-5.353,5.354h-8.959a5.359,5.359,0,0,1-5.353-5.354V-70.994H-121.3a3.8,3.8,0,0,1-2.8-1.233,3.8,3.8,0,0,1-.98-2.9l1.088-12.216A9.979,9.979,0,0,1-114-96.482Zm14.563,21.02-1.022-11.482A5.534,5.534,0,0,0-106-92.014h-8a5.534,5.534,0,0,0-5.541,5.07l-1.022,11.482h2.965a2.234,2.234,0,0,1,2.234,2.234v14.6a.886.886,0,0,0,.884.885h8.959a.886.886,0,0,0,.885-.885v-14.6a2.234,2.234,0,0,1,2.234-2.234Z" transform="translate(128.994 93.953)" fill="#59db35"/>
            </g>
          </g>
        </g>
      </g>
    </g>
    <g id="g135" transform="translate(458.832 3643.224)">
      <g id="g137" transform="translate(0 0)">
        <g id="g139" clip-path="url(#clip-path)">
          <g id="g145" transform="translate(14.854 0)">
            <path id="path147" d="M-7.038-23.218a.4.4,0,0,1-.3-.139.4.4,0,0,1,.04-.569,2.465,2.465,0,0,0,.859-1.765,2.438,2.438,0,0,0-.749-1.819.4.4,0,0,1-.108-.379.4.4,0,0,1,.266-.29c.461-.152.747-.484.644-1.513l-1.172.586a.4.4,0,0,1-.18.043H-9.6a.4.4,0,0,1-.4-.4.4.4,0,0,1,.4-.4h1.757l1.586-.793a.4.4,0,0,1,.36,0,.4.4,0,0,1,.217.288c.107.583.368,2.007-.592,2.7a3.183,3.183,0,0,1,.632,2.007,3.274,3.274,0,0,1-1.137,2.347A.4.4,0,0,1-7.038-23.218Z" transform="translate(10 30.707)" fill="#59db35"/>
          </g>
          <g id="g149" transform="translate(8.359 0.835)">
            <path id="path151" d="M-32.409-148.28a.4.4,0,0,1-.312-.147,4.191,4.191,0,0,1-1-3.227,2.191,2.191,0,0,1,.926-1.436,2.059,2.059,0,0,1,.595-1.235,2.06,2.06,0,0,1,1.466-.608h2.107a.4.4,0,0,1,.4.4.4.4,0,0,1-.4.4h-2.107a1.259,1.259,0,0,0-.9.371,1.259,1.259,0,0,0-.371.9.4.4,0,0,1-.206.352,1.4,1.4,0,0,0-.721,1,3.414,3.414,0,0,0,.835,2.565.4.4,0,0,1-.056.568A.4.4,0,0,1-32.409-148.28Z" transform="translate(33.771 154.933)" fill="#59db35"/>
          </g>
          <g id="g153" transform="translate(4.717 16.673)">
            <path id="path155" d="M-93.667.862H-99.73a.4.4,0,0,1-.4-.4V-5.708a4.107,4.107,0,0,1,2.778-3.886l1.131-.387a.4.4,0,0,1,.512.251.4.4,0,0,1-.251.512l-1.131.387a3.3,3.3,0,0,0-2.232,3.123V.056h5.659a.4.4,0,0,1,.4.4A.4.4,0,0,1-93.667.862Z" transform="translate(100.133 10.003)" fill="#59db35"/>
          </g>
          <g id="g157" transform="translate(12.538 18.657)">
            <path id="path159" d="M-221.907-1.12h-9.475a.4.4,0,0,1-.4-.4.4.4,0,0,1,.4-.4h9.072V-7.691a3.3,3.3,0,0,0-.471-1.7.4.4,0,0,1,.138-.554.4.4,0,0,1,.554.138,4.108,4.108,0,0,1,.586,2.115v6.167A.4.4,0,0,1-221.907-1.12Z" transform="translate(231.786 10.001)" fill="#59db35"/>
          </g>
          <g id="g161" transform="translate(18.377 16.672)">
            <path id="path163" d="M-7.729-8.461a.4.4,0,0,1-.211-.06A3.312,3.312,0,0,0-8.6-8.83L-9.73-9.218a.4.4,0,0,1-.251-.512.4.4,0,0,1,.512-.251l1.132.387a4.12,4.12,0,0,1,.819.386.4.4,0,0,1,.133.555A.4.4,0,0,1-7.729-8.461Z" transform="translate(10.003 10.003)" fill="#59db35"/>
          </g>
          <g id="g165" transform="translate(8.353 13.511)">
            <path id="path167" d="M-72.74-65.864a.4.4,0,0,1,.27.1.4.4,0,0,1,.133.3v2.15l2.309,4.192a.4.4,0,0,1-.006.4.4.4,0,0,1-.347.2,5.3,5.3,0,0,1-5.387-3.63.4.4,0,0,1-.029-.143c-.034-2.126,1.008-3.36,3.015-3.569Zm1.657,6.5-2.011-3.651a.4.4,0,0,1-.05-.195V-64.99c-1.262.272-1.852,1.112-1.847,2.61A4.423,4.423,0,0,0-71.083-59.361Z" transform="translate(75.797 65.864)" fill="#59db35"/>
          </g>
          <g id="g169" transform="translate(11.695 19.846)">
            <path id="path171" d="M-9.6-93.5a.4.4,0,0,1-.4-.4v-3.544a.4.4,0,0,1,.4-.4.4.4,0,0,1,.4.4V-93.9A.4.4,0,0,1-9.6-93.5Z" transform="translate(10 97.846)" fill="#59db35"/>
          </g>
          <g id="g173" transform="translate(13.365 13.511)">
            <path id="path175" d="M-65.708-65.864l.042,0c2.007.209,3.049,1.443,3.015,3.569a.4.4,0,0,1-.029.143,5.3,5.3,0,0,1-5.387,3.63.4.4,0,0,1-.347-.2.4.4,0,0,1-.006-.4l2.309-4.192v-2.15a.4.4,0,0,1,.133-.3A.4.4,0,0,1-65.708-65.864Zm2.251,3.484c.005-1.5-.586-2.338-1.847-2.61v1.783a.4.4,0,0,1-.05.195l-2.011,3.651A4.423,4.423,0,0,0-63.458-62.38Z" transform="translate(68.47 65.864)" fill="#59db35"/>
          </g>
          <g id="g177" transform="translate(15.036 19.846)">
            <path id="path179" d="M-9.6-93.5a.4.4,0,0,1-.4-.4v-3.544a.4.4,0,0,1,.4-.4.4.4,0,0,1,.4.4V-93.9A.4.4,0,0,1-9.6-93.5Z" transform="translate(10 97.846)" fill="#59db35"/>
          </g>
          <g id="g181" transform="translate(7.518 6.89)">
            <path id="path183" d="M-53.177-10h.754a.4.4,0,0,1,.4.4V-6.72a.4.4,0,0,1-.4.4h-.754a1.451,1.451,0,0,1-1.45-1.45V-8.55A1.451,1.451,0,0,1-53.177-10Zm.351.807h-.351a.644.644,0,0,0-.643.643v.784a.644.644,0,0,0,.643.643h.351Z" transform="translate(54.627 10)" fill="#59db35"/>
          </g>
          <g id="g185" transform="translate(17.413 6.89)">
            <path id="path187" d="M-9.6-10h.754a1.451,1.451,0,0,1,1.45,1.45v.784a1.451,1.451,0,0,1-1.45,1.45H-9.6a.4.4,0,0,1-.4-.4V-9.6A.4.4,0,0,1-9.6-10Zm.754,2.876A.644.644,0,0,0-8.2-7.766V-8.55a.644.644,0,0,0-.643-.643h-.351v2.07Z" transform="translate(10 10)" fill="#59db35"/>
          </g>
          <g id="g189" transform="translate(9.318 4.176)">
            <path id="path191" d="M-8.056-72.124h5.012a.4.4,0,0,1,.394.318c.032.148.059.291.085.431.161.855.258,1.371,1.223,1.79a.4.4,0,0,1,.243.37v3.541a4.456,4.456,0,0,1-4.451,4.451A4.456,4.456,0,0,1-10-65.674v-3.541a.4.4,0,0,1,.265-.379c.811-.3.919-.742,1.136-1.633.046-.189.095-.389.154-.6A.4.4,0,0,1-8.056-72.124Zm4.682.807H-7.745c-.024.1-.047.19-.069.281a2.569,2.569,0,0,1-1.379,2.091v3.271A3.648,3.648,0,0,0-5.549-62.03a3.648,3.648,0,0,0,3.644-3.644v-3.286a2.658,2.658,0,0,1-1.451-2.266Z" transform="translate(10 72.124)" fill="#59db35"/>
          </g>
          <g id="g193" transform="translate(12.354 11.147)">
            <path id="path195" d="M-8.585-8.182A1.417,1.417,0,0,1-10-9.6a.4.4,0,0,1,.4-.4.4.4,0,0,1,.4.4.609.609,0,0,0,.608.608A.609.609,0,0,0-7.977-9.6a.4.4,0,0,1,.4-.4.4.4,0,0,1,.4.4A1.417,1.417,0,0,1-8.585-8.182Z" transform="translate(10 10)" fill="#59db35"/>
          </g>
          <g id="g197" transform="translate(11.659 8.638)">
            <path id="path199" d="M-9.6-8.664a.4.4,0,0,1-.4-.4V-9.6a.4.4,0,0,1,.4-.4.4.4,0,0,1,.4.4v.529A.4.4,0,0,1-9.6-8.664Z" transform="translate(10 10)" fill="#59db35"/>
          </g>
          <g id="g201" transform="translate(15.135 8.638)">
            <path id="path203" d="M-9.6-8.664a.4.4,0,0,1-.4-.4V-9.6a.4.4,0,0,1,.4-.4.4.4,0,0,1,.4.4v.529A.4.4,0,0,1-9.6-8.664Z" transform="translate(10 10)" fill="#59db35"/>
          </g>
          <g id="g205" transform="translate(11.242 7.216)">
            <path id="path207" d="M-8.761-9.193H-9.6a.4.4,0,0,1-.4-.4.4.4,0,0,1,.4-.4h.835a.4.4,0,0,1,.4.4A.4.4,0,0,1-8.761-9.193Z" transform="translate(10 10)" fill="#59db35"/>
          </g>
          <g id="g209" transform="translate(14.654 7.216)">
            <path id="path211" d="M-8.761-9.193H-9.6a.4.4,0,0,1-.4-.4.4.4,0,0,1,.4-.4h.835a.4.4,0,0,1,.4.4A.4.4,0,0,1-8.761-9.193Z" transform="translate(10 10)" fill="#59db35"/>
          </g>
        </g>
      </g>
    </g>
    <g id="people" transform="translate(474.199 3680.458)">
      <path id="Path_5753" d="M15.965,21.26l-.025.024,0,0c-.027.025-.053.047-.086.081A6.684,6.684,0,0,0,13.892,26.1v3.815a.473.473,0,0,0,.473.473H30.557a.473.473,0,0,0,.473-.473V26.1a6.806,6.806,0,0,0-.221-1.715,6.691,6.691,0,0,0-1.824-3.1h0l-.005-.005a6.645,6.645,0,0,0-4.171-1.856v-.3h3.908a2.017,2.017,0,0,0,2.015-2.015V11.67a1.836,1.836,0,0,0,0-1.161v-.366a8.15,8.15,0,1,0-16.3,0v.365a1.831,1.831,0,0,0,0,1.171v5.429a2.017,2.017,0,0,0,2.015,2.015h3.668v.3a6.614,6.614,0,0,0-4.15,1.837Zm12.477.833a5.746,5.746,0,0,1,1.251,1.945H27.4a.473.473,0,0,0-.473.473v.71H17.95v-.7a.473.473,0,0,0-.473-.473H15.221a5.8,5.8,0,0,1,1.249-1.958Zm-10.7,7.351-.2-.615a2.619,2.619,0,0,1-.077-.362h9.941a2.658,2.658,0,0,1-.074.349l-.2.628Zm-.263-1.921a2.792,2.792,0,0,1,.259-.789,1.893,1.893,0,0,0,.186-.564h9.036a2.025,2.025,0,0,0,.2.584,2.681,2.681,0,0,1,.248.769ZM14.838,26.1A5.77,5.77,0,0,1,14.956,25H17v.858a1,1,0,0,1-.125.473,3.647,3.647,0,0,0-.406,1.656.089.089,0,0,0,0,.011V28a3.62,3.62,0,0,0,.17,1.117l.1.324H14.838Zm15.246,3.341H28.125l.108-.337a3.578,3.578,0,0,0,.169-1.1.09.09,0,0,0,0-.011c0-.006,0-.01,0-.017a3.733,3.733,0,0,0-.423-1.7.958.958,0,0,1-.108-.441v-.858h2.092a5.852,5.852,0,0,1,.121,1.119Zm-2.843-8.3H17.682a5.716,5.716,0,0,1,2.907-.793.473.473,0,0,0,.473-.473V17.187a5.926,5.926,0,0,0,2.8.057V19.88a.473.473,0,0,0,.473.473,5.719,5.719,0,0,1,2.908.794ZM15.281,11.09a1.062,1.062,0,0,1,.323-.765,1.051,1.051,0,0,1,.619-.3q-.021.276-.021.557a7.245,7.245,0,0,0,.178,1.592h-.017A1.084,1.084,0,0,1,15.281,11.09ZM17.445,12.5a.071.071,0,0,0-.005-.019c0-.006,0-.015-.006-.022a6.208,6.208,0,0,1-.287-1.879,6.531,6.531,0,0,1,.072-.973,6.181,6.181,0,0,1,.671-1.991.663.663,0,0,1,.576-.326H26.7a.648.648,0,0,1,.568.324,6.094,6.094,0,0,1,.672,1.993.485.485,0,0,0,.013.058,6.578,6.578,0,0,1,.062.915,6.212,6.212,0,0,1-.3,1.923,5.657,5.657,0,0,1-3.53,3.677,5.118,5.118,0,0,1-3.426-.081A5.723,5.723,0,0,1,17.445,12.5ZM29.876,11.09a1.073,1.073,0,0,1-.316.765,1.058,1.058,0,0,1-.757.318h-.018a7.244,7.244,0,0,0,.178-1.593q0-.281-.02-.557a1.079,1.079,0,0,1,.936,1.069Zm-1.16,7.086H24.808v-1.23a6.592,6.592,0,0,0,3.682-3.826H28.8a1.993,1.993,0,0,0,.984-.266v4.254a1.07,1.07,0,0,1-1.071,1.068ZM22.58,2.943A7.193,7.193,0,0,1,29.729,9.3a2,2,0,0,0-.929-.237h-.007a7,7,0,0,0-.7-1.9,1.584,1.584,0,0,0-1.4-.818H18.467a1.6,1.6,0,0,0-1.406.819,7.156,7.156,0,0,0-.7,1.9h0a1.994,1.994,0,0,0-.933.237A7.209,7.209,0,0,1,22.58,2.943ZM16.447,18.176a1.07,1.07,0,0,1-1.069-1.069V12.853a2,2,0,0,0,.985.266h.308a6.568,6.568,0,0,0,3.443,3.726v1.331Z" transform="translate(-13.892 -1.993)" fill="#59db35"/>
      <path id="Path_5754" d="M25.776,16.454a.7.7,0,1,0,.7.7.7.7,0,0,0-.7-.7Zm0,.946a.248.248,0,1,1,.248-.248A.248.248,0,0,1,25.776,17.4Z" transform="translate(-19.784 -9.611)" fill="#59db35"/>
      <path id="Path_5755" d="M37.391,16.454a.7.7,0,1,0,.7.7A.7.7,0,0,0,37.391,16.454Zm0,.946a.248.248,0,1,1,.248-.248.248.248,0,0,1-.248.248Z" transform="translate(-25.903 -9.611)" fill="#59db35"/>
      <path id="Path_5756" d="M25.9,14.612a.473.473,0,0,0,0-.946H23.735a.473.473,0,0,0,0,.946Z" transform="translate(-18.828 -8.142)" fill="#59db35"/>
      <path id="Path_5757" d="M35.35,14.612h2.17a.473.473,0,1,0,0-.946H35.35a.473.473,0,1,0,0,.946Z" transform="translate(-24.946 -8.142)" fill="#59db35"/>
      <path id="Path_5758" d="M29.278,25.534a1.831,1.831,0,0,0,1.368.724h.061a1.83,1.83,0,0,0,1.388-.669A.473.473,0,0,0,31.353,25a.823.823,0,0,1-1.312-.026.473.473,0,1,0-.762.56Z" transform="translate(-21.945 -13.992)" fill="#59db35"/>
    </g>
  </g>
</svg>
